<svg width="272" height="112" viewBox="0 0 272 112" fill="none" xmlns="http://www.w3.org/2000/svg">
<g clip-path="url(#clip0_1_172)">
<path d="M108.823 19.1112C108.172 19.4668 107.846 20.089 107.846 20.8001C107.846 21.4223 108.172 21.9557 108.715 22.3112C109.366 22.6668 110.126 22.9334 111.211 22.9334C112.839 22.9334 114.033 22.5779 114.901 21.8668C115.77 21.1557 116.204 20.2668 116.312 19.1112V18.5779H111.537C110.343 18.5779 109.474 18.7557 108.823 19.1112Z" fill="#3F3B3D"/>
<path d="M146.051 19.1112C145.4 19.4668 145.074 20.089 145.074 20.8001C145.074 21.4223 145.4 21.9557 145.943 22.3112C146.594 22.6668 147.354 22.9334 148.439 22.9334C150.067 22.9334 151.261 22.5779 152.129 21.8668C152.998 21.1557 153.432 20.2668 153.54 19.1112V18.5779H148.765C147.571 18.5779 146.702 18.7557 146.051 19.1112Z" fill="#3F3B3D"/>
<path d="M180.566 14.7556C180.566 10.8444 176.767 7.82222 172.1 7.82222C171.666 7.82222 171.123 7.82222 170.689 7.91111C170.798 7.64444 170.798 7.28889 170.798 7.02222C170.798 3.82222 167.541 1.24444 163.743 1.24444C160.487 1.24444 157.665 3.02222 156.905 5.51111C155.711 5.24444 154.517 5.15556 153.323 5.15556C152.129 5.15556 150.935 5.33333 149.741 5.51111C149.09 4.35556 147.571 3.55556 145.943 3.55556C144.966 3.55556 144.098 3.82222 143.338 4.26667C142.795 1.77778 140.19 0 137.151 0C134.004 0 131.399 1.86667 130.965 4.35556C129.12 3.11111 126.623 2.4 124.127 2.4C120.979 2.4 118.157 3.46667 116.204 5.24444C114.793 4.97778 113.382 4.71111 111.862 4.71111C109.04 4.71111 106.435 5.24444 104.156 6.31111C103.071 5.86667 101.877 5.6 100.574 5.6C96.1244 5.6 92.5427 8.62222 92.5427 12.1778C92.5427 14.2222 93.6281 16 95.3646 17.1556C95.3646 17.5111 95.2561 17.9556 95.2561 18.4C95.1476 25.9556 102.637 32 111.862 32C114.684 32 117.289 31.4667 119.46 30.4889C120.871 31.1111 122.607 31.4667 124.344 31.4667C128.034 31.4667 131.073 29.8667 132.918 27.4667C134.438 28.8 136.5 29.6 138.779 29.6C140.299 29.6 141.818 29.2444 143.012 28.6222C145.617 30.4889 149.09 31.6444 152.672 31.6444C156.145 31.6444 159.293 30.6667 161.789 28.9778C163.309 30.2222 165.371 30.9333 167.759 30.9333C172.534 30.9333 176.224 27.8222 176.224 24C176.224 22.9333 175.899 21.9556 175.465 21.0667C178.504 20.0889 180.566 17.6 180.566 14.7556ZM122.065 25.2444H120.002C118.809 25.2444 117.94 25.0667 117.398 24.6222C116.855 24.1778 116.638 23.6444 116.638 22.8444C115.227 24.5333 113.273 25.4222 110.668 25.4222C108.606 25.4222 106.978 25.0667 105.784 24.2667C104.59 23.4667 103.939 22.4 103.939 21.0667C103.939 19.5556 104.59 18.4 105.893 17.5111C107.195 16.7111 109.149 16.2667 111.645 16.2667H116.204V15.3778C116.204 14.5778 115.878 13.8667 115.118 13.4222C114.359 12.9778 113.382 12.7111 112.188 12.7111C111.102 12.7111 110.126 12.8889 109.474 13.3333C108.715 13.6889 108.28 14.2222 108.172 14.9333H104.373C104.59 13.4222 105.35 12.2667 106.761 11.4667C108.172 10.6667 110.017 10.2222 112.296 10.2222C114.684 10.2222 116.638 10.6667 117.94 11.6444C119.243 12.5333 119.894 13.9556 119.894 15.6444V21.4222C119.894 22.1333 120.328 22.4889 121.088 22.4889L122.065 22.4C122.065 22.4889 122.065 25.2444 122.065 25.2444ZM133.352 13.3333H131.616C129.988 13.3333 128.902 13.7778 128.143 14.5778C127.383 15.3778 127.057 16.5333 127.057 17.7778V25.1556H123.259V10.4H126.732L127.166 12.6222C127.709 11.9111 128.36 11.3778 129.228 11.0222C130.096 10.6667 131.182 10.4 132.593 10.4H133.461C133.352 10.4 133.352 13.3333 133.352 13.3333ZM138.888 25.2444H135.089V10.4H138.888V25.2444ZM138.671 7.64444C138.237 8 137.694 8.17778 137.043 8.17778C136.391 8.17778 135.849 8 135.415 7.64444C134.98 7.28889 134.763 6.84444 134.763 6.31111C134.763 5.77778 134.98 5.33333 135.415 5.06667C135.849 4.71111 136.391 4.53333 137.043 4.53333C137.694 4.44444 138.237 4.62222 138.671 5.06667C139.105 5.42222 139.322 5.86667 139.322 6.4C139.322 6.93333 139.105 7.28889 138.671 7.64444ZM159.184 25.2444H157.122C155.928 25.2444 155.06 25.0667 154.517 24.6222C153.974 24.1778 153.757 23.6444 153.757 22.8444C152.346 24.5333 150.393 25.4222 147.788 25.4222C145.726 25.4222 144.098 25.0667 142.904 24.2667C141.71 23.4667 141.059 22.4 141.059 21.0667C141.059 19.5556 141.71 18.4 143.012 17.5111C144.315 16.7111 146.268 16.2667 148.765 16.2667H153.323V15.3778C153.323 14.5778 152.998 13.8667 152.238 13.4222C151.478 12.9778 150.501 12.7111 149.307 12.7111C148.222 12.7111 147.245 12.8889 146.594 13.3333C145.834 13.6889 145.4 14.2222 145.291 14.9333H141.493C141.71 13.4222 142.47 12.2667 143.881 11.4667C145.291 10.6667 147.137 10.2222 149.416 10.2222C151.804 10.2222 153.757 10.6667 155.06 11.6444C156.362 12.5333 157.013 13.9556 157.013 15.6444V21.4222C157.013 22.1333 157.448 22.4889 158.207 22.4889L159.184 22.4C159.184 22.4889 159.184 25.2444 159.184 25.2444ZM165.045 25.2444H161.246V4.97778H165.045V25.2444Z" fill="#3F3B3D"/>
</g>
<path d="M32.3516 54V55.0625L32.1172 57.8516H31.25V55.1328V54H32.3516ZM34.4609 54V55.0625L34.2266 57.8516H33.3594V55.0781V54H34.4609ZM40.6797 60.6797H37.7969L37.7812 59.4688H40.3984C40.8307 59.4688 41.2083 59.3958 41.5312 59.25C41.8542 59.1042 42.1042 58.8958 42.2812 58.625C42.4635 58.349 42.5547 58.0208 42.5547 57.6406C42.5547 57.224 42.474 56.8854 42.3125 56.625C42.1562 56.3594 41.9141 56.1667 41.5859 56.0469C41.263 55.9219 40.8516 55.8594 40.3516 55.8594H38.1328V66H36.625V54.625H40.3516C40.9349 54.625 41.4557 54.6849 41.9141 54.8047C42.3724 54.9193 42.7604 55.1016 43.0781 55.3516C43.401 55.5964 43.6458 55.9089 43.8125 56.2891C43.9792 56.6693 44.0625 57.125 44.0625 57.6562C44.0625 58.125 43.9427 58.5495 43.7031 58.9297C43.4635 59.3047 43.1302 59.612 42.7031 59.8516C42.2812 60.0911 41.7865 60.2448 41.2188 60.3125L40.6797 60.6797ZM40.6094 66H37.2031L38.0547 64.7734H40.6094C41.0885 64.7734 41.4948 64.6901 41.8281 64.5234C42.1667 64.3568 42.4245 64.1224 42.6016 63.8203C42.7786 63.513 42.8672 63.151 42.8672 62.7344C42.8672 62.3125 42.7917 61.9479 42.6406 61.6406C42.4896 61.3333 42.2526 61.0964 41.9297 60.9297C41.6068 60.763 41.1901 60.6797 40.6797 60.6797H38.5312L38.5469 59.4688H41.4844L41.8047 59.9062C42.3516 59.9531 42.8151 60.1094 43.1953 60.375C43.5755 60.6354 43.8646 60.9688 44.0625 61.375C44.2656 61.7812 44.3672 62.2292 44.3672 62.7188C44.3672 63.4271 44.2109 64.026 43.8984 64.5156C43.5911 65 43.1562 65.3698 42.5938 65.625C42.0312 65.875 41.3698 66 40.6094 66ZM49.8828 66.1562C49.2943 66.1562 48.7604 66.0573 48.2812 65.8594C47.8073 65.6562 47.3984 65.3724 47.0547 65.0078C46.7161 64.6432 46.4557 64.2109 46.2734 63.7109C46.0911 63.2109 46 62.6641 46 62.0703V61.7422C46 61.0547 46.1016 60.4427 46.3047 59.9062C46.5078 59.3646 46.7839 58.9062 47.1328 58.5312C47.4818 58.1562 47.8776 57.8724 48.3203 57.6797C48.763 57.487 49.2214 57.3906 49.6953 57.3906C50.2995 57.3906 50.8203 57.4948 51.2578 57.7031C51.7005 57.9115 52.0625 58.2031 52.3438 58.5781C52.625 58.9479 52.8333 59.3854 52.9688 59.8906C53.1042 60.3906 53.1719 60.9375 53.1719 61.5312V62.1797H46.8594V61H51.7266V60.8906C51.7057 60.5156 51.6276 60.151 51.4922 59.7969C51.362 59.4427 51.1536 59.151 50.8672 58.9219C50.5807 58.6927 50.1901 58.5781 49.6953 58.5781C49.3672 58.5781 49.0651 58.6484 48.7891 58.7891C48.513 58.9245 48.276 59.1276 48.0781 59.3984C47.8802 59.6693 47.7266 60 47.6172 60.3906C47.5078 60.7812 47.4531 61.2318 47.4531 61.7422V62.0703C47.4531 62.4714 47.5078 62.849 47.6172 63.2031C47.7318 63.5521 47.8958 63.8594 48.1094 64.125C48.3281 64.3906 48.5911 64.599 48.8984 64.75C49.2109 64.901 49.5651 64.9766 49.9609 64.9766C50.4714 64.9766 50.9036 64.8724 51.2578 64.6641C51.612 64.4557 51.9219 64.1771 52.1875 63.8281L53.0625 64.5234C52.8802 64.7995 52.6484 65.0625 52.3672 65.3125C52.0859 65.5625 51.7396 65.7656 51.3281 65.9219C50.9219 66.0781 50.4401 66.1562 49.8828 66.1562ZM59.7812 63.7578C59.7812 63.5495 59.7344 63.3568 59.6406 63.1797C59.5521 62.9974 59.3672 62.8333 59.0859 62.6875C58.8099 62.5365 58.3932 62.4062 57.8359 62.2969C57.3672 62.1979 56.9427 62.0807 56.5625 61.9453C56.1875 61.8099 55.8672 61.6458 55.6016 61.4531C55.3411 61.2604 55.1406 61.0339 55 60.7734C54.8594 60.513 54.7891 60.2083 54.7891 59.8594C54.7891 59.526 54.862 59.2109 55.0078 58.9141C55.1589 58.6172 55.3698 58.3542 55.6406 58.125C55.9167 57.8958 56.2474 57.7161 56.6328 57.5859C57.0182 57.4557 57.4479 57.3906 57.9219 57.3906C58.599 57.3906 59.1771 57.5104 59.6562 57.75C60.1354 57.9896 60.5026 58.3099 60.7578 58.7109C61.013 59.1068 61.1406 59.5469 61.1406 60.0312H59.6953C59.6953 59.7969 59.625 59.5703 59.4844 59.3516C59.349 59.1276 59.1484 58.9427 58.8828 58.7969C58.6224 58.651 58.3021 58.5781 57.9219 58.5781C57.5208 58.5781 57.1953 58.6406 56.9453 58.7656C56.7005 58.8854 56.5208 59.0391 56.4062 59.2266C56.2969 59.4141 56.2422 59.612 56.2422 59.8203C56.2422 59.9766 56.2682 60.1172 56.3203 60.2422C56.3776 60.362 56.4766 60.474 56.6172 60.5781C56.7578 60.6771 56.9557 60.7708 57.2109 60.8594C57.4661 60.9479 57.7917 61.0365 58.1875 61.125C58.8802 61.2812 59.4505 61.4688 59.8984 61.6875C60.3464 61.9062 60.6797 62.1745 60.8984 62.4922C61.1172 62.8099 61.2266 63.1953 61.2266 63.6484C61.2266 64.0182 61.1484 64.3568 60.9922 64.6641C60.8411 64.9714 60.6198 65.237 60.3281 65.4609C60.0417 65.6797 59.6979 65.8516 59.2969 65.9766C58.901 66.0964 58.4557 66.1562 57.9609 66.1562C57.2161 66.1562 56.5859 66.0234 56.0703 65.7578C55.5547 65.4922 55.1641 65.1484 54.8984 64.7266C54.6328 64.3047 54.5 63.8594 54.5 63.3906H55.9531C55.974 63.7865 56.0885 64.1016 56.2969 64.3359C56.5052 64.5651 56.7604 64.7292 57.0625 64.8281C57.3646 64.9219 57.6641 64.9688 57.9609 64.9688C58.3568 64.9688 58.6875 64.9167 58.9531 64.8125C59.224 64.7083 59.4297 64.5651 59.5703 64.3828C59.7109 64.2005 59.7812 63.9922 59.7812 63.7578ZM66.6641 57.5469V58.6562H62.0938V57.5469H66.6641ZM63.6406 55.4922H65.0859V63.9062C65.0859 64.1927 65.1302 64.4089 65.2188 64.5547C65.3073 64.7005 65.4219 64.7969 65.5625 64.8438C65.7031 64.8906 65.8542 64.9141 66.0156 64.9141C66.1354 64.9141 66.2604 64.9036 66.3906 64.8828C66.526 64.8568 66.6276 64.8359 66.6953 64.8203L66.7031 66C66.5885 66.0365 66.4375 66.0703 66.25 66.1016C66.0677 66.138 65.8464 66.1562 65.5859 66.1562C65.2318 66.1562 64.9062 66.0859 64.6094 65.9453C64.3125 65.8047 64.0755 65.5703 63.8984 65.2422C63.7266 64.9089 63.6406 64.4609 63.6406 63.8984V55.4922ZM75.8672 57.5469V58.6562H71.2969V57.5469H75.8672ZM72.8438 55.4922H74.2891V63.9062C74.2891 64.1927 74.3333 64.4089 74.4219 64.5547C74.5104 64.7005 74.625 64.7969 74.7656 64.8438C74.9062 64.8906 75.0573 64.9141 75.2188 64.9141C75.3385 64.9141 75.4635 64.9036 75.5938 64.8828C75.7292 64.8568 75.8307 64.8359 75.8984 64.8203L75.9062 66C75.7917 66.0365 75.6406 66.0703 75.4531 66.1016C75.2708 66.138 75.0495 66.1562 74.7891 66.1562C74.4349 66.1562 74.1094 66.0859 73.8125 65.9453C73.5156 65.8047 73.2786 65.5703 73.1016 65.2422C72.9297 64.9089 72.8438 64.4609 72.8438 63.8984V55.4922ZM81.0703 66.1562C80.4818 66.1562 79.9479 66.0573 79.4688 65.8594C78.9948 65.6562 78.5859 65.3724 78.2422 65.0078C77.9036 64.6432 77.6432 64.2109 77.4609 63.7109C77.2786 63.2109 77.1875 62.6641 77.1875 62.0703V61.7422C77.1875 61.0547 77.2891 60.4427 77.4922 59.9062C77.6953 59.3646 77.9714 58.9062 78.3203 58.5312C78.6693 58.1562 79.0651 57.8724 79.5078 57.6797C79.9505 57.487 80.4089 57.3906 80.8828 57.3906C81.487 57.3906 82.0078 57.4948 82.4453 57.7031C82.888 57.9115 83.25 58.2031 83.5312 58.5781C83.8125 58.9479 84.0208 59.3854 84.1562 59.8906C84.2917 60.3906 84.3594 60.9375 84.3594 61.5312V62.1797H78.0469V61H82.9141V60.8906C82.8932 60.5156 82.8151 60.151 82.6797 59.7969C82.5495 59.4427 82.3411 59.151 82.0547 58.9219C81.7682 58.6927 81.3776 58.5781 80.8828 58.5781C80.5547 58.5781 80.2526 58.6484 79.9766 58.7891C79.7005 58.9245 79.4635 59.1276 79.2656 59.3984C79.0677 59.6693 78.9141 60 78.8047 60.3906C78.6953 60.7812 78.6406 61.2318 78.6406 61.7422V62.0703C78.6406 62.4714 78.6953 62.849 78.8047 63.2031C78.9193 63.5521 79.0833 63.8594 79.2969 64.125C79.5156 64.3906 79.7786 64.599 80.0859 64.75C80.3984 64.901 80.7526 64.9766 81.1484 64.9766C81.6589 64.9766 82.0911 64.8724 82.4453 64.6641C82.7995 64.4557 83.1094 64.1771 83.375 63.8281L84.25 64.5234C84.0677 64.7995 83.8359 65.0625 83.5547 65.3125C83.2734 65.5625 82.9271 65.7656 82.5156 65.9219C82.1094 66.0781 81.6276 66.1562 81.0703 66.1562ZM87.4844 59.2266V66H86.0312V57.5469H87.4062L87.4844 59.2266ZM87.1875 61.4531L86.5156 61.4297C86.5208 60.8516 86.5964 60.3177 86.7422 59.8281C86.888 59.3333 87.1042 58.9036 87.3906 58.5391C87.6771 58.1745 88.0339 57.8932 88.4609 57.6953C88.888 57.4922 89.3828 57.3906 89.9453 57.3906C90.3411 57.3906 90.7057 57.4479 91.0391 57.5625C91.3724 57.6719 91.6615 57.8464 91.9062 58.0859C92.151 58.3255 92.3411 58.6328 92.4766 59.0078C92.612 59.3828 92.6797 59.8359 92.6797 60.3672V66H91.2344V60.4375C91.2344 59.9948 91.1589 59.6406 91.0078 59.375C90.862 59.1094 90.6536 58.9167 90.3828 58.7969C90.112 58.6719 89.7943 58.6094 89.4297 58.6094C89.0026 58.6094 88.6458 58.6849 88.3594 58.8359C88.0729 58.987 87.8438 59.1953 87.6719 59.4609C87.5 59.7266 87.375 60.0312 87.2969 60.375C87.224 60.7135 87.1875 61.0729 87.1875 61.4531ZM92.6641 60.6562L91.6953 60.9531C91.7005 60.4896 91.776 60.0443 91.9219 59.6172C92.0729 59.1901 92.2891 58.8099 92.5703 58.4766C92.8568 58.1432 93.2083 57.8802 93.625 57.6875C94.0417 57.4896 94.5182 57.3906 95.0547 57.3906C95.5078 57.3906 95.9089 57.4505 96.2578 57.5703C96.612 57.6901 96.9089 57.875 97.1484 58.125C97.3932 58.3698 97.5781 58.6849 97.7031 59.0703C97.8281 59.4557 97.8906 59.9141 97.8906 60.4453V66H96.4375V60.4297C96.4375 59.9557 96.362 59.5885 96.2109 59.3281C96.0651 59.0625 95.8568 58.8776 95.5859 58.7734C95.3203 58.6641 95.0026 58.6094 94.6328 58.6094C94.3151 58.6094 94.0339 58.6641 93.7891 58.7734C93.5443 58.8828 93.3385 59.0339 93.1719 59.2266C93.0052 59.4141 92.8776 59.6302 92.7891 59.875C92.7057 60.1198 92.6641 60.3802 92.6641 60.6562ZM101.523 59.1719V69.25H100.07V57.5469H101.398L101.523 59.1719ZM107.219 61.7031V61.8672C107.219 62.4818 107.146 63.0521 107 63.5781C106.854 64.099 106.641 64.5521 106.359 64.9375C106.083 65.3229 105.742 65.6224 105.336 65.8359C104.93 66.0495 104.464 66.1562 103.938 66.1562C103.401 66.1562 102.927 66.0677 102.516 65.8906C102.104 65.7135 101.755 65.4557 101.469 65.1172C101.182 64.7786 100.953 64.3724 100.781 63.8984C100.615 63.4245 100.5 62.8906 100.438 62.2969V61.4219C100.5 60.7969 100.617 60.237 100.789 59.7422C100.961 59.2474 101.188 58.8255 101.469 58.4766C101.755 58.1224 102.102 57.8542 102.508 57.6719C102.914 57.4844 103.383 57.3906 103.914 57.3906C104.445 57.3906 104.917 57.4948 105.328 57.7031C105.74 57.9062 106.086 58.1979 106.367 58.5781C106.648 58.9583 106.859 59.4141 107 59.9453C107.146 60.4714 107.219 61.0573 107.219 61.7031ZM105.766 61.8672V61.7031C105.766 61.2812 105.721 60.8854 105.633 60.5156C105.544 60.1406 105.406 59.8125 105.219 59.5312C105.036 59.2448 104.802 59.0208 104.516 58.8594C104.229 58.6927 103.888 58.6094 103.492 58.6094C103.128 58.6094 102.81 58.6719 102.539 58.7969C102.273 58.9219 102.047 59.0911 101.859 59.3047C101.672 59.513 101.518 59.7526 101.398 60.0234C101.284 60.2891 101.198 60.5651 101.141 60.8516V62.875C101.245 63.2396 101.391 63.5833 101.578 63.9062C101.766 64.224 102.016 64.4818 102.328 64.6797C102.641 64.8724 103.034 64.9688 103.508 64.9688C103.898 64.9688 104.234 64.888 104.516 64.7266C104.802 64.5599 105.036 64.3333 105.219 64.0469C105.406 63.7604 105.544 63.4323 105.633 63.0625C105.721 62.6875 105.766 62.2891 105.766 61.8672ZM110.633 54V66H109.18V54H110.633ZM117.938 64.5547V60.2031C117.938 59.8698 117.87 59.5807 117.734 59.3359C117.604 59.0859 117.406 58.8932 117.141 58.7578C116.875 58.6224 116.547 58.5547 116.156 58.5547C115.792 58.5547 115.471 58.6172 115.195 58.7422C114.924 58.8672 114.711 59.0312 114.555 59.2344C114.404 59.4375 114.328 59.6562 114.328 59.8906H112.883C112.883 59.5885 112.961 59.2891 113.117 58.9922C113.273 58.6953 113.497 58.4271 113.789 58.1875C114.086 57.9427 114.44 57.75 114.852 57.6094C115.268 57.4635 115.732 57.3906 116.242 57.3906C116.857 57.3906 117.398 57.4948 117.867 57.7031C118.341 57.9115 118.711 58.2266 118.977 58.6484C119.247 59.0651 119.383 59.5885 119.383 60.2188V64.1562C119.383 64.4375 119.406 64.737 119.453 65.0547C119.505 65.3724 119.581 65.6458 119.68 65.875V66H118.172C118.099 65.8333 118.042 65.612 118 65.3359C117.958 65.0547 117.938 64.7943 117.938 64.5547ZM118.188 60.875L118.203 61.8906H116.742C116.331 61.8906 115.964 61.9245 115.641 61.9922C115.318 62.0547 115.047 62.151 114.828 62.2812C114.609 62.4115 114.443 62.5755 114.328 62.7734C114.214 62.9661 114.156 63.1927 114.156 63.4531C114.156 63.7188 114.216 63.9609 114.336 64.1797C114.456 64.3984 114.635 64.5729 114.875 64.7031C115.12 64.8281 115.419 64.8906 115.773 64.8906C116.216 64.8906 116.607 64.7969 116.945 64.6094C117.284 64.4219 117.552 64.1927 117.75 63.9219C117.953 63.651 118.062 63.388 118.078 63.1328L118.695 63.8281C118.659 64.0469 118.56 64.2891 118.398 64.5547C118.237 64.8203 118.021 65.0755 117.75 65.3203C117.484 65.5599 117.167 65.7604 116.797 65.9219C116.432 66.0781 116.021 66.1562 115.562 66.1562C114.99 66.1562 114.487 66.0443 114.055 65.8203C113.628 65.5964 113.294 65.2969 113.055 64.9219C112.82 64.5417 112.703 64.1172 112.703 63.6484C112.703 63.1953 112.792 62.7969 112.969 62.4531C113.146 62.1042 113.401 61.8151 113.734 61.5859C114.068 61.3516 114.469 61.1745 114.938 61.0547C115.406 60.9349 115.93 60.875 116.508 60.875H118.188ZM125.195 57.5469V58.6562H120.625V57.5469H125.195ZM122.172 55.4922H123.617V63.9062C123.617 64.1927 123.661 64.4089 123.75 64.5547C123.839 64.7005 123.953 64.7969 124.094 64.8438C124.234 64.8906 124.385 64.9141 124.547 64.9141C124.667 64.9141 124.792 64.9036 124.922 64.8828C125.057 64.8568 125.159 64.8359 125.227 64.8203L125.234 66C125.12 66.0365 124.969 66.0703 124.781 66.1016C124.599 66.138 124.378 66.1562 124.117 66.1562C123.763 66.1562 123.438 66.0859 123.141 65.9453C122.844 65.8047 122.607 65.5703 122.43 65.2422C122.258 64.9089 122.172 64.4609 122.172 63.8984V55.4922ZM130.398 66.1562C129.81 66.1562 129.276 66.0573 128.797 65.8594C128.323 65.6562 127.914 65.3724 127.57 65.0078C127.232 64.6432 126.971 64.2109 126.789 63.7109C126.607 63.2109 126.516 62.6641 126.516 62.0703V61.7422C126.516 61.0547 126.617 60.4427 126.82 59.9062C127.023 59.3646 127.299 58.9062 127.648 58.5312C127.997 58.1562 128.393 57.8724 128.836 57.6797C129.279 57.487 129.737 57.3906 130.211 57.3906C130.815 57.3906 131.336 57.4948 131.773 57.7031C132.216 57.9115 132.578 58.2031 132.859 58.5781C133.141 58.9479 133.349 59.3854 133.484 59.8906C133.62 60.3906 133.688 60.9375 133.688 61.5312V62.1797H127.375V61H132.242V60.8906C132.221 60.5156 132.143 60.151 132.008 59.7969C131.878 59.4427 131.669 59.151 131.383 58.9219C131.096 58.6927 130.706 58.5781 130.211 58.5781C129.883 58.5781 129.581 58.6484 129.305 58.7891C129.029 58.9245 128.792 59.1276 128.594 59.3984C128.396 59.6693 128.242 60 128.133 60.3906C128.023 60.7812 127.969 61.2318 127.969 61.7422V62.0703C127.969 62.4714 128.023 62.849 128.133 63.2031C128.247 63.5521 128.411 63.8594 128.625 64.125C128.844 64.3906 129.107 64.599 129.414 64.75C129.727 64.901 130.081 64.9766 130.477 64.9766C130.987 64.9766 131.419 64.8724 131.773 64.6641C132.128 64.4557 132.438 64.1771 132.703 63.8281L133.578 64.5234C133.396 64.7995 133.164 65.0625 132.883 65.3125C132.602 65.5625 132.255 65.7656 131.844 65.9219C131.438 66.0781 130.956 66.1562 130.398 66.1562ZM140.297 63.7578C140.297 63.5495 140.25 63.3568 140.156 63.1797C140.068 62.9974 139.883 62.8333 139.602 62.6875C139.326 62.5365 138.909 62.4062 138.352 62.2969C137.883 62.1979 137.458 62.0807 137.078 61.9453C136.703 61.8099 136.383 61.6458 136.117 61.4531C135.857 61.2604 135.656 61.0339 135.516 60.7734C135.375 60.513 135.305 60.2083 135.305 59.8594C135.305 59.526 135.378 59.2109 135.523 58.9141C135.674 58.6172 135.885 58.3542 136.156 58.125C136.432 57.8958 136.763 57.7161 137.148 57.5859C137.534 57.4557 137.964 57.3906 138.438 57.3906C139.115 57.3906 139.693 57.5104 140.172 57.75C140.651 57.9896 141.018 58.3099 141.273 58.7109C141.529 59.1068 141.656 59.5469 141.656 60.0312H140.211C140.211 59.7969 140.141 59.5703 140 59.3516C139.865 59.1276 139.664 58.9427 139.398 58.7969C139.138 58.651 138.818 58.5781 138.438 58.5781C138.036 58.5781 137.711 58.6406 137.461 58.7656C137.216 58.8854 137.036 59.0391 136.922 59.2266C136.812 59.4141 136.758 59.612 136.758 59.8203C136.758 59.9766 136.784 60.1172 136.836 60.2422C136.893 60.362 136.992 60.474 137.133 60.5781C137.273 60.6771 137.471 60.7708 137.727 60.8594C137.982 60.9479 138.307 61.0365 138.703 61.125C139.396 61.2812 139.966 61.4688 140.414 61.6875C140.862 61.9062 141.195 62.1745 141.414 62.4922C141.633 62.8099 141.742 63.1953 141.742 63.6484C141.742 64.0182 141.664 64.3568 141.508 64.6641C141.357 64.9714 141.135 65.237 140.844 65.4609C140.557 65.6797 140.214 65.8516 139.812 65.9766C139.417 66.0964 138.971 66.1562 138.477 66.1562C137.732 66.1562 137.102 66.0234 136.586 65.7578C136.07 65.4922 135.68 65.1484 135.414 64.7266C135.148 64.3047 135.016 63.8594 135.016 63.3906H136.469C136.49 63.7865 136.604 64.1016 136.812 64.3359C137.021 64.5651 137.276 64.7292 137.578 64.8281C137.88 64.9219 138.18 64.9688 138.477 64.9688C138.872 64.9688 139.203 64.9167 139.469 64.8125C139.74 64.7083 139.945 64.5651 140.086 64.3828C140.227 64.2005 140.297 63.9922 140.297 63.7578ZM149.711 59.6875L151.414 58.4766C151.742 58.2526 151.995 58.0286 152.172 57.8047C152.354 57.5755 152.445 57.263 152.445 56.8672C152.445 56.5599 152.326 56.2812 152.086 56.0312C151.846 55.776 151.508 55.6484 151.07 55.6484C150.768 55.6484 150.513 55.7188 150.305 55.8594C150.096 56 149.94 56.1875 149.836 56.4219C149.732 56.651 149.68 56.9036 149.68 57.1797C149.68 57.4141 149.737 57.6562 149.852 57.9062C149.966 58.1562 150.125 58.4167 150.328 58.6875C150.531 58.9583 150.763 59.2448 151.023 59.5469L156.406 66H154.672L150.258 60.7188C149.867 60.2604 149.518 59.8411 149.211 59.4609C148.904 59.0755 148.661 58.7031 148.484 58.3438C148.312 57.9844 148.227 57.612 148.227 57.2266C148.227 56.6328 148.344 56.1328 148.578 55.7266C148.818 55.3151 149.151 55.0026 149.578 54.7891C150.005 54.5755 150.505 54.4688 151.078 54.4688C151.635 54.4688 152.115 54.5807 152.516 54.8047C152.922 55.0234 153.234 55.3151 153.453 55.6797C153.672 56.0391 153.781 56.4349 153.781 56.8672C153.781 57.2318 153.716 57.5599 153.586 57.8516C153.456 58.138 153.273 58.401 153.039 58.6406C152.81 58.8802 152.542 59.1146 152.234 59.3438L149.977 61.0234C149.602 61.2995 149.328 61.5625 149.156 61.8125C148.984 62.0625 148.872 62.2839 148.82 62.4766C148.773 62.6693 148.75 62.8229 148.75 62.9375C148.75 63.3073 148.831 63.6458 148.992 63.9531C149.154 64.2604 149.398 64.5078 149.727 64.6953C150.06 64.8776 150.477 64.9688 150.977 64.9688C151.414 64.9688 151.839 64.8698 152.25 64.6719C152.667 64.4688 153.039 64.1823 153.367 63.8125C153.695 63.4375 153.956 62.9922 154.148 62.4766C154.346 61.9557 154.445 61.3802 154.445 60.75H155.742C155.742 61.2656 155.693 61.7526 155.594 62.2109C155.495 62.6693 155.341 63.0964 155.133 63.4922C154.93 63.8828 154.669 64.2396 154.352 64.5625C154.305 64.6094 154.268 64.6641 154.242 64.7266C154.216 64.7891 154.18 64.8438 154.133 64.8906C153.742 65.3125 153.26 65.6302 152.688 65.8438C152.12 66.0521 151.549 66.1562 150.977 66.1562C150.221 66.1562 149.568 66.0182 149.016 65.7422C148.469 65.4661 148.047 65.0859 147.75 64.6016C147.453 64.1172 147.305 63.5625 147.305 62.9375C147.305 62.4583 147.406 62.0365 147.609 61.6719C147.818 61.3073 148.102 60.9661 148.461 60.6484C148.826 60.3307 149.242 60.0104 149.711 59.6875ZM166.453 63.7578C166.453 63.5495 166.406 63.3568 166.312 63.1797C166.224 62.9974 166.039 62.8333 165.758 62.6875C165.482 62.5365 165.065 62.4062 164.508 62.2969C164.039 62.1979 163.615 62.0807 163.234 61.9453C162.859 61.8099 162.539 61.6458 162.273 61.4531C162.013 61.2604 161.812 61.0339 161.672 60.7734C161.531 60.513 161.461 60.2083 161.461 59.8594C161.461 59.526 161.534 59.2109 161.68 58.9141C161.831 58.6172 162.042 58.3542 162.312 58.125C162.589 57.8958 162.919 57.7161 163.305 57.5859C163.69 57.4557 164.12 57.3906 164.594 57.3906C165.271 57.3906 165.849 57.5104 166.328 57.75C166.807 57.9896 167.174 58.3099 167.43 58.7109C167.685 59.1068 167.812 59.5469 167.812 60.0312H166.367C166.367 59.7969 166.297 59.5703 166.156 59.3516C166.021 59.1276 165.82 58.9427 165.555 58.7969C165.294 58.651 164.974 58.5781 164.594 58.5781C164.193 58.5781 163.867 58.6406 163.617 58.7656C163.372 58.8854 163.193 59.0391 163.078 59.2266C162.969 59.4141 162.914 59.612 162.914 59.8203C162.914 59.9766 162.94 60.1172 162.992 60.2422C163.049 60.362 163.148 60.474 163.289 60.5781C163.43 60.6771 163.628 60.7708 163.883 60.8594C164.138 60.9479 164.464 61.0365 164.859 61.125C165.552 61.2812 166.122 61.4688 166.57 61.6875C167.018 61.9062 167.352 62.1745 167.57 62.4922C167.789 62.8099 167.898 63.1953 167.898 63.6484C167.898 64.0182 167.82 64.3568 167.664 64.6641C167.513 64.9714 167.292 65.237 167 65.4609C166.714 65.6797 166.37 65.8516 165.969 65.9766C165.573 66.0964 165.128 66.1562 164.633 66.1562C163.888 66.1562 163.258 66.0234 162.742 65.7578C162.227 65.4922 161.836 65.1484 161.57 64.7266C161.305 64.3047 161.172 63.8594 161.172 63.3906H162.625C162.646 63.7865 162.76 64.1016 162.969 64.3359C163.177 64.5651 163.432 64.7292 163.734 64.8281C164.036 64.9219 164.336 64.9688 164.633 64.9688C165.029 64.9688 165.359 64.9167 165.625 64.8125C165.896 64.7083 166.102 64.5651 166.242 64.3828C166.383 64.2005 166.453 63.9922 166.453 63.7578ZM174.969 64.0469V57.5469H176.422V66H175.039L174.969 64.0469ZM175.242 62.2656L175.844 62.25C175.844 62.8125 175.784 63.3333 175.664 63.8125C175.549 64.2865 175.362 64.6979 175.102 65.0469C174.841 65.3958 174.5 65.6693 174.078 65.8672C173.656 66.0599 173.143 66.1562 172.539 66.1562C172.128 66.1562 171.75 66.0964 171.406 65.9766C171.068 65.8568 170.776 65.6719 170.531 65.4219C170.286 65.1719 170.096 64.8464 169.961 64.4453C169.831 64.0443 169.766 63.5625 169.766 63V57.5469H171.211V63.0156C171.211 63.3958 171.253 63.7109 171.336 63.9609C171.424 64.2057 171.542 64.401 171.688 64.5469C171.839 64.6875 172.005 64.7865 172.188 64.8438C172.375 64.901 172.568 64.9297 172.766 64.9297C173.38 64.9297 173.867 64.8125 174.227 64.5781C174.586 64.3385 174.844 64.0182 175 63.6172C175.161 63.2109 175.242 62.7604 175.242 62.2656ZM180.07 59.1719V69.25H178.617V57.5469H179.945L180.07 59.1719ZM185.766 61.7031V61.8672C185.766 62.4818 185.693 63.0521 185.547 63.5781C185.401 64.099 185.188 64.5521 184.906 64.9375C184.63 65.3229 184.289 65.6224 183.883 65.8359C183.477 66.0495 183.01 66.1562 182.484 66.1562C181.948 66.1562 181.474 66.0677 181.062 65.8906C180.651 65.7135 180.302 65.4557 180.016 65.1172C179.729 64.7786 179.5 64.3724 179.328 63.8984C179.161 63.4245 179.047 62.8906 178.984 62.2969V61.4219C179.047 60.7969 179.164 60.237 179.336 59.7422C179.508 59.2474 179.734 58.8255 180.016 58.4766C180.302 58.1224 180.648 57.8542 181.055 57.6719C181.461 57.4844 181.93 57.3906 182.461 57.3906C182.992 57.3906 183.464 57.4948 183.875 57.7031C184.286 57.9062 184.633 58.1979 184.914 58.5781C185.195 58.9583 185.406 59.4141 185.547 59.9453C185.693 60.4714 185.766 61.0573 185.766 61.7031ZM184.312 61.8672V61.7031C184.312 61.2812 184.268 60.8854 184.18 60.5156C184.091 60.1406 183.953 59.8125 183.766 59.5312C183.583 59.2448 183.349 59.0208 183.062 58.8594C182.776 58.6927 182.435 58.6094 182.039 58.6094C181.674 58.6094 181.357 58.6719 181.086 58.7969C180.82 58.9219 180.594 59.0911 180.406 59.3047C180.219 59.513 180.065 59.7526 179.945 60.0234C179.831 60.2891 179.745 60.5651 179.688 60.8516V62.875C179.792 63.2396 179.938 63.5833 180.125 63.9062C180.312 64.224 180.562 64.4818 180.875 64.6797C181.188 64.8724 181.581 64.9688 182.055 64.9688C182.445 64.9688 182.781 64.888 183.062 64.7266C183.349 64.5599 183.583 64.3333 183.766 64.0469C183.953 63.7604 184.091 63.4323 184.18 63.0625C184.268 62.6875 184.312 62.2891 184.312 61.8672ZM189.055 59.1719V69.25H187.602V57.5469H188.93L189.055 59.1719ZM194.75 61.7031V61.8672C194.75 62.4818 194.677 63.0521 194.531 63.5781C194.385 64.099 194.172 64.5521 193.891 64.9375C193.615 65.3229 193.273 65.6224 192.867 65.8359C192.461 66.0495 191.995 66.1562 191.469 66.1562C190.932 66.1562 190.458 66.0677 190.047 65.8906C189.635 65.7135 189.286 65.4557 189 65.1172C188.714 64.7786 188.484 64.3724 188.312 63.8984C188.146 63.4245 188.031 62.8906 187.969 62.2969V61.4219C188.031 60.7969 188.148 60.237 188.32 59.7422C188.492 59.2474 188.719 58.8255 189 58.4766C189.286 58.1224 189.633 57.8542 190.039 57.6719C190.445 57.4844 190.914 57.3906 191.445 57.3906C191.977 57.3906 192.448 57.4948 192.859 57.7031C193.271 57.9062 193.617 58.1979 193.898 58.5781C194.18 58.9583 194.391 59.4141 194.531 59.9453C194.677 60.4714 194.75 61.0573 194.75 61.7031ZM193.297 61.8672V61.7031C193.297 61.2812 193.253 60.8854 193.164 60.5156C193.076 60.1406 192.938 59.8125 192.75 59.5312C192.568 59.2448 192.333 59.0208 192.047 58.8594C191.76 58.6927 191.419 58.6094 191.023 58.6094C190.659 58.6094 190.341 58.6719 190.07 58.7969C189.805 58.9219 189.578 59.0911 189.391 59.3047C189.203 59.513 189.049 59.7526 188.93 60.0234C188.815 60.2891 188.729 60.5651 188.672 60.8516V62.875C188.776 63.2396 188.922 63.5833 189.109 63.9062C189.297 64.224 189.547 64.4818 189.859 64.6797C190.172 64.8724 190.565 64.9688 191.039 64.9688C191.43 64.9688 191.766 64.888 192.047 64.7266C192.333 64.5599 192.568 64.3333 192.75 64.0469C192.938 63.7604 193.076 63.4323 193.164 63.0625C193.253 62.6875 193.297 62.2891 193.297 61.8672ZM196.211 61.8672V61.6875C196.211 61.0781 196.299 60.513 196.477 59.9922C196.654 59.4661 196.909 59.0104 197.242 58.625C197.576 58.2344 197.979 57.9323 198.453 57.7188C198.927 57.5 199.458 57.3906 200.047 57.3906C200.641 57.3906 201.174 57.5 201.648 57.7188C202.128 57.9323 202.534 58.2344 202.867 58.625C203.206 59.0104 203.464 59.4661 203.641 59.9922C203.818 60.513 203.906 61.0781 203.906 61.6875V61.8672C203.906 62.4766 203.818 63.0417 203.641 63.5625C203.464 64.0833 203.206 64.5391 202.867 64.9297C202.534 65.3151 202.13 65.6172 201.656 65.8359C201.188 66.0495 200.656 66.1562 200.062 66.1562C199.469 66.1562 198.935 66.0495 198.461 65.8359C197.987 65.6172 197.581 65.3151 197.242 64.9297C196.909 64.5391 196.654 64.0833 196.477 63.5625C196.299 63.0417 196.211 62.4766 196.211 61.8672ZM197.656 61.6875V61.8672C197.656 62.2891 197.706 62.6875 197.805 63.0625C197.904 63.4323 198.052 63.7604 198.25 64.0469C198.453 64.3333 198.706 64.5599 199.008 64.7266C199.31 64.888 199.661 64.9688 200.062 64.9688C200.458 64.9688 200.805 64.888 201.102 64.7266C201.404 64.5599 201.654 64.3333 201.852 64.0469C202.049 63.7604 202.198 63.4323 202.297 63.0625C202.401 62.6875 202.453 62.2891 202.453 61.8672V61.6875C202.453 61.2708 202.401 60.8776 202.297 60.5078C202.198 60.1328 202.047 59.8021 201.844 59.5156C201.646 59.224 201.396 58.9948 201.094 58.8281C200.797 58.6615 200.448 58.5781 200.047 58.5781C199.651 58.5781 199.302 58.6615 199 58.8281C198.703 58.9948 198.453 59.224 198.25 59.5156C198.052 59.8021 197.904 60.1328 197.805 60.5078C197.706 60.8776 197.656 61.2708 197.656 61.6875ZM207.164 58.875V66H205.719V57.5469H207.125L207.164 58.875ZM209.805 57.5L209.797 58.8438C209.677 58.8177 209.562 58.8021 209.453 58.7969C209.349 58.7865 209.229 58.7812 209.094 58.7812C208.76 58.7812 208.466 58.8333 208.211 58.9375C207.956 59.0417 207.74 59.1875 207.562 59.375C207.385 59.5625 207.245 59.7865 207.141 60.0469C207.042 60.3021 206.977 60.5833 206.945 60.8906L206.539 61.125C206.539 60.6146 206.589 60.1354 206.688 59.6875C206.792 59.2396 206.951 58.8438 207.164 58.5C207.378 58.151 207.648 57.8802 207.977 57.6875C208.31 57.4896 208.706 57.3906 209.164 57.3906C209.268 57.3906 209.388 57.4036 209.523 57.4297C209.659 57.4505 209.753 57.474 209.805 57.5ZM215.07 57.5469V58.6562H210.5V57.5469H215.07ZM212.047 55.4922H213.492V63.9062C213.492 64.1927 213.536 64.4089 213.625 64.5547C213.714 64.7005 213.828 64.7969 213.969 64.8438C214.109 64.8906 214.26 64.9141 214.422 64.9141C214.542 64.9141 214.667 64.9036 214.797 64.8828C214.932 64.8568 215.034 64.8359 215.102 64.8203L215.109 66C214.995 66.0365 214.844 66.0703 214.656 66.1016C214.474 66.138 214.253 66.1562 213.992 66.1562C213.638 66.1562 213.312 66.0859 213.016 65.9453C212.719 65.8047 212.482 65.5703 212.305 65.2422C212.133 64.9089 212.047 64.4609 212.047 63.8984V55.4922ZM220.352 61.8672V61.6875C220.352 61.0781 220.44 60.513 220.617 59.9922C220.794 59.4661 221.049 59.0104 221.383 58.625C221.716 58.2344 222.12 57.9323 222.594 57.7188C223.068 57.5 223.599 57.3906 224.188 57.3906C224.781 57.3906 225.315 57.5 225.789 57.7188C226.268 57.9323 226.674 58.2344 227.008 58.625C227.346 59.0104 227.604 59.4661 227.781 59.9922C227.958 60.513 228.047 61.0781 228.047 61.6875V61.8672C228.047 62.4766 227.958 63.0417 227.781 63.5625C227.604 64.0833 227.346 64.5391 227.008 64.9297C226.674 65.3151 226.271 65.6172 225.797 65.8359C225.328 66.0495 224.797 66.1562 224.203 66.1562C223.609 66.1562 223.076 66.0495 222.602 65.8359C222.128 65.6172 221.721 65.3151 221.383 64.9297C221.049 64.5391 220.794 64.0833 220.617 63.5625C220.44 63.0417 220.352 62.4766 220.352 61.8672ZM221.797 61.6875V61.8672C221.797 62.2891 221.846 62.6875 221.945 63.0625C222.044 63.4323 222.193 63.7604 222.391 64.0469C222.594 64.3333 222.846 64.5599 223.148 64.7266C223.451 64.888 223.802 64.9688 224.203 64.9688C224.599 64.9688 224.945 64.888 225.242 64.7266C225.544 64.5599 225.794 64.3333 225.992 64.0469C226.19 63.7604 226.339 63.4323 226.438 63.0625C226.542 62.6875 226.594 62.2891 226.594 61.8672V61.6875C226.594 61.2708 226.542 60.8776 226.438 60.5078C226.339 60.1328 226.188 59.8021 225.984 59.5156C225.786 59.224 225.536 58.9948 225.234 58.8281C224.938 58.6615 224.589 58.5781 224.188 58.5781C223.792 58.5781 223.443 58.6615 223.141 58.8281C222.844 58.9948 222.594 59.224 222.391 59.5156C222.193 59.8021 222.044 60.1328 221.945 60.5078C221.846 60.8776 221.797 61.2708 221.797 61.6875ZM235.031 64.0469V57.5469H236.484V66H235.102L235.031 64.0469ZM235.305 62.2656L235.906 62.25C235.906 62.8125 235.846 63.3333 235.727 63.8125C235.612 64.2865 235.424 64.6979 235.164 65.0469C234.904 65.3958 234.562 65.6693 234.141 65.8672C233.719 66.0599 233.206 66.1562 232.602 66.1562C232.19 66.1562 231.812 66.0964 231.469 65.9766C231.13 65.8568 230.839 65.6719 230.594 65.4219C230.349 65.1719 230.159 64.8464 230.023 64.4453C229.893 64.0443 229.828 63.5625 229.828 63V57.5469H231.273V63.0156C231.273 63.3958 231.315 63.7109 231.398 63.9609C231.487 64.2057 231.604 64.401 231.75 64.5469C231.901 64.6875 232.068 64.7865 232.25 64.8438C232.438 64.901 232.63 64.9297 232.828 64.9297C233.443 64.9297 233.93 64.8125 234.289 64.5781C234.648 64.3385 234.906 64.0182 235.062 63.6172C235.224 63.2109 235.305 62.7604 235.305 62.2656ZM242.227 57.5469V58.6562H237.656V57.5469H242.227ZM239.203 55.4922H240.648V63.9062C240.648 64.1927 240.693 64.4089 240.781 64.5547C240.87 64.7005 240.984 64.7969 241.125 64.8438C241.266 64.8906 241.417 64.9141 241.578 64.9141C241.698 64.9141 241.823 64.9036 241.953 64.8828C242.089 64.8568 242.19 64.8359 242.258 64.8203L242.266 66C242.151 66.0365 242 66.0703 241.812 66.1016C241.63 66.138 241.409 66.1562 241.148 66.1562C240.794 66.1562 240.469 66.0859 240.172 65.9453C239.875 65.8047 239.638 65.5703 239.461 65.2422C239.289 64.9089 239.203 64.4609 239.203 63.8984V55.4922ZM118.375 78.5469V79.6562H113.805V78.5469H118.375ZM115.352 76.4922H116.797V84.9062C116.797 85.1927 116.841 85.4089 116.93 85.5547C117.018 85.7005 117.133 85.7969 117.273 85.8438C117.414 85.8906 117.565 85.9141 117.727 85.9141C117.846 85.9141 117.971 85.9036 118.102 85.8828C118.237 85.8568 118.339 85.8359 118.406 85.8203L118.414 87C118.299 87.0365 118.148 87.0703 117.961 87.1016C117.779 87.138 117.557 87.1562 117.297 87.1562C116.943 87.1562 116.617 87.0859 116.32 86.9453C116.023 86.8047 115.786 86.5703 115.609 86.2422C115.438 85.9089 115.352 85.4609 115.352 84.8984V76.4922ZM121.516 75V87H120.07V75H121.516ZM121.172 82.4531L120.57 82.4297C120.576 81.8516 120.661 81.3177 120.828 80.8281C120.995 80.3333 121.229 79.9036 121.531 79.5391C121.833 79.1745 122.193 78.8932 122.609 78.6953C123.031 78.4922 123.497 78.3906 124.008 78.3906C124.424 78.3906 124.799 78.4479 125.133 78.5625C125.466 78.6719 125.75 78.849 125.984 79.0938C126.224 79.3385 126.406 79.6562 126.531 80.0469C126.656 80.4323 126.719 80.9036 126.719 81.4609V87H125.266V81.4453C125.266 81.0026 125.201 80.6484 125.07 80.3828C124.94 80.112 124.75 79.9167 124.5 79.7969C124.25 79.6719 123.943 79.6094 123.578 79.6094C123.219 79.6094 122.891 79.6849 122.594 79.8359C122.302 79.987 122.049 80.1953 121.836 80.4609C121.628 80.7266 121.464 81.0312 121.344 81.375C121.229 81.7135 121.172 82.0729 121.172 82.4531ZM132.391 87.1562C131.802 87.1562 131.268 87.0573 130.789 86.8594C130.315 86.6562 129.906 86.3724 129.562 86.0078C129.224 85.6432 128.964 85.2109 128.781 84.7109C128.599 84.2109 128.508 83.6641 128.508 83.0703V82.7422C128.508 82.0547 128.609 81.4427 128.812 80.9062C129.016 80.3646 129.292 79.9062 129.641 79.5312C129.99 79.1562 130.385 78.8724 130.828 78.6797C131.271 78.487 131.729 78.3906 132.203 78.3906C132.807 78.3906 133.328 78.4948 133.766 78.7031C134.208 78.9115 134.57 79.2031 134.852 79.5781C135.133 79.9479 135.341 80.3854 135.477 80.8906C135.612 81.3906 135.68 81.9375 135.68 82.5312V83.1797H129.367V82H134.234V81.8906C134.214 81.5156 134.135 81.151 134 80.7969C133.87 80.4427 133.661 80.151 133.375 79.9219C133.089 79.6927 132.698 79.5781 132.203 79.5781C131.875 79.5781 131.573 79.6484 131.297 79.7891C131.021 79.9245 130.784 80.1276 130.586 80.3984C130.388 80.6693 130.234 81 130.125 81.3906C130.016 81.7812 129.961 82.2318 129.961 82.7422V83.0703C129.961 83.4714 130.016 83.849 130.125 84.2031C130.24 84.5521 130.404 84.8594 130.617 85.125C130.836 85.3906 131.099 85.599 131.406 85.75C131.719 85.901 132.073 85.9766 132.469 85.9766C132.979 85.9766 133.411 85.8724 133.766 85.6641C134.12 85.4557 134.43 85.1771 134.695 84.8281L135.57 85.5234C135.388 85.7995 135.156 86.0625 134.875 86.3125C134.594 86.5625 134.247 86.7656 133.836 86.9219C133.43 87.0781 132.948 87.1562 132.391 87.1562ZM138.812 79.875V87H137.367V78.5469H138.773L138.812 79.875ZM141.453 78.5L141.445 79.8438C141.326 79.8177 141.211 79.8021 141.102 79.7969C140.997 79.7865 140.878 79.7812 140.742 79.7812C140.409 79.7812 140.115 79.8333 139.859 79.9375C139.604 80.0417 139.388 80.1875 139.211 80.375C139.034 80.5625 138.893 80.7865 138.789 81.0469C138.69 81.3021 138.625 81.5833 138.594 81.8906L138.188 82.125C138.188 81.6146 138.237 81.1354 138.336 80.6875C138.44 80.2396 138.599 79.8438 138.812 79.5C139.026 79.151 139.297 78.8802 139.625 78.6875C139.958 78.4896 140.354 78.3906 140.812 78.3906C140.917 78.3906 141.036 78.4036 141.172 78.4297C141.307 78.4505 141.401 78.474 141.453 78.5ZM146.141 87.1562C145.552 87.1562 145.018 87.0573 144.539 86.8594C144.065 86.6562 143.656 86.3724 143.312 86.0078C142.974 85.6432 142.714 85.2109 142.531 84.7109C142.349 84.2109 142.258 83.6641 142.258 83.0703V82.7422C142.258 82.0547 142.359 81.4427 142.562 80.9062C142.766 80.3646 143.042 79.9062 143.391 79.5312C143.74 79.1562 144.135 78.8724 144.578 78.6797C145.021 78.487 145.479 78.3906 145.953 78.3906C146.557 78.3906 147.078 78.4948 147.516 78.7031C147.958 78.9115 148.32 79.2031 148.602 79.5781C148.883 79.9479 149.091 80.3854 149.227 80.8906C149.362 81.3906 149.43 81.9375 149.43 82.5312V83.1797H143.117V82H147.984V81.8906C147.964 81.5156 147.885 81.151 147.75 80.7969C147.62 80.4427 147.411 80.151 147.125 79.9219C146.839 79.6927 146.448 79.5781 145.953 79.5781C145.625 79.5781 145.323 79.6484 145.047 79.7891C144.771 79.9245 144.534 80.1276 144.336 80.3984C144.138 80.6693 143.984 81 143.875 81.3906C143.766 81.7812 143.711 82.2318 143.711 82.7422V83.0703C143.711 83.4714 143.766 83.849 143.875 84.2031C143.99 84.5521 144.154 84.8594 144.367 85.125C144.586 85.3906 144.849 85.599 145.156 85.75C145.469 85.901 145.823 85.9766 146.219 85.9766C146.729 85.9766 147.161 85.8724 147.516 85.6641C147.87 85.4557 148.18 85.1771 148.445 84.8281L149.32 85.5234C149.138 85.7995 148.906 86.0625 148.625 86.3125C148.344 86.5625 147.997 86.7656 147.586 86.9219C147.18 87.0781 146.698 87.1562 146.141 87.1562ZM152.836 75.625L152.734 83.7891H151.43L151.32 75.625H152.836ZM151.273 86.2734C151.273 86.0391 151.344 85.8411 151.484 85.6797C151.63 85.5182 151.844 85.4375 152.125 85.4375C152.401 85.4375 152.612 85.5182 152.758 85.6797C152.909 85.8411 152.984 86.0391 152.984 86.2734C152.984 86.4974 152.909 86.6901 152.758 86.8516C152.612 87.013 152.401 87.0938 152.125 87.0938C151.844 87.0938 151.63 87.013 151.484 86.8516C151.344 86.6901 151.273 86.4974 151.273 86.2734ZM156.312 75V76.0625L156.078 78.8516H155.211V76.1328V75H156.312ZM158.422 75V76.0625L158.188 78.8516H157.32V76.0781V75H158.422Z" fill="#3F3B3D"/>
<defs>
<clipPath id="clip0_1_172">
<rect width="89" height="32" fill="white" transform="translate(92)"/>
</clipPath>
</defs>
</svg>
