<svg width="272" height="120" viewBox="0 0 272 120" fill="none" xmlns="http://www.w3.org/2000/svg">
<g clip-path="url(#clip0_1_132)">
<path d="M94.3475 28.0274H83.6459C83.3311 28.0274 83.1213 27.9385 82.9115 27.6719L75.1475 16.2052C75.0426 16.0274 75.0426 15.7608 75.1475 15.4941L82.9115 4.02743C83.1213 3.67188 83.6459 3.58299 84.0656 3.76076C84.4852 3.93854 84.5902 4.38299 84.3803 4.73854L76.8262 15.8497L84.1705 26.6052H94.4525C94.8721 26.6052 95.2918 26.9608 95.2918 27.3163C95.2918 27.6719 94.8721 28.0274 94.3475 28.0274Z" fill="#3F3B3D"/>
<path d="M86.2689 24.4719C86.059 24.4719 85.7443 24.383 85.5344 24.1163L80.1836 16.2052C80.0787 16.0274 80.0787 15.7608 80.1836 15.4941L88.0525 4.02743C88.1574 3.84965 88.4721 3.67188 88.7869 3.67188H104.42C104.839 3.67188 105.259 4.02743 105.259 4.38299C105.259 4.73854 104.839 5.0941 104.42 5.0941H89.2066L81.8623 15.8497L87.0033 23.4052C87.2131 23.7608 87.1082 24.1163 86.6885 24.383C86.5836 24.4719 86.4787 24.4719 86.2689 24.4719Z" fill="#3F3B3D"/>
<path d="M114.702 20.383C114.492 20.383 114.177 20.2941 113.967 20.0275L106.518 8.91636H91.8295L86.6885 16.4719C86.4787 16.8275 85.9541 16.9164 85.5344 16.7386C85.1147 16.5608 85.0098 16.1164 85.2197 15.7608L90.5705 7.8497C90.6754 7.67192 90.9902 7.49414 91.3049 7.49414H106.938C107.252 7.49414 107.462 7.58303 107.672 7.8497L115.436 19.3164C115.646 19.6719 115.541 20.0275 115.121 20.2941C115.016 20.2941 114.911 20.383 114.702 20.383Z" fill="#3F3B3D"/>
<path d="M104.42 35.672C104.315 35.672 104.21 35.5831 104 35.5831C103.58 35.4053 103.475 34.9608 103.685 34.6053L111.239 23.4942L103.895 12.7386H93.718C93.2984 12.7386 92.8787 12.3831 92.8787 12.0275C92.8787 11.672 93.2984 11.3164 93.718 11.3164H104.42C104.734 11.3164 104.944 11.4053 105.154 11.672L112.918 23.1386C113.023 23.3164 113.023 23.5831 112.918 23.8497L105.154 35.3164C105.049 35.4942 104.734 35.672 104.42 35.672Z" fill="#3F3B3D"/>
<path d="M99.2787 35.583H83.6459C83.2262 35.583 82.8066 35.2274 82.8066 34.8718C82.8066 34.5163 83.2262 34.1607 83.6459 34.1607H98.859L106.203 23.4052L101.062 15.8496C100.852 15.4941 100.957 15.1385 101.377 14.8718C101.797 14.6941 102.216 14.783 102.531 15.1385L107.882 23.0496C107.987 23.2274 107.987 23.4941 107.882 23.7607L100.013 35.2274C99.9082 35.4941 99.5935 35.583 99.2787 35.583Z" fill="#3F3B3D"/>
<path d="M96.8656 31.7609H81.1279C80.8131 31.7609 80.6033 31.6721 80.3934 31.4054L72.6295 20.0276C72.4197 19.672 72.5246 19.2276 72.8393 19.0498C73.259 18.872 73.6787 18.9609 73.9934 19.3165L81.5475 30.4276H96.2361L101.377 22.8721C101.587 22.5165 102.111 22.4276 102.531 22.6054C102.951 22.7832 103.056 23.2276 102.846 23.5832L97.4951 31.4054C97.2852 31.6721 97.0754 31.7609 96.8656 31.7609Z" fill="#3F3B3D"/>
<path d="M143.029 17.2719H141.036C140.511 15.9386 139.672 14.8719 138.413 14.0719C137.154 13.183 135.685 12.7386 133.902 12.7386C131.593 12.7386 129.705 13.4497 128.236 14.783C126.767 16.1163 126.033 17.8941 126.033 20.1163C126.033 22.3386 126.767 24.0274 128.236 25.4497C129.705 26.8719 131.489 27.4941 133.902 27.4941C135.58 27.4941 137.154 27.0497 138.413 26.1608C139.567 25.2719 140.511 24.2052 141.036 22.9608H142.715H145.338C144.708 25.0941 143.344 26.8719 141.456 28.2941C139.567 29.7163 137.049 30.4274 134.007 30.4274C130.229 30.4274 127.292 29.4497 125.089 27.4052C122.78 25.4497 121.626 22.9608 121.626 20.0274C121.626 17.0941 122.78 14.6941 125.089 12.6497C127.292 10.6941 130.334 9.62744 134.007 9.62744C137.049 9.62744 139.567 10.3386 141.456 11.7608C143.449 13.183 144.708 14.9608 145.338 17.0941H143.029V17.2719Z" fill="#3F3B3D"/>
<path d="M152.892 7.84961V10.2496V13.4496V14.6052V17.4496V20.4718V25.8941V30.1607H148.695V25.8941V20.2941V17.2718V14.3385V9.89405V7.84961H152.892Z" fill="#3F3B3D"/>
<path d="M159.397 15.8497C161.18 14.2497 163.593 13.4497 166.531 13.4497C169.469 13.4497 171.777 14.2497 173.666 15.8497C175.554 17.4497 176.393 19.4942 176.393 21.8942V22.3386C176.393 22.5164 176.289 22.6942 176.289 22.783H174.61H173.875H171.987H161.075C161.285 24.0275 161.81 25.0053 162.649 25.8053C163.698 26.783 165.167 27.3164 166.951 27.3164C168 27.3164 168.944 27.1386 169.574 26.6941C170.308 26.3386 170.938 25.8053 171.357 25.183H171.882H172.092H173.666H176.079C175.344 26.6942 174.19 27.9386 172.616 28.8275C171.043 29.7164 169.049 30.1608 166.846 30.1608C163.698 30.1608 161.285 29.3608 159.502 27.7608C157.613 26.1608 156.774 24.1164 156.774 21.7164C156.774 19.4053 157.718 17.4497 159.397 15.8497ZM172.092 20.5608C171.882 19.4942 171.462 18.6053 170.728 17.8942C169.784 16.9164 168.42 16.383 166.636 16.383C164.852 16.383 163.489 16.8275 162.544 17.8942C161.81 18.6053 161.39 19.4942 161.18 20.5608H172.092Z" fill="#3F3B3D"/>
<path d="M181.744 15.8497C183.633 14.2497 186.046 13.4497 189.193 13.4497C192.341 13.4497 194.859 14.2497 196.643 15.8497C198.531 17.4497 199.37 19.4942 199.37 21.8942C199.37 24.2942 198.531 26.4275 196.643 27.9386C194.859 29.5386 192.341 30.3386 189.193 30.3386H189.089C185.941 30.3386 183.423 29.5386 181.639 27.9386C179.751 26.3386 178.911 24.2942 178.911 21.8942C179.016 19.4053 179.961 17.4497 181.744 15.8497ZM193.495 17.8942C192.446 16.9164 190.977 16.2942 189.193 16.2942C187.41 16.2942 186.046 16.8275 184.892 17.8942C183.843 18.8719 183.213 20.2942 183.213 21.8942C183.213 23.4942 183.738 24.8275 184.892 25.8942C185.941 26.8719 187.41 27.4053 189.193 27.4053C190.977 27.4053 192.446 26.9608 193.495 25.8942C194.544 24.9164 195.174 23.4942 195.174 21.8942C195.174 20.2942 194.544 18.9608 193.495 17.8942Z" fill="#3F3B3D"/>
</g>
<path d="M24.7188 57.2891V56.3438C24.7188 56.026 24.7708 55.6953 24.875 55.3516C24.9844 55.0026 25.1406 54.6693 25.3438 54.3516C25.5469 54.0286 25.7917 53.75 26.0781 53.5156L26.8984 54.0859C26.6589 54.4297 26.474 54.7839 26.3438 55.1484C26.2135 55.5078 26.1484 55.8984 26.1484 56.3203V57.2891H24.7188ZM27.1797 57.2891V56.3438C27.1797 56.026 27.2318 55.6953 27.3359 55.3516C27.4453 55.0026 27.6016 54.6693 27.8047 54.3516C28.0078 54.0286 28.2526 53.75 28.5391 53.5156L29.3594 54.0859C29.1198 54.4297 28.9349 54.7839 28.8047 55.1484C28.6745 55.5078 28.6094 55.8984 28.6094 56.3203V57.2891H27.1797ZM39.2812 60.0078V64.1719C39.1406 64.3802 38.9167 64.6146 38.6094 64.875C38.3021 65.1302 37.8776 65.3542 37.3359 65.5469C36.7995 65.7344 36.1068 65.8281 35.2578 65.8281C34.5651 65.8281 33.9271 65.7083 33.3438 65.4688C32.7656 65.224 32.263 64.8698 31.8359 64.4062C31.4141 63.9375 31.0859 63.3698 30.8516 62.7031C30.6224 62.0312 30.5078 61.2708 30.5078 60.4219V59.5391C30.5078 58.6901 30.6068 57.9323 30.8047 57.2656C31.0078 56.599 31.3047 56.0339 31.6953 55.5703C32.0859 55.1016 32.5651 54.7474 33.1328 54.5078C33.7005 54.263 34.3516 54.1406 35.0859 54.1406C35.9557 54.1406 36.6823 54.2917 37.2656 54.5938C37.8542 54.8906 38.3125 55.3021 38.6406 55.8281C38.974 56.3542 39.1875 56.9531 39.2812 57.625H37.7734C37.7057 57.2135 37.5703 56.8385 37.3672 56.5C37.1693 56.1615 36.8854 55.8906 36.5156 55.6875C36.1458 55.4792 35.6693 55.375 35.0859 55.375C34.5599 55.375 34.1042 55.4714 33.7188 55.6641C33.3333 55.8568 33.0156 56.1328 32.7656 56.4922C32.5156 56.8516 32.3281 57.2865 32.2031 57.7969C32.0833 58.3073 32.0234 58.8828 32.0234 59.5234V60.4219C32.0234 61.0781 32.099 61.6641 32.25 62.1797C32.4062 62.6953 32.6276 63.1354 32.9141 63.5C33.2005 63.8594 33.5417 64.1328 33.9375 64.3203C34.3385 64.5078 34.7812 64.6016 35.2656 64.6016C35.8021 64.6016 36.237 64.5573 36.5703 64.4688C36.9036 64.375 37.1641 64.2656 37.3516 64.1406C37.5391 64.0104 37.6823 63.888 37.7812 63.7734V61.2266H35.1484V60.0078H39.2812ZM43.0078 58.5469V65.6719H41.5625V57.2188H42.9688L43.0078 58.5469ZM45.6484 57.1719L45.6406 58.5156C45.5208 58.4896 45.4062 58.474 45.2969 58.4688C45.1927 58.4583 45.0729 58.4531 44.9375 58.4531C44.6042 58.4531 44.3099 58.5052 44.0547 58.6094C43.7995 58.7135 43.5833 58.8594 43.4062 59.0469C43.2292 59.2344 43.0885 59.4583 42.9844 59.7188C42.8854 59.974 42.8203 60.2552 42.7891 60.5625L42.3828 60.7969C42.3828 60.2865 42.4323 59.8073 42.5312 59.3594C42.6354 58.9115 42.7943 58.5156 43.0078 58.1719C43.2214 57.8229 43.4922 57.5521 43.8203 57.3594C44.1536 57.1615 44.5495 57.0625 45.0078 57.0625C45.112 57.0625 45.2318 57.0755 45.3672 57.1016C45.5026 57.1224 45.5964 57.1458 45.6484 57.1719ZM50.3359 65.8281C49.7474 65.8281 49.2135 65.7292 48.7344 65.5312C48.2604 65.3281 47.8516 65.0443 47.5078 64.6797C47.1693 64.3151 46.9089 63.8828 46.7266 63.3828C46.5443 62.8828 46.4531 62.3359 46.4531 61.7422V61.4141C46.4531 60.7266 46.5547 60.1146 46.7578 59.5781C46.9609 59.0365 47.237 58.5781 47.5859 58.2031C47.9349 57.8281 48.3307 57.5443 48.7734 57.3516C49.2161 57.1589 49.6745 57.0625 50.1484 57.0625C50.7526 57.0625 51.2734 57.1667 51.7109 57.375C52.1536 57.5833 52.5156 57.875 52.7969 58.25C53.0781 58.6198 53.2865 59.0573 53.4219 59.5625C53.5573 60.0625 53.625 60.6094 53.625 61.2031V61.8516H47.3125V60.6719H52.1797V60.5625C52.1589 60.1875 52.0807 59.8229 51.9453 59.4688C51.8151 59.1146 51.6068 58.8229 51.3203 58.5938C51.0339 58.3646 50.6432 58.25 50.1484 58.25C49.8203 58.25 49.5182 58.3203 49.2422 58.4609C48.9661 58.5964 48.7292 58.7995 48.5312 59.0703C48.3333 59.3411 48.1797 59.6719 48.0703 60.0625C47.9609 60.4531 47.9062 60.9036 47.9062 61.4141V61.7422C47.9062 62.1432 47.9609 62.5208 48.0703 62.875C48.1849 63.224 48.349 63.5312 48.5625 63.7969C48.7812 64.0625 49.0443 64.2708 49.3516 64.4219C49.6641 64.5729 50.0182 64.6484 50.4141 64.6484C50.9245 64.6484 51.3568 64.5443 51.7109 64.3359C52.0651 64.1276 52.375 63.849 52.6406 63.5L53.5156 64.1953C53.3333 64.4714 53.1016 64.7344 52.8203 64.9844C52.5391 65.2344 52.1927 65.4375 51.7812 65.5938C51.375 65.75 50.8932 65.8281 50.3359 65.8281ZM60.2969 64.2266V59.875C60.2969 59.5417 60.2292 59.2526 60.0938 59.0078C59.9635 58.7578 59.7656 58.5651 59.5 58.4297C59.2344 58.2943 58.9062 58.2266 58.5156 58.2266C58.151 58.2266 57.8307 58.2891 57.5547 58.4141C57.2839 58.5391 57.0703 58.7031 56.9141 58.9062C56.763 59.1094 56.6875 59.3281 56.6875 59.5625H55.2422C55.2422 59.2604 55.3203 58.9609 55.4766 58.6641C55.6328 58.3672 55.8568 58.099 56.1484 57.8594C56.4453 57.6146 56.7995 57.4219 57.2109 57.2812C57.6276 57.1354 58.0911 57.0625 58.6016 57.0625C59.2161 57.0625 59.7578 57.1667 60.2266 57.375C60.7005 57.5833 61.0703 57.8984 61.3359 58.3203C61.6068 58.737 61.7422 59.2604 61.7422 59.8906V63.8281C61.7422 64.1094 61.7656 64.4089 61.8125 64.7266C61.8646 65.0443 61.9401 65.3177 62.0391 65.5469V65.6719H60.5312C60.4583 65.5052 60.401 65.2839 60.3594 65.0078C60.3177 64.7266 60.2969 64.4661 60.2969 64.2266ZM60.5469 60.5469L60.5625 61.5625H59.1016C58.6901 61.5625 58.3229 61.5964 58 61.6641C57.6771 61.7266 57.4062 61.8229 57.1875 61.9531C56.9688 62.0833 56.8021 62.2474 56.6875 62.4453C56.5729 62.638 56.5156 62.8646 56.5156 63.125C56.5156 63.3906 56.5755 63.6328 56.6953 63.8516C56.8151 64.0703 56.9948 64.2448 57.2344 64.375C57.4792 64.5 57.7786 64.5625 58.1328 64.5625C58.5755 64.5625 58.9661 64.4688 59.3047 64.2812C59.6432 64.0938 59.9115 63.8646 60.1094 63.5938C60.3125 63.3229 60.4219 63.0599 60.4375 62.8047L61.0547 63.5C61.0182 63.7188 60.9193 63.9609 60.7578 64.2266C60.5964 64.4922 60.3802 64.7474 60.1094 64.9922C59.8438 65.2318 59.526 65.4323 59.1562 65.5938C58.7917 65.75 58.3802 65.8281 57.9219 65.8281C57.349 65.8281 56.8464 65.7161 56.4141 65.4922C55.987 65.2682 55.6536 64.9688 55.4141 64.5938C55.1797 64.2135 55.0625 63.7891 55.0625 63.3203C55.0625 62.8672 55.151 62.4688 55.3281 62.125C55.5052 61.776 55.7604 61.487 56.0938 61.2578C56.4271 61.0234 56.8281 60.8464 57.2969 60.7266C57.7656 60.6068 58.2891 60.5469 58.8672 60.5469H60.5469ZM67.5547 57.2188V58.3281H62.9844V57.2188H67.5547ZM64.5312 55.1641H65.9766V63.5781C65.9766 63.8646 66.0208 64.0807 66.1094 64.2266C66.1979 64.3724 66.3125 64.4688 66.4531 64.5156C66.5938 64.5625 66.7448 64.5859 66.9062 64.5859C67.026 64.5859 67.151 64.5755 67.2812 64.5547C67.4167 64.5286 67.5182 64.5078 67.5859 64.4922L67.5938 65.6719C67.4792 65.7083 67.3281 65.7422 67.1406 65.7734C66.9583 65.8099 66.737 65.8281 66.4766 65.8281C66.1224 65.8281 65.7969 65.7578 65.5 65.6172C65.2031 65.4766 64.9661 65.2422 64.7891 64.9141C64.6172 64.5807 64.5312 64.1328 64.5312 63.5703V55.1641ZM76.6016 64.6406C76.9453 64.6406 77.263 64.5703 77.5547 64.4297C77.8464 64.2891 78.0859 64.0964 78.2734 63.8516C78.4609 63.6016 78.5677 63.3177 78.5938 63H79.9688C79.9427 63.5 79.7734 63.9661 79.4609 64.3984C79.1536 64.8255 78.75 65.1719 78.25 65.4375C77.75 65.6979 77.2005 65.8281 76.6016 65.8281C75.9661 65.8281 75.4115 65.7161 74.9375 65.4922C74.4688 65.2682 74.0781 64.9609 73.7656 64.5703C73.4583 64.1797 73.2266 63.7318 73.0703 63.2266C72.9193 62.7161 72.8438 62.1771 72.8438 61.6094V61.2812C72.8438 60.7135 72.9193 60.1771 73.0703 59.6719C73.2266 59.1615 73.4583 58.7109 73.7656 58.3203C74.0781 57.9297 74.4688 57.6224 74.9375 57.3984C75.4115 57.1745 75.9661 57.0625 76.6016 57.0625C77.263 57.0625 77.8411 57.1979 78.3359 57.4688C78.8307 57.7344 79.2188 58.099 79.5 58.5625C79.7865 59.0208 79.9427 59.5417 79.9688 60.125H78.5938C78.5677 59.776 78.4688 59.4609 78.2969 59.1797C78.1302 58.8984 77.901 58.6745 77.6094 58.5078C77.3229 58.3359 76.987 58.25 76.6016 58.25C76.1589 58.25 75.7865 58.3385 75.4844 58.5156C75.1875 58.6875 74.9505 58.9219 74.7734 59.2188C74.6016 59.5104 74.4766 59.8359 74.3984 60.1953C74.3255 60.5495 74.2891 60.9115 74.2891 61.2812V61.6094C74.2891 61.9792 74.3255 62.3438 74.3984 62.7031C74.4714 63.0625 74.5938 63.388 74.7656 63.6797C74.9427 63.9714 75.1797 64.2057 75.4766 64.3828C75.7786 64.5547 76.1536 64.6406 76.6016 64.6406ZM81.2109 61.5391V61.3594C81.2109 60.75 81.2995 60.1849 81.4766 59.6641C81.6536 59.138 81.9089 58.6823 82.2422 58.2969C82.5755 57.9062 82.9792 57.6042 83.4531 57.3906C83.9271 57.1719 84.4583 57.0625 85.0469 57.0625C85.6406 57.0625 86.1745 57.1719 86.6484 57.3906C87.1276 57.6042 87.5339 57.9062 87.8672 58.2969C88.2057 58.6823 88.4635 59.138 88.6406 59.6641C88.8177 60.1849 88.9062 60.75 88.9062 61.3594V61.5391C88.9062 62.1484 88.8177 62.7135 88.6406 63.2344C88.4635 63.7552 88.2057 64.2109 87.8672 64.6016C87.5339 64.987 87.1302 65.2891 86.6562 65.5078C86.1875 65.7214 85.6562 65.8281 85.0625 65.8281C84.4688 65.8281 83.9349 65.7214 83.4609 65.5078C82.987 65.2891 82.5807 64.987 82.2422 64.6016C81.9089 64.2109 81.6536 63.7552 81.4766 63.2344C81.2995 62.7135 81.2109 62.1484 81.2109 61.5391ZM82.6562 61.3594V61.5391C82.6562 61.9609 82.7057 62.3594 82.8047 62.7344C82.9036 63.1042 83.0521 63.4323 83.25 63.7188C83.4531 64.0052 83.7057 64.2318 84.0078 64.3984C84.3099 64.5599 84.6615 64.6406 85.0625 64.6406C85.4583 64.6406 85.8047 64.5599 86.1016 64.3984C86.4036 64.2318 86.6536 64.0052 86.8516 63.7188C87.0495 63.4323 87.1979 63.1042 87.2969 62.7344C87.401 62.3594 87.4531 61.9609 87.4531 61.5391V61.3594C87.4531 60.9427 87.401 60.5495 87.2969 60.1797C87.1979 59.8047 87.0469 59.474 86.8438 59.1875C86.6458 58.8958 86.3958 58.6667 86.0938 58.5C85.7969 58.3333 85.4479 58.25 85.0469 58.25C84.651 58.25 84.3021 58.3333 84 58.5C83.7031 58.6667 83.4531 58.8958 83.25 59.1875C83.0521 59.474 82.9036 59.8047 82.8047 60.1797C82.7057 60.5495 82.6562 60.9427 82.6562 61.3594ZM92.1562 58.8984V65.6719H90.7031V57.2188H92.0781L92.1562 58.8984ZM91.8594 61.125L91.1875 61.1016C91.1927 60.5234 91.2682 59.9896 91.4141 59.5C91.5599 59.0052 91.776 58.5755 92.0625 58.2109C92.349 57.8464 92.7057 57.5651 93.1328 57.3672C93.5599 57.1641 94.0547 57.0625 94.6172 57.0625C95.013 57.0625 95.3776 57.1198 95.7109 57.2344C96.0443 57.3438 96.3333 57.5182 96.5781 57.7578C96.8229 57.9974 97.013 58.3047 97.1484 58.6797C97.2839 59.0547 97.3516 59.5078 97.3516 60.0391V65.6719H95.9062V60.1094C95.9062 59.6667 95.8307 59.3125 95.6797 59.0469C95.5339 58.7812 95.3255 58.5885 95.0547 58.4688C94.7839 58.3438 94.4661 58.2812 94.1016 58.2812C93.6745 58.2812 93.3177 58.3568 93.0312 58.5078C92.7448 58.6589 92.5156 58.8672 92.3438 59.1328C92.1719 59.3984 92.0469 59.7031 91.9688 60.0469C91.8958 60.3854 91.8594 60.7448 91.8594 61.125ZM97.3359 60.3281L96.3672 60.625C96.3724 60.1615 96.4479 59.7161 96.5938 59.2891C96.7448 58.862 96.9609 58.4818 97.2422 58.1484C97.5286 57.8151 97.8802 57.5521 98.2969 57.3594C98.7135 57.1615 99.1901 57.0625 99.7266 57.0625C100.18 57.0625 100.581 57.1224 100.93 57.2422C101.284 57.362 101.581 57.5469 101.82 57.7969C102.065 58.0417 102.25 58.3568 102.375 58.7422C102.5 59.1276 102.562 59.5859 102.562 60.1172V65.6719H101.109V60.1016C101.109 59.6276 101.034 59.2604 100.883 59C100.737 58.7344 100.529 58.5495 100.258 58.4453C99.9922 58.3359 99.6745 58.2812 99.3047 58.2812C98.987 58.2812 98.7057 58.3359 98.4609 58.4453C98.2161 58.5547 98.0104 58.7057 97.8438 58.8984C97.6771 59.0859 97.5495 59.3021 97.4609 59.5469C97.3776 59.7917 97.3359 60.0521 97.3359 60.3281ZM106.188 58.8984V65.6719H104.734V57.2188H106.109L106.188 58.8984ZM105.891 61.125L105.219 61.1016C105.224 60.5234 105.299 59.9896 105.445 59.5C105.591 59.0052 105.807 58.5755 106.094 58.2109C106.38 57.8464 106.737 57.5651 107.164 57.3672C107.591 57.1641 108.086 57.0625 108.648 57.0625C109.044 57.0625 109.409 57.1198 109.742 57.2344C110.076 57.3438 110.365 57.5182 110.609 57.7578C110.854 57.9974 111.044 58.3047 111.18 58.6797C111.315 59.0547 111.383 59.5078 111.383 60.0391V65.6719H109.938V60.1094C109.938 59.6667 109.862 59.3125 109.711 59.0469C109.565 58.7812 109.357 58.5885 109.086 58.4688C108.815 58.3438 108.497 58.2812 108.133 58.2812C107.706 58.2812 107.349 58.3568 107.062 58.5078C106.776 58.6589 106.547 58.8672 106.375 59.1328C106.203 59.3984 106.078 59.7031 106 60.0469C105.927 60.3854 105.891 60.7448 105.891 61.125ZM111.367 60.3281L110.398 60.625C110.404 60.1615 110.479 59.7161 110.625 59.2891C110.776 58.862 110.992 58.4818 111.273 58.1484C111.56 57.8151 111.911 57.5521 112.328 57.3594C112.745 57.1615 113.221 57.0625 113.758 57.0625C114.211 57.0625 114.612 57.1224 114.961 57.2422C115.315 57.362 115.612 57.5469 115.852 57.7969C116.096 58.0417 116.281 58.3568 116.406 58.7422C116.531 59.1276 116.594 59.5859 116.594 60.1172V65.6719H115.141V60.1016C115.141 59.6276 115.065 59.2604 114.914 59C114.768 58.7344 114.56 58.5495 114.289 58.4453C114.023 58.3359 113.706 58.2812 113.336 58.2812C113.018 58.2812 112.737 58.3359 112.492 58.4453C112.247 58.5547 112.042 58.7057 111.875 58.8984C111.708 59.0859 111.581 59.3021 111.492 59.5469C111.409 59.7917 111.367 60.0521 111.367 60.3281ZM123.953 63.7188V57.2188H125.406V65.6719H124.023L123.953 63.7188ZM124.227 61.9375L124.828 61.9219C124.828 62.4844 124.768 63.0052 124.648 63.4844C124.534 63.9583 124.346 64.3698 124.086 64.7188C123.826 65.0677 123.484 65.3411 123.062 65.5391C122.641 65.7318 122.128 65.8281 121.523 65.8281C121.112 65.8281 120.734 65.7682 120.391 65.6484C120.052 65.5286 119.76 65.3438 119.516 65.0938C119.271 64.8438 119.081 64.5182 118.945 64.1172C118.815 63.7161 118.75 63.2344 118.75 62.6719V57.2188H120.195V62.6875C120.195 63.0677 120.237 63.3828 120.32 63.6328C120.409 63.8776 120.526 64.0729 120.672 64.2188C120.823 64.3594 120.99 64.4583 121.172 64.5156C121.359 64.5729 121.552 64.6016 121.75 64.6016C122.365 64.6016 122.852 64.4844 123.211 64.25C123.57 64.0104 123.828 63.6901 123.984 63.2891C124.146 62.8828 124.227 62.4323 124.227 61.9375ZM129.055 59.0234V65.6719H127.609V57.2188H128.977L129.055 59.0234ZM128.711 61.125L128.109 61.1016C128.115 60.5234 128.201 59.9896 128.367 59.5C128.534 59.0052 128.768 58.5755 129.07 58.2109C129.372 57.8464 129.732 57.5651 130.148 57.3672C130.57 57.1641 131.036 57.0625 131.547 57.0625C131.964 57.0625 132.339 57.1198 132.672 57.2344C133.005 57.3438 133.289 57.5208 133.523 57.7656C133.763 58.0104 133.945 58.3281 134.07 58.7188C134.195 59.1042 134.258 59.5755 134.258 60.1328V65.6719H132.805V60.1172C132.805 59.6745 132.74 59.3203 132.609 59.0547C132.479 58.7839 132.289 58.5885 132.039 58.4688C131.789 58.3438 131.482 58.2812 131.117 58.2812C130.758 58.2812 130.43 58.3568 130.133 58.5078C129.841 58.6589 129.589 58.8672 129.375 59.1328C129.167 59.3984 129.003 59.7031 128.883 60.0469C128.768 60.3854 128.711 60.7448 128.711 61.125ZM138.023 57.2188V65.6719H136.57V57.2188H138.023ZM136.461 54.9766C136.461 54.7422 136.531 54.5443 136.672 54.3828C136.818 54.2214 137.031 54.1406 137.312 54.1406C137.589 54.1406 137.799 54.2214 137.945 54.3828C138.096 54.5443 138.172 54.7422 138.172 54.9766C138.172 55.2005 138.096 55.3932 137.945 55.5547C137.799 55.7109 137.589 55.7891 137.312 55.7891C137.031 55.7891 136.818 55.7109 136.672 55.5547C136.531 55.3932 136.461 55.2005 136.461 54.9766ZM143.727 64.6406C144.07 64.6406 144.388 64.5703 144.68 64.4297C144.971 64.2891 145.211 64.0964 145.398 63.8516C145.586 63.6016 145.693 63.3177 145.719 63H147.094C147.068 63.5 146.898 63.9661 146.586 64.3984C146.279 64.8255 145.875 65.1719 145.375 65.4375C144.875 65.6979 144.326 65.8281 143.727 65.8281C143.091 65.8281 142.536 65.7161 142.062 65.4922C141.594 65.2682 141.203 64.9609 140.891 64.5703C140.583 64.1797 140.352 63.7318 140.195 63.2266C140.044 62.7161 139.969 62.1771 139.969 61.6094V61.2812C139.969 60.7135 140.044 60.1771 140.195 59.6719C140.352 59.1615 140.583 58.7109 140.891 58.3203C141.203 57.9297 141.594 57.6224 142.062 57.3984C142.536 57.1745 143.091 57.0625 143.727 57.0625C144.388 57.0625 144.966 57.1979 145.461 57.4688C145.956 57.7344 146.344 58.099 146.625 58.5625C146.911 59.0208 147.068 59.5417 147.094 60.125H145.719C145.693 59.776 145.594 59.4609 145.422 59.1797C145.255 58.8984 145.026 58.6745 144.734 58.5078C144.448 58.3359 144.112 58.25 143.727 58.25C143.284 58.25 142.911 58.3385 142.609 58.5156C142.312 58.6875 142.076 58.9219 141.898 59.2188C141.727 59.5104 141.602 59.8359 141.523 60.1953C141.451 60.5495 141.414 60.9115 141.414 61.2812V61.6094C141.414 61.9792 141.451 62.3438 141.523 62.7031C141.596 63.0625 141.719 63.388 141.891 63.6797C142.068 63.9714 142.305 64.2057 142.602 64.3828C142.904 64.5547 143.279 64.6406 143.727 64.6406ZM153.703 64.2266V59.875C153.703 59.5417 153.635 59.2526 153.5 59.0078C153.37 58.7578 153.172 58.5651 152.906 58.4297C152.641 58.2943 152.312 58.2266 151.922 58.2266C151.557 58.2266 151.237 58.2891 150.961 58.4141C150.69 58.5391 150.477 58.7031 150.32 58.9062C150.169 59.1094 150.094 59.3281 150.094 59.5625H148.648C148.648 59.2604 148.727 58.9609 148.883 58.6641C149.039 58.3672 149.263 58.099 149.555 57.8594C149.852 57.6146 150.206 57.4219 150.617 57.2812C151.034 57.1354 151.497 57.0625 152.008 57.0625C152.622 57.0625 153.164 57.1667 153.633 57.375C154.107 57.5833 154.477 57.8984 154.742 58.3203C155.013 58.737 155.148 59.2604 155.148 59.8906V63.8281C155.148 64.1094 155.172 64.4089 155.219 64.7266C155.271 65.0443 155.346 65.3177 155.445 65.5469V65.6719H153.938C153.865 65.5052 153.807 65.2839 153.766 65.0078C153.724 64.7266 153.703 64.4661 153.703 64.2266ZM153.953 60.5469L153.969 61.5625H152.508C152.096 61.5625 151.729 61.5964 151.406 61.6641C151.083 61.7266 150.812 61.8229 150.594 61.9531C150.375 62.0833 150.208 62.2474 150.094 62.4453C149.979 62.638 149.922 62.8646 149.922 63.125C149.922 63.3906 149.982 63.6328 150.102 63.8516C150.221 64.0703 150.401 64.2448 150.641 64.375C150.885 64.5 151.185 64.5625 151.539 64.5625C151.982 64.5625 152.372 64.4688 152.711 64.2812C153.049 64.0938 153.318 63.8646 153.516 63.5938C153.719 63.3229 153.828 63.0599 153.844 62.8047L154.461 63.5C154.424 63.7188 154.326 63.9609 154.164 64.2266C154.003 64.4922 153.786 64.7474 153.516 64.9922C153.25 65.2318 152.932 65.4323 152.562 65.5938C152.198 65.75 151.786 65.8281 151.328 65.8281C150.755 65.8281 150.253 65.7161 149.82 65.4922C149.393 65.2682 149.06 64.9688 148.82 64.5938C148.586 64.2135 148.469 63.7891 148.469 63.3203C148.469 62.8672 148.557 62.4688 148.734 62.125C148.911 61.776 149.167 61.487 149.5 61.2578C149.833 61.0234 150.234 60.8464 150.703 60.7266C151.172 60.6068 151.695 60.5469 152.273 60.5469H153.953ZM160.961 57.2188V58.3281H156.391V57.2188H160.961ZM157.938 55.1641H159.383V63.5781C159.383 63.8646 159.427 64.0807 159.516 64.2266C159.604 64.3724 159.719 64.4688 159.859 64.5156C160 64.5625 160.151 64.5859 160.312 64.5859C160.432 64.5859 160.557 64.5755 160.688 64.5547C160.823 64.5286 160.924 64.5078 160.992 64.4922L161 65.6719C160.885 65.7083 160.734 65.7422 160.547 65.7734C160.365 65.8099 160.143 65.8281 159.883 65.8281C159.529 65.8281 159.203 65.7578 158.906 65.6172C158.609 65.4766 158.372 65.2422 158.195 64.9141C158.023 64.5807 157.938 64.1328 157.938 63.5703V55.1641ZM164.227 57.2188V65.6719H162.773V57.2188H164.227ZM162.664 54.9766C162.664 54.7422 162.734 54.5443 162.875 54.3828C163.021 54.2214 163.234 54.1406 163.516 54.1406C163.792 54.1406 164.003 54.2214 164.148 54.3828C164.299 54.5443 164.375 54.7422 164.375 54.9766C164.375 55.2005 164.299 55.3932 164.148 55.5547C164.003 55.7109 163.792 55.7891 163.516 55.7891C163.234 55.7891 163.021 55.7109 162.875 55.5547C162.734 55.3932 162.664 55.2005 162.664 54.9766ZM166.164 61.5391V61.3594C166.164 60.75 166.253 60.1849 166.43 59.6641C166.607 59.138 166.862 58.6823 167.195 58.2969C167.529 57.9062 167.932 57.6042 168.406 57.3906C168.88 57.1719 169.411 57.0625 170 57.0625C170.594 57.0625 171.128 57.1719 171.602 57.3906C172.081 57.6042 172.487 57.9062 172.82 58.2969C173.159 58.6823 173.417 59.138 173.594 59.6641C173.771 60.1849 173.859 60.75 173.859 61.3594V61.5391C173.859 62.1484 173.771 62.7135 173.594 63.2344C173.417 63.7552 173.159 64.2109 172.82 64.6016C172.487 64.987 172.083 65.2891 171.609 65.5078C171.141 65.7214 170.609 65.8281 170.016 65.8281C169.422 65.8281 168.888 65.7214 168.414 65.5078C167.94 65.2891 167.534 64.987 167.195 64.6016C166.862 64.2109 166.607 63.7552 166.43 63.2344C166.253 62.7135 166.164 62.1484 166.164 61.5391ZM167.609 61.3594V61.5391C167.609 61.9609 167.659 62.3594 167.758 62.7344C167.857 63.1042 168.005 63.4323 168.203 63.7188C168.406 64.0052 168.659 64.2318 168.961 64.3984C169.263 64.5599 169.615 64.6406 170.016 64.6406C170.411 64.6406 170.758 64.5599 171.055 64.3984C171.357 64.2318 171.607 64.0052 171.805 63.7188C172.003 63.4323 172.151 63.1042 172.25 62.7344C172.354 62.3594 172.406 61.9609 172.406 61.5391V61.3594C172.406 60.9427 172.354 60.5495 172.25 60.1797C172.151 59.8047 172 59.474 171.797 59.1875C171.599 58.8958 171.349 58.6667 171.047 58.5C170.75 58.3333 170.401 58.25 170 58.25C169.604 58.25 169.255 58.3333 168.953 58.5C168.656 58.6667 168.406 58.8958 168.203 59.1875C168.005 59.474 167.857 59.8047 167.758 60.1797C167.659 60.5495 167.609 60.9427 167.609 61.3594ZM177.117 59.0234V65.6719H175.672V57.2188H177.039L177.117 59.0234ZM176.773 61.125L176.172 61.1016C176.177 60.5234 176.263 59.9896 176.43 59.5C176.596 59.0052 176.831 58.5755 177.133 58.2109C177.435 57.8464 177.794 57.5651 178.211 57.3672C178.633 57.1641 179.099 57.0625 179.609 57.0625C180.026 57.0625 180.401 57.1198 180.734 57.2344C181.068 57.3438 181.352 57.5208 181.586 57.7656C181.826 58.0104 182.008 58.3281 182.133 58.7188C182.258 59.1042 182.32 59.5755 182.32 60.1328V65.6719H180.867V60.1172C180.867 59.6745 180.802 59.3203 180.672 59.0547C180.542 58.7839 180.352 58.5885 180.102 58.4688C179.852 58.3438 179.544 58.2812 179.18 58.2812C178.82 58.2812 178.492 58.3568 178.195 58.5078C177.904 58.6589 177.651 58.8672 177.438 59.1328C177.229 59.3984 177.065 59.7031 176.945 60.0469C176.831 60.3854 176.773 60.7448 176.773 61.125ZM193.469 64.2266V59.875C193.469 59.5417 193.401 59.2526 193.266 59.0078C193.135 58.7578 192.938 58.5651 192.672 58.4297C192.406 58.2943 192.078 58.2266 191.688 58.2266C191.323 58.2266 191.003 58.2891 190.727 58.4141C190.456 58.5391 190.242 58.7031 190.086 58.9062C189.935 59.1094 189.859 59.3281 189.859 59.5625H188.414C188.414 59.2604 188.492 58.9609 188.648 58.6641C188.805 58.3672 189.029 58.099 189.32 57.8594C189.617 57.6146 189.971 57.4219 190.383 57.2812C190.799 57.1354 191.263 57.0625 191.773 57.0625C192.388 57.0625 192.93 57.1667 193.398 57.375C193.872 57.5833 194.242 57.8984 194.508 58.3203C194.779 58.737 194.914 59.2604 194.914 59.8906V63.8281C194.914 64.1094 194.938 64.4089 194.984 64.7266C195.036 65.0443 195.112 65.3177 195.211 65.5469V65.6719H193.703C193.63 65.5052 193.573 65.2839 193.531 65.0078C193.49 64.7266 193.469 64.4661 193.469 64.2266ZM193.719 60.5469L193.734 61.5625H192.273C191.862 61.5625 191.495 61.5964 191.172 61.6641C190.849 61.7266 190.578 61.8229 190.359 61.9531C190.141 62.0833 189.974 62.2474 189.859 62.4453C189.745 62.638 189.688 62.8646 189.688 63.125C189.688 63.3906 189.747 63.6328 189.867 63.8516C189.987 64.0703 190.167 64.2448 190.406 64.375C190.651 64.5 190.951 64.5625 191.305 64.5625C191.747 64.5625 192.138 64.4688 192.477 64.2812C192.815 64.0938 193.083 63.8646 193.281 63.5938C193.484 63.3229 193.594 63.0599 193.609 62.8047L194.227 63.5C194.19 63.7188 194.091 63.9609 193.93 64.2266C193.768 64.4922 193.552 64.7474 193.281 64.9922C193.016 65.2318 192.698 65.4323 192.328 65.5938C191.964 65.75 191.552 65.8281 191.094 65.8281C190.521 65.8281 190.018 65.7161 189.586 65.4922C189.159 65.2682 188.826 64.9688 188.586 64.5938C188.352 64.2135 188.234 63.7891 188.234 63.3203C188.234 62.8672 188.323 62.4688 188.5 62.125C188.677 61.776 188.932 61.487 189.266 61.2578C189.599 61.0234 190 60.8464 190.469 60.7266C190.938 60.6068 191.461 60.5469 192.039 60.5469H193.719ZM198.633 59.0234V65.6719H197.188V57.2188H198.555L198.633 59.0234ZM198.289 61.125L197.688 61.1016C197.693 60.5234 197.779 59.9896 197.945 59.5C198.112 59.0052 198.346 58.5755 198.648 58.2109C198.951 57.8464 199.31 57.5651 199.727 57.3672C200.148 57.1641 200.615 57.0625 201.125 57.0625C201.542 57.0625 201.917 57.1198 202.25 57.2344C202.583 57.3438 202.867 57.5208 203.102 57.7656C203.341 58.0104 203.523 58.3281 203.648 58.7188C203.773 59.1042 203.836 59.5755 203.836 60.1328V65.6719H202.383V60.1172C202.383 59.6745 202.318 59.3203 202.188 59.0547C202.057 58.7839 201.867 58.5885 201.617 58.4688C201.367 58.3438 201.06 58.2812 200.695 58.2812C200.336 58.2812 200.008 58.3568 199.711 58.5078C199.419 58.6589 199.167 58.8672 198.953 59.1328C198.745 59.3984 198.581 59.7031 198.461 60.0469C198.346 60.3854 198.289 60.7448 198.289 61.125ZM211.359 64.0312V53.6719H212.812V65.6719H211.484L211.359 64.0312ZM205.672 61.5391V61.375C205.672 60.7292 205.75 60.1432 205.906 59.6172C206.068 59.0859 206.294 58.6302 206.586 58.25C206.883 57.8698 207.234 57.5781 207.641 57.375C208.052 57.1667 208.51 57.0625 209.016 57.0625C209.547 57.0625 210.01 57.1562 210.406 57.3438C210.807 57.526 211.146 57.7943 211.422 58.1484C211.703 58.4974 211.924 58.9193 212.086 59.4141C212.247 59.9089 212.359 60.4688 212.422 61.0938V61.8125C212.365 62.4323 212.253 62.9896 212.086 63.4844C211.924 63.9792 211.703 64.401 211.422 64.75C211.146 65.099 210.807 65.3672 210.406 65.5547C210.005 65.737 209.536 65.8281 209 65.8281C208.505 65.8281 208.052 65.7214 207.641 65.5078C207.234 65.2943 206.883 64.9948 206.586 64.6094C206.294 64.224 206.068 63.7708 205.906 63.25C205.75 62.724 205.672 62.1536 205.672 61.5391ZM207.125 61.375V61.5391C207.125 61.9609 207.167 62.3568 207.25 62.7266C207.339 63.0964 207.474 63.4219 207.656 63.7031C207.839 63.9844 208.07 64.2057 208.352 64.3672C208.633 64.5234 208.969 64.6016 209.359 64.6016C209.839 64.6016 210.232 64.5 210.539 64.2969C210.852 64.0938 211.102 63.8255 211.289 63.4922C211.477 63.1589 211.622 62.7969 211.727 62.4062V60.5234C211.664 60.237 211.573 59.9609 211.453 59.6953C211.339 59.4245 211.188 59.1849 211 58.9766C210.818 58.763 210.591 58.5938 210.32 58.4688C210.055 58.3438 209.74 58.2812 209.375 58.2812C208.979 58.2812 208.638 58.3646 208.352 58.5312C208.07 58.6927 207.839 58.9167 207.656 59.2031C207.474 59.4844 207.339 59.8125 207.25 60.1875C207.167 60.5573 207.125 60.9531 207.125 61.375ZM220.477 53.6719V65.6719H219.031V53.6719H220.477ZM220.133 61.125L219.531 61.1016C219.536 60.5234 219.622 59.9896 219.789 59.5C219.956 59.0052 220.19 58.5755 220.492 58.2109C220.794 57.8464 221.154 57.5651 221.57 57.3672C221.992 57.1641 222.458 57.0625 222.969 57.0625C223.385 57.0625 223.76 57.1198 224.094 57.2344C224.427 57.3438 224.711 57.5208 224.945 57.7656C225.185 58.0104 225.367 58.3281 225.492 58.7188C225.617 59.1042 225.68 59.5755 225.68 60.1328V65.6719H224.227V60.1172C224.227 59.6745 224.161 59.3203 224.031 59.0547C223.901 58.7839 223.711 58.5885 223.461 58.4688C223.211 58.3438 222.904 58.2812 222.539 58.2812C222.18 58.2812 221.852 58.3568 221.555 58.5078C221.263 58.6589 221.01 58.8672 220.797 59.1328C220.589 59.3984 220.424 59.7031 220.305 60.0469C220.19 60.3854 220.133 60.7448 220.133 61.125ZM231.352 65.8281C230.763 65.8281 230.229 65.7292 229.75 65.5312C229.276 65.3281 228.867 65.0443 228.523 64.6797C228.185 64.3151 227.924 63.8828 227.742 63.3828C227.56 62.8828 227.469 62.3359 227.469 61.7422V61.4141C227.469 60.7266 227.57 60.1146 227.773 59.5781C227.977 59.0365 228.253 58.5781 228.602 58.2031C228.951 57.8281 229.346 57.5443 229.789 57.3516C230.232 57.1589 230.69 57.0625 231.164 57.0625C231.768 57.0625 232.289 57.1667 232.727 57.375C233.169 57.5833 233.531 57.875 233.812 58.25C234.094 58.6198 234.302 59.0573 234.438 59.5625C234.573 60.0625 234.641 60.6094 234.641 61.2031V61.8516H228.328V60.6719H233.195V60.5625C233.174 60.1875 233.096 59.8229 232.961 59.4688C232.831 59.1146 232.622 58.8229 232.336 58.5938C232.049 58.3646 231.659 58.25 231.164 58.25C230.836 58.25 230.534 58.3203 230.258 58.4609C229.982 58.5964 229.745 58.7995 229.547 59.0703C229.349 59.3411 229.195 59.6719 229.086 60.0625C228.977 60.4531 228.922 60.9036 228.922 61.4141V61.7422C228.922 62.1432 228.977 62.5208 229.086 62.875C229.201 63.224 229.365 63.5312 229.578 63.7969C229.797 64.0625 230.06 64.2708 230.367 64.4219C230.68 64.5729 231.034 64.6484 231.43 64.6484C231.94 64.6484 232.372 64.5443 232.727 64.3359C233.081 64.1276 233.391 63.849 233.656 63.5L234.531 64.1953C234.349 64.4714 234.117 64.7344 233.836 64.9844C233.555 65.2344 233.208 65.4375 232.797 65.5938C232.391 65.75 231.909 65.8281 231.352 65.8281ZM237.898 53.6719V65.6719H236.445V53.6719H237.898ZM241.664 58.8438V68.9219H240.211V57.2188H241.539L241.664 58.8438ZM247.359 61.375V61.5391C247.359 62.1536 247.286 62.724 247.141 63.25C246.995 63.7708 246.781 64.224 246.5 64.6094C246.224 64.9948 245.883 65.2943 245.477 65.5078C245.07 65.7214 244.604 65.8281 244.078 65.8281C243.542 65.8281 243.068 65.7396 242.656 65.5625C242.245 65.3854 241.896 65.1276 241.609 64.7891C241.323 64.4505 241.094 64.0443 240.922 63.5703C240.755 63.0964 240.641 62.5625 240.578 61.9688V61.0938C240.641 60.4688 240.758 59.9089 240.93 59.4141C241.102 58.9193 241.328 58.4974 241.609 58.1484C241.896 57.7943 242.242 57.526 242.648 57.3438C243.055 57.1562 243.523 57.0625 244.055 57.0625C244.586 57.0625 245.057 57.1667 245.469 57.375C245.88 57.5781 246.227 57.8698 246.508 58.25C246.789 58.6302 247 59.0859 247.141 59.6172C247.286 60.1432 247.359 60.7292 247.359 61.375ZM245.906 61.5391V61.375C245.906 60.9531 245.862 60.5573 245.773 60.1875C245.685 59.8125 245.547 59.4844 245.359 59.2031C245.177 58.9167 244.943 58.6927 244.656 58.5312C244.37 58.3646 244.029 58.2812 243.633 58.2812C243.268 58.2812 242.951 58.3438 242.68 58.4688C242.414 58.5938 242.188 58.763 242 58.9766C241.812 59.1849 241.659 59.4245 241.539 59.6953C241.424 59.9609 241.339 60.237 241.281 60.5234V62.5469C241.385 62.9115 241.531 63.2552 241.719 63.5781C241.906 63.8958 242.156 64.1536 242.469 64.3516C242.781 64.5443 243.174 64.6406 243.648 64.6406C244.039 64.6406 244.375 64.5599 244.656 64.3984C244.943 64.2318 245.177 64.0052 245.359 63.7188C245.547 63.4323 245.685 63.1042 245.773 62.7344C245.862 62.3594 245.906 61.9609 245.906 61.5391ZM61.9766 86.6719H60.5312V77.3281C60.5312 76.7188 60.6406 76.2057 60.8594 75.7891C61.0833 75.3672 61.4036 75.0495 61.8203 74.8359C62.237 74.6172 62.7318 74.5078 63.3047 74.5078C63.4714 74.5078 63.638 74.5182 63.8047 74.5391C63.9766 74.5599 64.1432 74.5911 64.3047 74.6328L64.2266 75.8125C64.1172 75.7865 63.9922 75.7682 63.8516 75.7578C63.7161 75.7474 63.5807 75.7422 63.4453 75.7422C63.138 75.7422 62.8724 75.8047 62.6484 75.9297C62.4297 76.0495 62.263 76.2266 62.1484 76.4609C62.0339 76.6953 61.9766 76.9844 61.9766 77.3281V86.6719ZM63.7734 78.2188V79.3281H59.1953V78.2188H63.7734ZM66.8281 79.5469V86.6719H65.3828V78.2188H66.7891L66.8281 79.5469ZM69.4688 78.1719L69.4609 79.5156C69.3411 79.4896 69.2266 79.474 69.1172 79.4688C69.013 79.4583 68.8932 79.4531 68.7578 79.4531C68.4245 79.4531 68.1302 79.5052 67.875 79.6094C67.6198 79.7135 67.4036 79.8594 67.2266 80.0469C67.0495 80.2344 66.9089 80.4583 66.8047 80.7188C66.7057 80.974 66.6406 81.2552 66.6094 81.5625L66.2031 81.7969C66.2031 81.2865 66.2526 80.8073 66.3516 80.3594C66.4557 79.9115 66.6146 79.5156 66.8281 79.1719C67.0417 78.8229 67.3125 78.5521 67.6406 78.3594C67.974 78.1615 68.3698 78.0625 68.8281 78.0625C68.9323 78.0625 69.0521 78.0755 69.1875 78.1016C69.3229 78.1224 69.4167 78.1458 69.4688 78.1719ZM70.2656 82.5391V82.3594C70.2656 81.75 70.3542 81.1849 70.5312 80.6641C70.7083 80.138 70.9635 79.6823 71.2969 79.2969C71.6302 78.9062 72.0339 78.6042 72.5078 78.3906C72.9818 78.1719 73.513 78.0625 74.1016 78.0625C74.6953 78.0625 75.2292 78.1719 75.7031 78.3906C76.1823 78.6042 76.5885 78.9062 76.9219 79.2969C77.2604 79.6823 77.5182 80.138 77.6953 80.6641C77.8724 81.1849 77.9609 81.75 77.9609 82.3594V82.5391C77.9609 83.1484 77.8724 83.7135 77.6953 84.2344C77.5182 84.7552 77.2604 85.2109 76.9219 85.6016C76.5885 85.987 76.1849 86.2891 75.7109 86.5078C75.2422 86.7214 74.7109 86.8281 74.1172 86.8281C73.5234 86.8281 72.9896 86.7214 72.5156 86.5078C72.0417 86.2891 71.6354 85.987 71.2969 85.6016C70.9635 85.2109 70.7083 84.7552 70.5312 84.2344C70.3542 83.7135 70.2656 83.1484 70.2656 82.5391ZM71.7109 82.3594V82.5391C71.7109 82.9609 71.7604 83.3594 71.8594 83.7344C71.9583 84.1042 72.1068 84.4323 72.3047 84.7188C72.5078 85.0052 72.7604 85.2318 73.0625 85.3984C73.3646 85.5599 73.7161 85.6406 74.1172 85.6406C74.513 85.6406 74.8594 85.5599 75.1562 85.3984C75.4583 85.2318 75.7083 85.0052 75.9062 84.7188C76.1042 84.4323 76.2526 84.1042 76.3516 83.7344C76.4557 83.3594 76.5078 82.9609 76.5078 82.5391V82.3594C76.5078 81.9427 76.4557 81.5495 76.3516 81.1797C76.2526 80.8047 76.1016 80.474 75.8984 80.1875C75.7005 79.8958 75.4505 79.6667 75.1484 79.5C74.8516 79.3333 74.5026 79.25 74.1016 79.25C73.7057 79.25 73.3568 79.3333 73.0547 79.5C72.7578 79.6667 72.5078 79.8958 72.3047 80.1875C72.1068 80.474 71.9583 80.8047 71.8594 81.1797C71.7604 81.5495 71.7109 81.9427 71.7109 82.3594ZM81.2109 79.8984V86.6719H79.7578V78.2188H81.1328L81.2109 79.8984ZM80.9141 82.125L80.2422 82.1016C80.2474 81.5234 80.3229 80.9896 80.4688 80.5C80.6146 80.0052 80.8307 79.5755 81.1172 79.2109C81.4036 78.8464 81.7604 78.5651 82.1875 78.3672C82.6146 78.1641 83.1094 78.0625 83.6719 78.0625C84.0677 78.0625 84.4323 78.1198 84.7656 78.2344C85.099 78.3438 85.388 78.5182 85.6328 78.7578C85.8776 78.9974 86.0677 79.3047 86.2031 79.6797C86.3385 80.0547 86.4062 80.5078 86.4062 81.0391V86.6719H84.9609V81.1094C84.9609 80.6667 84.8854 80.3125 84.7344 80.0469C84.5885 79.7812 84.3802 79.5885 84.1094 79.4688C83.8385 79.3438 83.5208 79.2812 83.1562 79.2812C82.7292 79.2812 82.3724 79.3568 82.0859 79.5078C81.7995 79.6589 81.5703 79.8672 81.3984 80.1328C81.2266 80.3984 81.1016 80.7031 81.0234 81.0469C80.9505 81.3854 80.9141 81.7448 80.9141 82.125ZM86.3906 81.3281L85.4219 81.625C85.4271 81.1615 85.5026 80.7161 85.6484 80.2891C85.7995 79.862 86.0156 79.4818 86.2969 79.1484C86.5833 78.8151 86.9349 78.5521 87.3516 78.3594C87.7682 78.1615 88.2448 78.0625 88.7812 78.0625C89.2344 78.0625 89.6354 78.1224 89.9844 78.2422C90.3385 78.362 90.6354 78.5469 90.875 78.7969C91.1198 79.0417 91.3047 79.3568 91.4297 79.7422C91.5547 80.1276 91.6172 80.5859 91.6172 81.1172V86.6719H90.1641V81.1016C90.1641 80.6276 90.0885 80.2604 89.9375 80C89.7917 79.7344 89.5833 79.5495 89.3125 79.4453C89.0469 79.3359 88.7292 79.2812 88.3594 79.2812C88.0417 79.2812 87.7604 79.3359 87.5156 79.4453C87.2708 79.5547 87.0651 79.7057 86.8984 79.8984C86.7318 80.0859 86.6042 80.3021 86.5156 80.5469C86.4323 80.7917 86.3906 81.0521 86.3906 81.3281ZM99.2188 74.6719V86.6719H97.7734V74.6719H99.2188ZM98.875 82.125L98.2734 82.1016C98.2786 81.5234 98.3646 80.9896 98.5312 80.5C98.6979 80.0052 98.9323 79.5755 99.2344 79.2109C99.5365 78.8464 99.8958 78.5651 100.312 78.3672C100.734 78.1641 101.201 78.0625 101.711 78.0625C102.128 78.0625 102.503 78.1198 102.836 78.2344C103.169 78.3438 103.453 78.5208 103.688 78.7656C103.927 79.0104 104.109 79.3281 104.234 79.7188C104.359 80.1042 104.422 80.5755 104.422 81.1328V86.6719H102.969V81.1172C102.969 80.6745 102.904 80.3203 102.773 80.0547C102.643 79.7839 102.453 79.5885 102.203 79.4688C101.953 79.3438 101.646 79.2812 101.281 79.2812C100.922 79.2812 100.594 79.3568 100.297 79.5078C100.005 79.6589 99.7526 79.8672 99.5391 80.1328C99.3307 80.3984 99.1667 80.7031 99.0469 81.0469C98.9323 81.3854 98.875 81.7448 98.875 82.125ZM108.156 78.2188V86.6719H106.703V78.2188H108.156ZM106.594 75.9766C106.594 75.7422 106.664 75.5443 106.805 75.3828C106.951 75.2214 107.164 75.1406 107.445 75.1406C107.721 75.1406 107.932 75.2214 108.078 75.3828C108.229 75.5443 108.305 75.7422 108.305 75.9766C108.305 76.2005 108.229 76.3932 108.078 76.5547C107.932 76.7109 107.721 76.7891 107.445 76.7891C107.164 76.7891 106.951 76.7109 106.805 76.5547C106.664 76.3932 106.594 76.2005 106.594 75.9766ZM111.914 79.8984V86.6719H110.461V78.2188H111.836L111.914 79.8984ZM111.617 82.125L110.945 82.1016C110.951 81.5234 111.026 80.9896 111.172 80.5C111.318 80.0052 111.534 79.5755 111.82 79.2109C112.107 78.8464 112.464 78.5651 112.891 78.3672C113.318 78.1641 113.812 78.0625 114.375 78.0625C114.771 78.0625 115.135 78.1198 115.469 78.2344C115.802 78.3438 116.091 78.5182 116.336 78.7578C116.581 78.9974 116.771 79.3047 116.906 79.6797C117.042 80.0547 117.109 80.5078 117.109 81.0391V86.6719H115.664V81.1094C115.664 80.6667 115.589 80.3125 115.438 80.0469C115.292 79.7812 115.083 79.5885 114.812 79.4688C114.542 79.3438 114.224 79.2812 113.859 79.2812C113.432 79.2812 113.076 79.3568 112.789 79.5078C112.503 79.6589 112.273 79.8672 112.102 80.1328C111.93 80.3984 111.805 80.7031 111.727 81.0469C111.654 81.3854 111.617 81.7448 111.617 82.125ZM117.094 81.3281L116.125 81.625C116.13 81.1615 116.206 80.7161 116.352 80.2891C116.503 79.862 116.719 79.4818 117 79.1484C117.286 78.8151 117.638 78.5521 118.055 78.3594C118.471 78.1615 118.948 78.0625 119.484 78.0625C119.938 78.0625 120.339 78.1224 120.688 78.2422C121.042 78.362 121.339 78.5469 121.578 78.7969C121.823 79.0417 122.008 79.3568 122.133 79.7422C122.258 80.1276 122.32 80.5859 122.32 81.1172V86.6719H120.867V81.1016C120.867 80.6276 120.792 80.2604 120.641 80C120.495 79.7344 120.286 79.5495 120.016 79.4453C119.75 79.3359 119.432 79.2812 119.062 79.2812C118.745 79.2812 118.464 79.3359 118.219 79.4453C117.974 79.5547 117.768 79.7057 117.602 79.8984C117.435 80.0859 117.307 80.3021 117.219 80.5469C117.135 80.7917 117.094 81.0521 117.094 81.3281ZM124.531 85.9062C124.531 85.6615 124.607 85.4557 124.758 85.2891C124.914 85.1172 125.138 85.0312 125.43 85.0312C125.721 85.0312 125.943 85.1172 126.094 85.2891C126.25 85.4557 126.328 85.6615 126.328 85.9062C126.328 86.1458 126.25 86.349 126.094 86.5156C125.943 86.6823 125.721 86.7656 125.43 86.7656C125.138 86.7656 124.914 86.6823 124.758 86.5156C124.607 86.349 124.531 86.1458 124.531 85.9062ZM136.805 75.2969V86.6719H135.32V75.2969H136.805ZM140.461 75.2969V76.5312H131.672V75.2969H140.461ZM143.375 74.6719V86.6719H141.93V74.6719H143.375ZM143.031 82.125L142.43 82.1016C142.435 81.5234 142.521 80.9896 142.688 80.5C142.854 80.0052 143.089 79.5755 143.391 79.2109C143.693 78.8464 144.052 78.5651 144.469 78.3672C144.891 78.1641 145.357 78.0625 145.867 78.0625C146.284 78.0625 146.659 78.1198 146.992 78.2344C147.326 78.3438 147.609 78.5208 147.844 78.7656C148.083 79.0104 148.266 79.3281 148.391 79.7188C148.516 80.1042 148.578 80.5755 148.578 81.1328V86.6719H147.125V81.1172C147.125 80.6745 147.06 80.3203 146.93 80.0547C146.799 79.7839 146.609 79.5885 146.359 79.4688C146.109 79.3438 145.802 79.2812 145.438 79.2812C145.078 79.2812 144.75 79.3568 144.453 79.5078C144.161 79.6589 143.909 79.8672 143.695 80.1328C143.487 80.3984 143.323 80.7031 143.203 81.0469C143.089 81.3854 143.031 81.7448 143.031 82.125ZM155.727 85.2266V80.875C155.727 80.5417 155.659 80.2526 155.523 80.0078C155.393 79.7578 155.195 79.5651 154.93 79.4297C154.664 79.2943 154.336 79.2266 153.945 79.2266C153.581 79.2266 153.26 79.2891 152.984 79.4141C152.714 79.5391 152.5 79.7031 152.344 79.9062C152.193 80.1094 152.117 80.3281 152.117 80.5625H150.672C150.672 80.2604 150.75 79.9609 150.906 79.6641C151.062 79.3672 151.286 79.099 151.578 78.8594C151.875 78.6146 152.229 78.4219 152.641 78.2812C153.057 78.1354 153.521 78.0625 154.031 78.0625C154.646 78.0625 155.188 78.1667 155.656 78.375C156.13 78.5833 156.5 78.8984 156.766 79.3203C157.036 79.737 157.172 80.2604 157.172 80.8906V84.8281C157.172 85.1094 157.195 85.4089 157.242 85.7266C157.294 86.0443 157.37 86.3177 157.469 86.5469V86.6719H155.961C155.888 86.5052 155.831 86.2839 155.789 86.0078C155.747 85.7266 155.727 85.4661 155.727 85.2266ZM155.977 81.5469L155.992 82.5625H154.531C154.12 82.5625 153.753 82.5964 153.43 82.6641C153.107 82.7266 152.836 82.8229 152.617 82.9531C152.398 83.0833 152.232 83.2474 152.117 83.4453C152.003 83.638 151.945 83.8646 151.945 84.125C151.945 84.3906 152.005 84.6328 152.125 84.8516C152.245 85.0703 152.424 85.2448 152.664 85.375C152.909 85.5 153.208 85.5625 153.562 85.5625C154.005 85.5625 154.396 85.4688 154.734 85.2812C155.073 85.0938 155.341 84.8646 155.539 84.5938C155.742 84.3229 155.852 84.0599 155.867 83.8047L156.484 84.5C156.448 84.7188 156.349 84.9609 156.188 85.2266C156.026 85.4922 155.81 85.7474 155.539 85.9922C155.273 86.2318 154.956 86.4323 154.586 86.5938C154.221 86.75 153.81 86.8281 153.352 86.8281C152.779 86.8281 152.276 86.7161 151.844 86.4922C151.417 86.2682 151.083 85.9688 150.844 85.5938C150.609 85.2135 150.492 84.7891 150.492 84.3203C150.492 83.8672 150.581 83.4688 150.758 83.125C150.935 82.776 151.19 82.487 151.523 82.2578C151.857 82.0234 152.258 81.8464 152.727 81.7266C153.195 81.6068 153.719 81.5469 154.297 81.5469H155.977ZM160.891 80.0234V86.6719H159.445V78.2188H160.812L160.891 80.0234ZM160.547 82.125L159.945 82.1016C159.951 81.5234 160.036 80.9896 160.203 80.5C160.37 80.0052 160.604 79.5755 160.906 79.2109C161.208 78.8464 161.568 78.5651 161.984 78.3672C162.406 78.1641 162.872 78.0625 163.383 78.0625C163.799 78.0625 164.174 78.1198 164.508 78.2344C164.841 78.3438 165.125 78.5208 165.359 78.7656C165.599 79.0104 165.781 79.3281 165.906 79.7188C166.031 80.1042 166.094 80.5755 166.094 81.1328V86.6719H164.641V81.1172C164.641 80.6745 164.576 80.3203 164.445 80.0547C164.315 79.7839 164.125 79.5885 163.875 79.4688C163.625 79.3438 163.318 79.2812 162.953 79.2812C162.594 79.2812 162.266 79.3568 161.969 79.5078C161.677 79.6589 161.424 79.8672 161.211 80.1328C161.003 80.3984 160.839 80.7031 160.719 81.0469C160.604 81.3854 160.547 81.7448 160.547 82.125ZM169.742 74.6719V86.6719H168.289V74.6719H169.742ZM174.906 78.2188L171.219 82.1641L169.156 84.3047L169.039 82.7656L170.516 81L173.141 78.2188H174.906ZM173.586 86.6719L170.57 82.6406L171.32 81.3516L175.289 86.6719H173.586ZM182.742 85.7969L185.094 78.2188H186.641L183.25 87.9766C183.172 88.1849 183.068 88.4089 182.938 88.6484C182.812 88.8932 182.651 89.125 182.453 89.3438C182.255 89.5625 182.016 89.7396 181.734 89.875C181.458 90.0156 181.128 90.0859 180.742 90.0859C180.628 90.0859 180.482 90.0703 180.305 90.0391C180.128 90.0078 180.003 89.9818 179.93 89.9609L179.922 88.7891C179.964 88.7943 180.029 88.7995 180.117 88.8047C180.211 88.8151 180.276 88.8203 180.312 88.8203C180.641 88.8203 180.919 88.776 181.148 88.6875C181.378 88.6042 181.57 88.4609 181.727 88.2578C181.888 88.0599 182.026 87.7865 182.141 87.4375L182.742 85.7969ZM181.016 78.2188L183.211 84.7812L183.586 86.3047L182.547 86.8359L179.438 78.2188H181.016ZM187.438 82.5391V82.3594C187.438 81.75 187.526 81.1849 187.703 80.6641C187.88 80.138 188.135 79.6823 188.469 79.2969C188.802 78.9062 189.206 78.6042 189.68 78.3906C190.154 78.1719 190.685 78.0625 191.273 78.0625C191.867 78.0625 192.401 78.1719 192.875 78.3906C193.354 78.6042 193.76 78.9062 194.094 79.2969C194.432 79.6823 194.69 80.138 194.867 80.6641C195.044 81.1849 195.133 81.75 195.133 82.3594V82.5391C195.133 83.1484 195.044 83.7135 194.867 84.2344C194.69 84.7552 194.432 85.2109 194.094 85.6016C193.76 85.987 193.357 86.2891 192.883 86.5078C192.414 86.7214 191.883 86.8281 191.289 86.8281C190.695 86.8281 190.161 86.7214 189.688 86.5078C189.214 86.2891 188.807 85.987 188.469 85.6016C188.135 85.2109 187.88 84.7552 187.703 84.2344C187.526 83.7135 187.438 83.1484 187.438 82.5391ZM188.883 82.3594V82.5391C188.883 82.9609 188.932 83.3594 189.031 83.7344C189.13 84.1042 189.279 84.4323 189.477 84.7188C189.68 85.0052 189.932 85.2318 190.234 85.3984C190.536 85.5599 190.888 85.6406 191.289 85.6406C191.685 85.6406 192.031 85.5599 192.328 85.3984C192.63 85.2318 192.88 85.0052 193.078 84.7188C193.276 84.4323 193.424 84.1042 193.523 83.7344C193.628 83.3594 193.68 82.9609 193.68 82.5391V82.3594C193.68 81.9427 193.628 81.5495 193.523 81.1797C193.424 80.8047 193.273 80.474 193.07 80.1875C192.872 79.8958 192.622 79.6667 192.32 79.5C192.023 79.3333 191.674 79.25 191.273 79.25C190.878 79.25 190.529 79.3333 190.227 79.5C189.93 79.6667 189.68 79.8958 189.477 80.1875C189.279 80.474 189.13 80.8047 189.031 81.1797C188.932 81.5495 188.883 81.9427 188.883 82.3594ZM202.117 84.7188V78.2188H203.57V86.6719H202.188L202.117 84.7188ZM202.391 82.9375L202.992 82.9219C202.992 83.4844 202.932 84.0052 202.812 84.4844C202.698 84.9583 202.51 85.3698 202.25 85.7188C201.99 86.0677 201.648 86.3411 201.227 86.5391C200.805 86.7318 200.292 86.8281 199.688 86.8281C199.276 86.8281 198.898 86.7682 198.555 86.6484C198.216 86.5286 197.924 86.3438 197.68 86.0938C197.435 85.8438 197.245 85.5182 197.109 85.1172C196.979 84.7161 196.914 84.2344 196.914 83.6719V78.2188H198.359V83.6875C198.359 84.0677 198.401 84.3828 198.484 84.6328C198.573 84.8776 198.69 85.0729 198.836 85.2188C198.987 85.3594 199.154 85.4583 199.336 85.5156C199.523 85.5729 199.716 85.6016 199.914 85.6016C200.529 85.6016 201.016 85.4844 201.375 85.25C201.734 85.0104 201.992 84.6901 202.148 84.2891C202.31 83.8828 202.391 83.4323 202.391 82.9375ZM205.797 85.9062C205.797 85.6615 205.872 85.4557 206.023 85.2891C206.18 85.1172 206.404 85.0312 206.695 85.0312C206.987 85.0312 207.208 85.1172 207.359 85.2891C207.516 85.4557 207.594 85.6615 207.594 85.9062C207.594 86.1458 207.516 86.349 207.359 86.5156C207.208 86.6823 206.987 86.7656 206.695 86.7656C206.404 86.7656 206.18 86.6823 206.023 86.5156C205.872 86.349 205.797 86.1458 205.797 85.9062ZM210.219 74.6719V75.6719C210.219 75.9844 210.164 76.3151 210.055 76.6641C209.951 77.0078 209.797 77.3411 209.594 77.6641C209.391 77.9818 209.146 78.2604 208.859 78.5L208.031 77.9297C208.276 77.5859 208.461 77.2344 208.586 76.875C208.716 76.5104 208.781 76.1172 208.781 75.6953V74.6719H210.219ZM212.617 74.6719V75.6719C212.617 75.9844 212.562 76.3151 212.453 76.6641C212.349 77.0078 212.195 77.3411 211.992 77.6641C211.789 77.9818 211.544 78.2604 211.258 78.5L210.43 77.9297C210.674 77.5859 210.859 77.2344 210.984 76.875C211.115 76.5104 211.18 76.1172 211.18 75.6953V74.6719H212.617Z" fill="#3F3B3D"/>
<defs>
<clipPath id="clip0_1_132">
<rect width="128" height="32" fill="white" transform="translate(72 3.67188)"/>
</clipPath>
</defs>
</svg>
