<svg width="272" height="112" viewBox="0 0 272 112" fill="none" xmlns="http://www.w3.org/2000/svg">
<path d="M40.0938 57.6172V56.6719C40.0938 56.3542 40.1458 56.0234 40.25 55.6797C40.3594 55.3307 40.5156 54.9974 40.7188 54.6797C40.9219 54.3568 41.1667 54.0781 41.4531 53.8438L42.2734 54.4141C42.0339 54.7578 41.849 55.112 41.7188 55.4766C41.5885 55.8359 41.5234 56.2266 41.5234 56.6484V57.6172H40.0938ZM42.5547 57.6172V56.6719C42.5547 56.3542 42.6068 56.0234 42.7109 55.6797C42.8203 55.3307 42.9766 54.9974 43.1797 54.6797C43.3828 54.3568 43.6276 54.0781 43.9141 53.8438L44.7344 54.4141C44.4948 54.7578 44.3099 55.112 44.1797 55.4766C44.0495 55.8359 43.9844 56.2266 43.9844 56.6484V57.6172H42.5547ZM54.6562 60.3359V64.5C54.5156 64.7083 54.2917 64.9427 53.9844 65.2031C53.6771 65.4583 53.2526 65.6823 52.7109 65.875C52.1745 66.0625 51.4818 66.1562 50.6328 66.1562C49.9401 66.1562 49.3021 66.0365 48.7188 65.7969C48.1406 65.5521 47.638 65.1979 47.2109 64.7344C46.7891 64.2656 46.4609 63.6979 46.2266 63.0312C45.9974 62.3594 45.8828 61.599 45.8828 60.75V59.8672C45.8828 59.0182 45.9818 58.2604 46.1797 57.5938C46.3828 56.9271 46.6797 56.362 47.0703 55.8984C47.4609 55.4297 47.9401 55.0755 48.5078 54.8359C49.0755 54.5911 49.7266 54.4688 50.4609 54.4688C51.3307 54.4688 52.0573 54.6198 52.6406 54.9219C53.2292 55.2188 53.6875 55.6302 54.0156 56.1562C54.349 56.6823 54.5625 57.2812 54.6562 57.9531H53.1484C53.0807 57.5417 52.9453 57.1667 52.7422 56.8281C52.5443 56.4896 52.2604 56.2188 51.8906 56.0156C51.5208 55.8073 51.0443 55.7031 50.4609 55.7031C49.9349 55.7031 49.4792 55.7995 49.0938 55.9922C48.7083 56.1849 48.3906 56.4609 48.1406 56.8203C47.8906 57.1797 47.7031 57.6146 47.5781 58.125C47.4583 58.6354 47.3984 59.2109 47.3984 59.8516V60.75C47.3984 61.4062 47.474 61.9922 47.625 62.5078C47.7812 63.0234 48.0026 63.4635 48.2891 63.8281C48.5755 64.1875 48.9167 64.4609 49.3125 64.6484C49.7135 64.8359 50.1562 64.9297 50.6406 64.9297C51.1771 64.9297 51.612 64.8854 51.9453 64.7969C52.2786 64.7031 52.5391 64.5938 52.7266 64.4688C52.9141 64.3385 53.0573 64.2161 53.1562 64.1016V61.5547H50.5234V60.3359H54.6562ZM58.3828 58.875V66H56.9375V57.5469H58.3438L58.3828 58.875ZM61.0234 57.5L61.0156 58.8438C60.8958 58.8177 60.7812 58.8021 60.6719 58.7969C60.5677 58.7865 60.4479 58.7812 60.3125 58.7812C59.9792 58.7812 59.6849 58.8333 59.4297 58.9375C59.1745 59.0417 58.9583 59.1875 58.7812 59.375C58.6042 59.5625 58.4635 59.7865 58.3594 60.0469C58.2604 60.3021 58.1953 60.5833 58.1641 60.8906L57.7578 61.125C57.7578 60.6146 57.8073 60.1354 57.9062 59.6875C58.0104 59.2396 58.1693 58.8438 58.3828 58.5C58.5964 58.151 58.8672 57.8802 59.1953 57.6875C59.5286 57.4896 59.9245 57.3906 60.3828 57.3906C60.487 57.3906 60.6068 57.4036 60.7422 57.4297C60.8776 57.4505 60.9714 57.474 61.0234 57.5ZM65.7109 66.1562C65.1224 66.1562 64.5885 66.0573 64.1094 65.8594C63.6354 65.6562 63.2266 65.3724 62.8828 65.0078C62.5443 64.6432 62.2839 64.2109 62.1016 63.7109C61.9193 63.2109 61.8281 62.6641 61.8281 62.0703V61.7422C61.8281 61.0547 61.9297 60.4427 62.1328 59.9062C62.3359 59.3646 62.612 58.9062 62.9609 58.5312C63.3099 58.1562 63.7057 57.8724 64.1484 57.6797C64.5911 57.487 65.0495 57.3906 65.5234 57.3906C66.1276 57.3906 66.6484 57.4948 67.0859 57.7031C67.5286 57.9115 67.8906 58.2031 68.1719 58.5781C68.4531 58.9479 68.6615 59.3854 68.7969 59.8906C68.9323 60.3906 69 60.9375 69 61.5312V62.1797H62.6875V61H67.5547V60.8906C67.5339 60.5156 67.4557 60.151 67.3203 59.7969C67.1901 59.4427 66.9818 59.151 66.6953 58.9219C66.4089 58.6927 66.0182 58.5781 65.5234 58.5781C65.1953 58.5781 64.8932 58.6484 64.6172 58.7891C64.3411 58.9245 64.1042 59.1276 63.9062 59.3984C63.7083 59.6693 63.5547 60 63.4453 60.3906C63.3359 60.7812 63.2812 61.2318 63.2812 61.7422V62.0703C63.2812 62.4714 63.3359 62.849 63.4453 63.2031C63.5599 63.5521 63.724 63.8594 63.9375 64.125C64.1562 64.3906 64.4193 64.599 64.7266 64.75C65.0391 64.901 65.3932 64.9766 65.7891 64.9766C66.2995 64.9766 66.7318 64.8724 67.0859 64.6641C67.4401 64.4557 67.75 64.1771 68.0156 63.8281L68.8906 64.5234C68.7083 64.7995 68.4766 65.0625 68.1953 65.3125C67.9141 65.5625 67.5677 65.7656 67.1562 65.9219C66.75 66.0781 66.2682 66.1562 65.7109 66.1562ZM75.6719 64.5547V60.2031C75.6719 59.8698 75.6042 59.5807 75.4688 59.3359C75.3385 59.0859 75.1406 58.8932 74.875 58.7578C74.6094 58.6224 74.2812 58.5547 73.8906 58.5547C73.526 58.5547 73.2057 58.6172 72.9297 58.7422C72.6589 58.8672 72.4453 59.0312 72.2891 59.2344C72.138 59.4375 72.0625 59.6562 72.0625 59.8906H70.6172C70.6172 59.5885 70.6953 59.2891 70.8516 58.9922C71.0078 58.6953 71.2318 58.4271 71.5234 58.1875C71.8203 57.9427 72.1745 57.75 72.5859 57.6094C73.0026 57.4635 73.4661 57.3906 73.9766 57.3906C74.5911 57.3906 75.1328 57.4948 75.6016 57.7031C76.0755 57.9115 76.4453 58.2266 76.7109 58.6484C76.9818 59.0651 77.1172 59.5885 77.1172 60.2188V64.1562C77.1172 64.4375 77.1406 64.737 77.1875 65.0547C77.2396 65.3724 77.3151 65.6458 77.4141 65.875V66H75.9062C75.8333 65.8333 75.776 65.612 75.7344 65.3359C75.6927 65.0547 75.6719 64.7943 75.6719 64.5547ZM75.9219 60.875L75.9375 61.8906H74.4766C74.0651 61.8906 73.6979 61.9245 73.375 61.9922C73.0521 62.0547 72.7812 62.151 72.5625 62.2812C72.3438 62.4115 72.1771 62.5755 72.0625 62.7734C71.9479 62.9661 71.8906 63.1927 71.8906 63.4531C71.8906 63.7188 71.9505 63.9609 72.0703 64.1797C72.1901 64.3984 72.3698 64.5729 72.6094 64.7031C72.8542 64.8281 73.1536 64.8906 73.5078 64.8906C73.9505 64.8906 74.3411 64.7969 74.6797 64.6094C75.0182 64.4219 75.2865 64.1927 75.4844 63.9219C75.6875 63.651 75.7969 63.388 75.8125 63.1328L76.4297 63.8281C76.3932 64.0469 76.2943 64.2891 76.1328 64.5547C75.9714 64.8203 75.7552 65.0755 75.4844 65.3203C75.2188 65.5599 74.901 65.7604 74.5312 65.9219C74.1667 66.0781 73.7552 66.1562 73.2969 66.1562C72.724 66.1562 72.2214 66.0443 71.7891 65.8203C71.362 65.5964 71.0286 65.2969 70.7891 64.9219C70.5547 64.5417 70.4375 64.1172 70.4375 63.6484C70.4375 63.1953 70.526 62.7969 70.7031 62.4531C70.8802 62.1042 71.1354 61.8151 71.4688 61.5859C71.8021 61.3516 72.2031 61.1745 72.6719 61.0547C73.1406 60.9349 73.6641 60.875 74.2422 60.875H75.9219ZM82.9297 57.5469V58.6562H78.3594V57.5469H82.9297ZM79.9062 55.4922H81.3516V63.9062C81.3516 64.1927 81.3958 64.4089 81.4844 64.5547C81.5729 64.7005 81.6875 64.7969 81.8281 64.8438C81.9688 64.8906 82.1198 64.9141 82.2812 64.9141C82.401 64.9141 82.526 64.9036 82.6562 64.8828C82.7917 64.8568 82.8932 64.8359 82.9609 64.8203L82.9688 66C82.8542 66.0365 82.7031 66.0703 82.5156 66.1016C82.3333 66.138 82.112 66.1562 81.8516 66.1562C81.4974 66.1562 81.1719 66.0859 80.875 65.9453C80.5781 65.8047 80.3411 65.5703 80.1641 65.2422C79.9922 64.9089 79.9062 64.4609 79.9062 63.8984V55.4922ZM91.9766 64.9688C92.3203 64.9688 92.638 64.8984 92.9297 64.7578C93.2214 64.6172 93.4609 64.4245 93.6484 64.1797C93.8359 63.9297 93.9427 63.6458 93.9688 63.3281H95.3438C95.3177 63.8281 95.1484 64.2943 94.8359 64.7266C94.5286 65.1536 94.125 65.5 93.625 65.7656C93.125 66.026 92.5755 66.1562 91.9766 66.1562C91.3411 66.1562 90.7865 66.0443 90.3125 65.8203C89.8438 65.5964 89.4531 65.2891 89.1406 64.8984C88.8333 64.5078 88.6016 64.0599 88.4453 63.5547C88.2943 63.0443 88.2188 62.5052 88.2188 61.9375V61.6094C88.2188 61.0417 88.2943 60.5052 88.4453 60C88.6016 59.4896 88.8333 59.0391 89.1406 58.6484C89.4531 58.2578 89.8438 57.9505 90.3125 57.7266C90.7865 57.5026 91.3411 57.3906 91.9766 57.3906C92.638 57.3906 93.2161 57.526 93.7109 57.7969C94.2057 58.0625 94.5938 58.4271 94.875 58.8906C95.1615 59.349 95.3177 59.8698 95.3438 60.4531H93.9688C93.9427 60.1042 93.8438 59.7891 93.6719 59.5078C93.5052 59.2266 93.276 59.0026 92.9844 58.8359C92.6979 58.6641 92.362 58.5781 91.9766 58.5781C91.5339 58.5781 91.1615 58.6667 90.8594 58.8438C90.5625 59.0156 90.3255 59.25 90.1484 59.5469C89.9766 59.8385 89.8516 60.1641 89.7734 60.5234C89.7005 60.8776 89.6641 61.2396 89.6641 61.6094V61.9375C89.6641 62.3073 89.7005 62.6719 89.7734 63.0312C89.8464 63.3906 89.9688 63.7161 90.1406 64.0078C90.3177 64.2995 90.5547 64.5339 90.8516 64.7109C91.1536 64.8828 91.5286 64.9688 91.9766 64.9688ZM96.5859 61.8672V61.6875C96.5859 61.0781 96.6745 60.513 96.8516 59.9922C97.0286 59.4661 97.2839 59.0104 97.6172 58.625C97.9505 58.2344 98.3542 57.9323 98.8281 57.7188C99.3021 57.5 99.8333 57.3906 100.422 57.3906C101.016 57.3906 101.549 57.5 102.023 57.7188C102.503 57.9323 102.909 58.2344 103.242 58.625C103.581 59.0104 103.839 59.4661 104.016 59.9922C104.193 60.513 104.281 61.0781 104.281 61.6875V61.8672C104.281 62.4766 104.193 63.0417 104.016 63.5625C103.839 64.0833 103.581 64.5391 103.242 64.9297C102.909 65.3151 102.505 65.6172 102.031 65.8359C101.562 66.0495 101.031 66.1562 100.438 66.1562C99.8438 66.1562 99.3099 66.0495 98.8359 65.8359C98.362 65.6172 97.9557 65.3151 97.6172 64.9297C97.2839 64.5391 97.0286 64.0833 96.8516 63.5625C96.6745 63.0417 96.5859 62.4766 96.5859 61.8672ZM98.0312 61.6875V61.8672C98.0312 62.2891 98.0807 62.6875 98.1797 63.0625C98.2786 63.4323 98.4271 63.7604 98.625 64.0469C98.8281 64.3333 99.0807 64.5599 99.3828 64.7266C99.6849 64.888 100.036 64.9688 100.438 64.9688C100.833 64.9688 101.18 64.888 101.477 64.7266C101.779 64.5599 102.029 64.3333 102.227 64.0469C102.424 63.7604 102.573 63.4323 102.672 63.0625C102.776 62.6875 102.828 62.2891 102.828 61.8672V61.6875C102.828 61.2708 102.776 60.8776 102.672 60.5078C102.573 60.1328 102.422 59.8021 102.219 59.5156C102.021 59.224 101.771 58.9948 101.469 58.8281C101.172 58.6615 100.823 58.5781 100.422 58.5781C100.026 58.5781 99.6771 58.6615 99.375 58.8281C99.0781 58.9948 98.8281 59.224 98.625 59.5156C98.4271 59.8021 98.2786 60.1328 98.1797 60.5078C98.0807 60.8776 98.0312 61.2708 98.0312 61.6875ZM107.531 59.2266V66H106.078V57.5469H107.453L107.531 59.2266ZM107.234 61.4531L106.562 61.4297C106.568 60.8516 106.643 60.3177 106.789 59.8281C106.935 59.3333 107.151 58.9036 107.438 58.5391C107.724 58.1745 108.081 57.8932 108.508 57.6953C108.935 57.4922 109.43 57.3906 109.992 57.3906C110.388 57.3906 110.753 57.4479 111.086 57.5625C111.419 57.6719 111.708 57.8464 111.953 58.0859C112.198 58.3255 112.388 58.6328 112.523 59.0078C112.659 59.3828 112.727 59.8359 112.727 60.3672V66H111.281V60.4375C111.281 59.9948 111.206 59.6406 111.055 59.375C110.909 59.1094 110.701 58.9167 110.43 58.7969C110.159 58.6719 109.841 58.6094 109.477 58.6094C109.049 58.6094 108.693 58.6849 108.406 58.8359C108.12 58.987 107.891 59.1953 107.719 59.4609C107.547 59.7266 107.422 60.0312 107.344 60.375C107.271 60.7135 107.234 61.0729 107.234 61.4531ZM112.711 60.6562L111.742 60.9531C111.747 60.4896 111.823 60.0443 111.969 59.6172C112.12 59.1901 112.336 58.8099 112.617 58.4766C112.904 58.1432 113.255 57.8802 113.672 57.6875C114.089 57.4896 114.565 57.3906 115.102 57.3906C115.555 57.3906 115.956 57.4505 116.305 57.5703C116.659 57.6901 116.956 57.875 117.195 58.125C117.44 58.3698 117.625 58.6849 117.75 59.0703C117.875 59.4557 117.938 59.9141 117.938 60.4453V66H116.484V60.4297C116.484 59.9557 116.409 59.5885 116.258 59.3281C116.112 59.0625 115.904 58.8776 115.633 58.7734C115.367 58.6641 115.049 58.6094 114.68 58.6094C114.362 58.6094 114.081 58.6641 113.836 58.7734C113.591 58.8828 113.385 59.0339 113.219 59.2266C113.052 59.4141 112.924 59.6302 112.836 59.875C112.753 60.1198 112.711 60.3802 112.711 60.6562ZM121.562 59.2266V66H120.109V57.5469H121.484L121.562 59.2266ZM121.266 61.4531L120.594 61.4297C120.599 60.8516 120.674 60.3177 120.82 59.8281C120.966 59.3333 121.182 58.9036 121.469 58.5391C121.755 58.1745 122.112 57.8932 122.539 57.6953C122.966 57.4922 123.461 57.3906 124.023 57.3906C124.419 57.3906 124.784 57.4479 125.117 57.5625C125.451 57.6719 125.74 57.8464 125.984 58.0859C126.229 58.3255 126.419 58.6328 126.555 59.0078C126.69 59.3828 126.758 59.8359 126.758 60.3672V66H125.312V60.4375C125.312 59.9948 125.237 59.6406 125.086 59.375C124.94 59.1094 124.732 58.9167 124.461 58.7969C124.19 58.6719 123.872 58.6094 123.508 58.6094C123.081 58.6094 122.724 58.6849 122.438 58.8359C122.151 58.987 121.922 59.1953 121.75 59.4609C121.578 59.7266 121.453 60.0312 121.375 60.375C121.302 60.7135 121.266 61.0729 121.266 61.4531ZM126.742 60.6562L125.773 60.9531C125.779 60.4896 125.854 60.0443 126 59.6172C126.151 59.1901 126.367 58.8099 126.648 58.4766C126.935 58.1432 127.286 57.8802 127.703 57.6875C128.12 57.4896 128.596 57.3906 129.133 57.3906C129.586 57.3906 129.987 57.4505 130.336 57.5703C130.69 57.6901 130.987 57.875 131.227 58.125C131.471 58.3698 131.656 58.6849 131.781 59.0703C131.906 59.4557 131.969 59.9141 131.969 60.4453V66H130.516V60.4297C130.516 59.9557 130.44 59.5885 130.289 59.3281C130.143 59.0625 129.935 58.8776 129.664 58.7734C129.398 58.6641 129.081 58.6094 128.711 58.6094C128.393 58.6094 128.112 58.6641 127.867 58.7734C127.622 58.8828 127.417 59.0339 127.25 59.2266C127.083 59.4141 126.956 59.6302 126.867 59.875C126.784 60.1198 126.742 60.3802 126.742 60.6562ZM139.328 64.0469V57.5469H140.781V66H139.398L139.328 64.0469ZM139.602 62.2656L140.203 62.25C140.203 62.8125 140.143 63.3333 140.023 63.8125C139.909 64.2865 139.721 64.6979 139.461 65.0469C139.201 65.3958 138.859 65.6693 138.438 65.8672C138.016 66.0599 137.503 66.1562 136.898 66.1562C136.487 66.1562 136.109 66.0964 135.766 65.9766C135.427 65.8568 135.135 65.6719 134.891 65.4219C134.646 65.1719 134.456 64.8464 134.32 64.4453C134.19 64.0443 134.125 63.5625 134.125 63V57.5469H135.57V63.0156C135.57 63.3958 135.612 63.7109 135.695 63.9609C135.784 64.2057 135.901 64.401 136.047 64.5469C136.198 64.6875 136.365 64.7865 136.547 64.8438C136.734 64.901 136.927 64.9297 137.125 64.9297C137.74 64.9297 138.227 64.8125 138.586 64.5781C138.945 64.3385 139.203 64.0182 139.359 63.6172C139.521 63.2109 139.602 62.7604 139.602 62.2656ZM144.43 59.3516V66H142.984V57.5469H144.352L144.43 59.3516ZM144.086 61.4531L143.484 61.4297C143.49 60.8516 143.576 60.3177 143.742 59.8281C143.909 59.3333 144.143 58.9036 144.445 58.5391C144.747 58.1745 145.107 57.8932 145.523 57.6953C145.945 57.4922 146.411 57.3906 146.922 57.3906C147.339 57.3906 147.714 57.4479 148.047 57.5625C148.38 57.6719 148.664 57.849 148.898 58.0938C149.138 58.3385 149.32 58.6562 149.445 59.0469C149.57 59.4323 149.633 59.9036 149.633 60.4609V66H148.18V60.4453C148.18 60.0026 148.115 59.6484 147.984 59.3828C147.854 59.112 147.664 58.9167 147.414 58.7969C147.164 58.6719 146.857 58.6094 146.492 58.6094C146.133 58.6094 145.805 58.6849 145.508 58.8359C145.216 58.987 144.964 59.1953 144.75 59.4609C144.542 59.7266 144.378 60.0312 144.258 60.375C144.143 60.7135 144.086 61.0729 144.086 61.4531ZM153.398 57.5469V66H151.945V57.5469H153.398ZM151.836 55.3047C151.836 55.0703 151.906 54.8724 152.047 54.7109C152.193 54.5495 152.406 54.4688 152.688 54.4688C152.964 54.4688 153.174 54.5495 153.32 54.7109C153.471 54.8724 153.547 55.0703 153.547 55.3047C153.547 55.5286 153.471 55.7214 153.32 55.8828C153.174 56.0391 152.964 56.1172 152.688 56.1172C152.406 56.1172 152.193 56.0391 152.047 55.8828C151.906 55.7214 151.836 55.5286 151.836 55.3047ZM159.102 64.9688C159.445 64.9688 159.763 64.8984 160.055 64.7578C160.346 64.6172 160.586 64.4245 160.773 64.1797C160.961 63.9297 161.068 63.6458 161.094 63.3281H162.469C162.443 63.8281 162.273 64.2943 161.961 64.7266C161.654 65.1536 161.25 65.5 160.75 65.7656C160.25 66.026 159.701 66.1562 159.102 66.1562C158.466 66.1562 157.911 66.0443 157.438 65.8203C156.969 65.5964 156.578 65.2891 156.266 64.8984C155.958 64.5078 155.727 64.0599 155.57 63.5547C155.419 63.0443 155.344 62.5052 155.344 61.9375V61.6094C155.344 61.0417 155.419 60.5052 155.57 60C155.727 59.4896 155.958 59.0391 156.266 58.6484C156.578 58.2578 156.969 57.9505 157.438 57.7266C157.911 57.5026 158.466 57.3906 159.102 57.3906C159.763 57.3906 160.341 57.526 160.836 57.7969C161.331 58.0625 161.719 58.4271 162 58.8906C162.286 59.349 162.443 59.8698 162.469 60.4531H161.094C161.068 60.1042 160.969 59.7891 160.797 59.5078C160.63 59.2266 160.401 59.0026 160.109 58.8359C159.823 58.6641 159.487 58.5781 159.102 58.5781C158.659 58.5781 158.286 58.6667 157.984 58.8438C157.688 59.0156 157.451 59.25 157.273 59.5469C157.102 59.8385 156.977 60.1641 156.898 60.5234C156.826 60.8776 156.789 61.2396 156.789 61.6094V61.9375C156.789 62.3073 156.826 62.6719 156.898 63.0312C156.971 63.3906 157.094 63.7161 157.266 64.0078C157.443 64.2995 157.68 64.5339 157.977 64.7109C158.279 64.8828 158.654 64.9688 159.102 64.9688ZM169.078 64.5547V60.2031C169.078 59.8698 169.01 59.5807 168.875 59.3359C168.745 59.0859 168.547 58.8932 168.281 58.7578C168.016 58.6224 167.688 58.5547 167.297 58.5547C166.932 58.5547 166.612 58.6172 166.336 58.7422C166.065 58.8672 165.852 59.0312 165.695 59.2344C165.544 59.4375 165.469 59.6562 165.469 59.8906H164.023C164.023 59.5885 164.102 59.2891 164.258 58.9922C164.414 58.6953 164.638 58.4271 164.93 58.1875C165.227 57.9427 165.581 57.75 165.992 57.6094C166.409 57.4635 166.872 57.3906 167.383 57.3906C167.997 57.3906 168.539 57.4948 169.008 57.7031C169.482 57.9115 169.852 58.2266 170.117 58.6484C170.388 59.0651 170.523 59.5885 170.523 60.2188V64.1562C170.523 64.4375 170.547 64.737 170.594 65.0547C170.646 65.3724 170.721 65.6458 170.82 65.875V66H169.312C169.24 65.8333 169.182 65.612 169.141 65.3359C169.099 65.0547 169.078 64.7943 169.078 64.5547ZM169.328 60.875L169.344 61.8906H167.883C167.471 61.8906 167.104 61.9245 166.781 61.9922C166.458 62.0547 166.188 62.151 165.969 62.2812C165.75 62.4115 165.583 62.5755 165.469 62.7734C165.354 62.9661 165.297 63.1927 165.297 63.4531C165.297 63.7188 165.357 63.9609 165.477 64.1797C165.596 64.3984 165.776 64.5729 166.016 64.7031C166.26 64.8281 166.56 64.8906 166.914 64.8906C167.357 64.8906 167.747 64.7969 168.086 64.6094C168.424 64.4219 168.693 64.1927 168.891 63.9219C169.094 63.651 169.203 63.388 169.219 63.1328L169.836 63.8281C169.799 64.0469 169.701 64.2891 169.539 64.5547C169.378 64.8203 169.161 65.0755 168.891 65.3203C168.625 65.5599 168.307 65.7604 167.938 65.9219C167.573 66.0781 167.161 66.1562 166.703 66.1562C166.13 66.1562 165.628 66.0443 165.195 65.8203C164.768 65.5964 164.435 65.2969 164.195 64.9219C163.961 64.5417 163.844 64.1172 163.844 63.6484C163.844 63.1953 163.932 62.7969 164.109 62.4531C164.286 62.1042 164.542 61.8151 164.875 61.5859C165.208 61.3516 165.609 61.1745 166.078 61.0547C166.547 60.9349 167.07 60.875 167.648 60.875H169.328ZM176.336 57.5469V58.6562H171.766V57.5469H176.336ZM173.312 55.4922H174.758V63.9062C174.758 64.1927 174.802 64.4089 174.891 64.5547C174.979 64.7005 175.094 64.7969 175.234 64.8438C175.375 64.8906 175.526 64.9141 175.688 64.9141C175.807 64.9141 175.932 64.9036 176.062 64.8828C176.198 64.8568 176.299 64.8359 176.367 64.8203L176.375 66C176.26 66.0365 176.109 66.0703 175.922 66.1016C175.74 66.138 175.518 66.1562 175.258 66.1562C174.904 66.1562 174.578 66.0859 174.281 65.9453C173.984 65.8047 173.747 65.5703 173.57 65.2422C173.398 64.9089 173.312 64.4609 173.312 63.8984V55.4922ZM179.602 57.5469V66H178.148V57.5469H179.602ZM178.039 55.3047C178.039 55.0703 178.109 54.8724 178.25 54.7109C178.396 54.5495 178.609 54.4688 178.891 54.4688C179.167 54.4688 179.378 54.5495 179.523 54.7109C179.674 54.8724 179.75 55.0703 179.75 55.3047C179.75 55.5286 179.674 55.7214 179.523 55.8828C179.378 56.0391 179.167 56.1172 178.891 56.1172C178.609 56.1172 178.396 56.0391 178.25 55.8828C178.109 55.7214 178.039 55.5286 178.039 55.3047ZM181.539 61.8672V61.6875C181.539 61.0781 181.628 60.513 181.805 59.9922C181.982 59.4661 182.237 59.0104 182.57 58.625C182.904 58.2344 183.307 57.9323 183.781 57.7188C184.255 57.5 184.786 57.3906 185.375 57.3906C185.969 57.3906 186.503 57.5 186.977 57.7188C187.456 57.9323 187.862 58.2344 188.195 58.625C188.534 59.0104 188.792 59.4661 188.969 59.9922C189.146 60.513 189.234 61.0781 189.234 61.6875V61.8672C189.234 62.4766 189.146 63.0417 188.969 63.5625C188.792 64.0833 188.534 64.5391 188.195 64.9297C187.862 65.3151 187.458 65.6172 186.984 65.8359C186.516 66.0495 185.984 66.1562 185.391 66.1562C184.797 66.1562 184.263 66.0495 183.789 65.8359C183.315 65.6172 182.909 65.3151 182.57 64.9297C182.237 64.5391 181.982 64.0833 181.805 63.5625C181.628 63.0417 181.539 62.4766 181.539 61.8672ZM182.984 61.6875V61.8672C182.984 62.2891 183.034 62.6875 183.133 63.0625C183.232 63.4323 183.38 63.7604 183.578 64.0469C183.781 64.3333 184.034 64.5599 184.336 64.7266C184.638 64.888 184.99 64.9688 185.391 64.9688C185.786 64.9688 186.133 64.888 186.43 64.7266C186.732 64.5599 186.982 64.3333 187.18 64.0469C187.378 63.7604 187.526 63.4323 187.625 63.0625C187.729 62.6875 187.781 62.2891 187.781 61.8672V61.6875C187.781 61.2708 187.729 60.8776 187.625 60.5078C187.526 60.1328 187.375 59.8021 187.172 59.5156C186.974 59.224 186.724 58.9948 186.422 58.8281C186.125 58.6615 185.776 58.5781 185.375 58.5781C184.979 58.5781 184.63 58.6615 184.328 58.8281C184.031 58.9948 183.781 59.224 183.578 59.5156C183.38 59.8021 183.232 60.1328 183.133 60.5078C183.034 60.8776 182.984 61.2708 182.984 61.6875ZM192.492 59.3516V66H191.047V57.5469H192.414L192.492 59.3516ZM192.148 61.4531L191.547 61.4297C191.552 60.8516 191.638 60.3177 191.805 59.8281C191.971 59.3333 192.206 58.9036 192.508 58.5391C192.81 58.1745 193.169 57.8932 193.586 57.6953C194.008 57.4922 194.474 57.3906 194.984 57.3906C195.401 57.3906 195.776 57.4479 196.109 57.5625C196.443 57.6719 196.727 57.849 196.961 58.0938C197.201 58.3385 197.383 58.6562 197.508 59.0469C197.633 59.4323 197.695 59.9036 197.695 60.4609V66H196.242V60.4453C196.242 60.0026 196.177 59.6484 196.047 59.3828C195.917 59.112 195.727 58.9167 195.477 58.7969C195.227 58.6719 194.919 58.6094 194.555 58.6094C194.195 58.6094 193.867 58.6849 193.57 58.8359C193.279 58.987 193.026 59.1953 192.812 59.4609C192.604 59.7266 192.44 60.0312 192.32 60.375C192.206 60.7135 192.148 61.0729 192.148 61.4531ZM206 64.5L208.172 57.5469H209.125L208.938 58.9297L206.727 66H205.797L206 64.5ZM204.539 57.5469L206.391 64.5781L206.523 66H205.547L203.094 57.5469H204.539ZM211.203 64.5234L212.969 57.5469H214.406L211.953 66H210.984L211.203 64.5234ZM209.336 57.5469L211.461 64.3828L211.703 66H210.781L208.508 58.9141L208.32 57.5469H209.336ZM217.461 57.5469V66H216.008V57.5469H217.461ZM215.898 55.3047C215.898 55.0703 215.969 54.8724 216.109 54.7109C216.255 54.5495 216.469 54.4688 216.75 54.4688C217.026 54.4688 217.237 54.5495 217.383 54.7109C217.534 54.8724 217.609 55.0703 217.609 55.3047C217.609 55.5286 217.534 55.7214 217.383 55.8828C217.237 56.0391 217.026 56.1172 216.75 56.1172C216.469 56.1172 216.255 56.0391 216.109 55.8828C215.969 55.7214 215.898 55.5286 215.898 55.3047ZM223.32 57.5469V58.6562H218.75V57.5469H223.32ZM220.297 55.4922H221.742V63.9062C221.742 64.1927 221.786 64.4089 221.875 64.5547C221.964 64.7005 222.078 64.7969 222.219 64.8438C222.359 64.8906 222.51 64.9141 222.672 64.9141C222.792 64.9141 222.917 64.9036 223.047 64.8828C223.182 64.8568 223.284 64.8359 223.352 64.8203L223.359 66C223.245 66.0365 223.094 66.0703 222.906 66.1016C222.724 66.138 222.503 66.1562 222.242 66.1562C221.888 66.1562 221.562 66.0859 221.266 65.9453C220.969 65.8047 220.732 65.5703 220.555 65.2422C220.383 64.9089 220.297 64.4609 220.297 63.8984V55.4922ZM226.461 54V66H225.016V54H226.461ZM226.117 61.4531L225.516 61.4297C225.521 60.8516 225.607 60.3177 225.773 59.8281C225.94 59.3333 226.174 58.9036 226.477 58.5391C226.779 58.1745 227.138 57.8932 227.555 57.6953C227.977 57.4922 228.443 57.3906 228.953 57.3906C229.37 57.3906 229.745 57.4479 230.078 57.5625C230.411 57.6719 230.695 57.849 230.93 58.0938C231.169 58.3385 231.352 58.6562 231.477 59.0469C231.602 59.4323 231.664 59.9036 231.664 60.4609V66H230.211V60.4453C230.211 60.0026 230.146 59.6484 230.016 59.3828C229.885 59.112 229.695 58.9167 229.445 58.7969C229.195 58.6719 228.888 58.6094 228.523 58.6094C228.164 58.6094 227.836 58.6849 227.539 58.8359C227.247 58.987 226.995 59.1953 226.781 59.4609C226.573 59.7266 226.409 60.0312 226.289 60.375C226.174 60.7135 226.117 61.0729 226.117 61.4531ZM62.0703 85.3594V75H63.5234V87H62.1953L62.0703 85.3594ZM56.3828 82.8672V82.7031C56.3828 82.0573 56.4609 81.4714 56.6172 80.9453C56.7786 80.4141 57.0052 79.9583 57.2969 79.5781C57.5938 79.1979 57.9453 78.9062 58.3516 78.7031C58.763 78.4948 59.2214 78.3906 59.7266 78.3906C60.2578 78.3906 60.7214 78.4844 61.1172 78.6719C61.5182 78.8542 61.8568 79.1224 62.1328 79.4766C62.4141 79.8255 62.6354 80.2474 62.7969 80.7422C62.9583 81.237 63.0703 81.7969 63.1328 82.4219V83.1406C63.0755 83.7604 62.9635 84.3177 62.7969 84.8125C62.6354 85.3073 62.4141 85.7292 62.1328 86.0781C61.8568 86.4271 61.5182 86.6953 61.1172 86.8828C60.7161 87.0651 60.2474 87.1562 59.7109 87.1562C59.2161 87.1562 58.763 87.0495 58.3516 86.8359C57.9453 86.6224 57.5938 86.3229 57.2969 85.9375C57.0052 85.5521 56.7786 85.099 56.6172 84.5781C56.4609 84.0521 56.3828 83.4818 56.3828 82.8672ZM57.8359 82.7031V82.8672C57.8359 83.2891 57.8776 83.6849 57.9609 84.0547C58.0495 84.4245 58.1849 84.75 58.3672 85.0312C58.5495 85.3125 58.7812 85.5339 59.0625 85.6953C59.3438 85.8516 59.6797 85.9297 60.0703 85.9297C60.5495 85.9297 60.9427 85.8281 61.25 85.625C61.5625 85.4219 61.8125 85.1536 62 84.8203C62.1875 84.487 62.3333 84.125 62.4375 83.7344V81.8516C62.375 81.5651 62.2839 81.2891 62.1641 81.0234C62.0495 80.7526 61.8984 80.513 61.7109 80.3047C61.5286 80.0911 61.3021 79.9219 61.0312 79.7969C60.7656 79.6719 60.4505 79.6094 60.0859 79.6094C59.6901 79.6094 59.349 79.6927 59.0625 79.8594C58.7812 80.0208 58.5495 80.2448 58.3672 80.5312C58.1849 80.8125 58.0495 81.1406 57.9609 81.5156C57.8776 81.8854 57.8359 82.2812 57.8359 82.7031ZM69.2812 87.1562C68.6927 87.1562 68.1589 87.0573 67.6797 86.8594C67.2057 86.6562 66.7969 86.3724 66.4531 86.0078C66.1146 85.6432 65.8542 85.2109 65.6719 84.7109C65.4896 84.2109 65.3984 83.6641 65.3984 83.0703V82.7422C65.3984 82.0547 65.5 81.4427 65.7031 80.9062C65.9062 80.3646 66.1823 79.9062 66.5312 79.5312C66.8802 79.1562 67.276 78.8724 67.7188 78.6797C68.1615 78.487 68.6198 78.3906 69.0938 78.3906C69.6979 78.3906 70.2188 78.4948 70.6562 78.7031C71.099 78.9115 71.4609 79.2031 71.7422 79.5781C72.0234 79.9479 72.2318 80.3854 72.3672 80.8906C72.5026 81.3906 72.5703 81.9375 72.5703 82.5312V83.1797H66.2578V82H71.125V81.8906C71.1042 81.5156 71.026 81.151 70.8906 80.7969C70.7604 80.4427 70.5521 80.151 70.2656 79.9219C69.9792 79.6927 69.5885 79.5781 69.0938 79.5781C68.7656 79.5781 68.4635 79.6484 68.1875 79.7891C67.9115 79.9245 67.6745 80.1276 67.4766 80.3984C67.2786 80.6693 67.125 81 67.0156 81.3906C66.9062 81.7812 66.8516 82.2318 66.8516 82.7422V83.0703C66.8516 83.4714 66.9062 83.849 67.0156 84.2031C67.1302 84.5521 67.2943 84.8594 67.5078 85.125C67.7266 85.3906 67.9896 85.599 68.2969 85.75C68.6094 85.901 68.9635 85.9766 69.3594 85.9766C69.8698 85.9766 70.3021 85.8724 70.6562 85.6641C71.0104 85.4557 71.3203 85.1771 71.5859 84.8281L72.4609 85.5234C72.2786 85.7995 72.0469 86.0625 71.7656 86.3125C71.4844 86.5625 71.138 86.7656 70.7266 86.9219C70.3203 87.0781 69.8385 87.1562 69.2812 87.1562ZM77.7969 78.5469V79.6562H73.2266V78.5469H77.7969ZM74.7734 76.4922H76.2188V84.9062C76.2188 85.1927 76.263 85.4089 76.3516 85.5547C76.4401 85.7005 76.5547 85.7969 76.6953 85.8438C76.8359 85.8906 76.987 85.9141 77.1484 85.9141C77.2682 85.9141 77.3932 85.9036 77.5234 85.8828C77.6589 85.8568 77.7604 85.8359 77.8281 85.8203L77.8359 87C77.7214 87.0365 77.5703 87.0703 77.3828 87.1016C77.2005 87.138 76.9792 87.1562 76.7188 87.1562C76.3646 87.1562 76.0391 87.0859 75.7422 86.9453C75.4453 86.8047 75.2083 86.5703 75.0312 86.2422C74.8594 85.9089 74.7734 85.4609 74.7734 84.8984V76.4922ZM84.4766 85.5547V81.2031C84.4766 80.8698 84.4089 80.5807 84.2734 80.3359C84.1432 80.0859 83.9453 79.8932 83.6797 79.7578C83.4141 79.6224 83.0859 79.5547 82.6953 79.5547C82.3307 79.5547 82.0104 79.6172 81.7344 79.7422C81.4635 79.8672 81.25 80.0312 81.0938 80.2344C80.9427 80.4375 80.8672 80.6562 80.8672 80.8906H79.4219C79.4219 80.5885 79.5 80.2891 79.6562 79.9922C79.8125 79.6953 80.0365 79.4271 80.3281 79.1875C80.625 78.9427 80.9792 78.75 81.3906 78.6094C81.8073 78.4635 82.2708 78.3906 82.7812 78.3906C83.3958 78.3906 83.9375 78.4948 84.4062 78.7031C84.8802 78.9115 85.25 79.2266 85.5156 79.6484C85.7865 80.0651 85.9219 80.5885 85.9219 81.2188V85.1562C85.9219 85.4375 85.9453 85.737 85.9922 86.0547C86.0443 86.3724 86.1198 86.6458 86.2188 86.875V87H84.7109C84.638 86.8333 84.5807 86.612 84.5391 86.3359C84.4974 86.0547 84.4766 85.7943 84.4766 85.5547ZM84.7266 81.875L84.7422 82.8906H83.2812C82.8698 82.8906 82.5026 82.9245 82.1797 82.9922C81.8568 83.0547 81.5859 83.151 81.3672 83.2812C81.1484 83.4115 80.9818 83.5755 80.8672 83.7734C80.7526 83.9661 80.6953 84.1927 80.6953 84.4531C80.6953 84.7188 80.7552 84.9609 80.875 85.1797C80.9948 85.3984 81.1745 85.5729 81.4141 85.7031C81.6589 85.8281 81.9583 85.8906 82.3125 85.8906C82.7552 85.8906 83.1458 85.7969 83.4844 85.6094C83.8229 85.4219 84.0911 85.1927 84.2891 84.9219C84.4922 84.651 84.6016 84.388 84.6172 84.1328L85.2344 84.8281C85.1979 85.0469 85.099 85.2891 84.9375 85.5547C84.776 85.8203 84.5599 86.0755 84.2891 86.3203C84.0234 86.5599 83.7057 86.7604 83.3359 86.9219C82.9714 87.0781 82.5599 87.1562 82.1016 87.1562C81.5286 87.1562 81.026 87.0443 80.5938 86.8203C80.1667 86.5964 79.8333 86.2969 79.5938 85.9219C79.3594 85.5417 79.2422 85.1172 79.2422 84.6484C79.2422 84.1953 79.3307 83.7969 79.5078 83.4531C79.6849 83.1042 79.9401 82.8151 80.2734 82.5859C80.6068 82.3516 81.0078 82.1745 81.4766 82.0547C81.9453 81.9349 82.4688 81.875 83.0469 81.875H84.7266ZM89.7656 78.5469V87H88.3125V78.5469H89.7656ZM88.2031 76.3047C88.2031 76.0703 88.2734 75.8724 88.4141 75.7109C88.5599 75.5495 88.7734 75.4688 89.0547 75.4688C89.3307 75.4688 89.5417 75.5495 89.6875 75.7109C89.8385 75.8724 89.9141 76.0703 89.9141 76.3047C89.9141 76.5286 89.8385 76.7214 89.6875 76.8828C89.5417 77.0391 89.3307 77.1172 89.0547 77.1172C88.7734 77.1172 88.5599 77.0391 88.4141 76.8828C88.2734 76.7214 88.2031 76.5286 88.2031 76.3047ZM93.6562 75V87H92.2031V75H93.6562ZM99.4844 87.1562C98.8958 87.1562 98.362 87.0573 97.8828 86.8594C97.4089 86.6562 97 86.3724 96.6562 86.0078C96.3177 85.6432 96.0573 85.2109 95.875 84.7109C95.6927 84.2109 95.6016 83.6641 95.6016 83.0703V82.7422C95.6016 82.0547 95.7031 81.4427 95.9062 80.9062C96.1094 80.3646 96.3854 79.9062 96.7344 79.5312C97.0833 79.1562 97.4792 78.8724 97.9219 78.6797C98.3646 78.487 98.8229 78.3906 99.2969 78.3906C99.901 78.3906 100.422 78.4948 100.859 78.7031C101.302 78.9115 101.664 79.2031 101.945 79.5781C102.227 79.9479 102.435 80.3854 102.57 80.8906C102.706 81.3906 102.773 81.9375 102.773 82.5312V83.1797H96.4609V82H101.328V81.8906C101.307 81.5156 101.229 81.151 101.094 80.7969C100.964 80.4427 100.755 80.151 100.469 79.9219C100.182 79.6927 99.7917 79.5781 99.2969 79.5781C98.9688 79.5781 98.6667 79.6484 98.3906 79.7891C98.1146 79.9245 97.8776 80.1276 97.6797 80.3984C97.4818 80.6693 97.3281 81 97.2188 81.3906C97.1094 81.7812 97.0547 82.2318 97.0547 82.7422V83.0703C97.0547 83.4714 97.1094 83.849 97.2188 84.2031C97.3333 84.5521 97.4974 84.8594 97.7109 85.125C97.9297 85.3906 98.1927 85.599 98.5 85.75C98.8125 85.901 99.1667 85.9766 99.5625 85.9766C100.073 85.9766 100.505 85.8724 100.859 85.6641C101.214 85.4557 101.523 85.1771 101.789 84.8281L102.664 85.5234C102.482 85.7995 102.25 86.0625 101.969 86.3125C101.688 86.5625 101.341 86.7656 100.93 86.9219C100.523 87.0781 100.042 87.1562 99.4844 87.1562ZM109.789 85.3594V75H111.242V87H109.914L109.789 85.3594ZM104.102 82.8672V82.7031C104.102 82.0573 104.18 81.4714 104.336 80.9453C104.497 80.4141 104.724 79.9583 105.016 79.5781C105.312 79.1979 105.664 78.9062 106.07 78.7031C106.482 78.4948 106.94 78.3906 107.445 78.3906C107.977 78.3906 108.44 78.4844 108.836 78.6719C109.237 78.8542 109.576 79.1224 109.852 79.4766C110.133 79.8255 110.354 80.2474 110.516 80.7422C110.677 81.237 110.789 81.7969 110.852 82.4219V83.1406C110.794 83.7604 110.682 84.3177 110.516 84.8125C110.354 85.3073 110.133 85.7292 109.852 86.0781C109.576 86.4271 109.237 86.6953 108.836 86.8828C108.435 87.0651 107.966 87.1562 107.43 87.1562C106.935 87.1562 106.482 87.0495 106.07 86.8359C105.664 86.6224 105.312 86.3229 105.016 85.9375C104.724 85.5521 104.497 85.099 104.336 84.5781C104.18 84.0521 104.102 83.4818 104.102 82.8672ZM105.555 82.7031V82.8672C105.555 83.2891 105.596 83.6849 105.68 84.0547C105.768 84.4245 105.904 84.75 106.086 85.0312C106.268 85.3125 106.5 85.5339 106.781 85.6953C107.062 85.8516 107.398 85.9297 107.789 85.9297C108.268 85.9297 108.661 85.8281 108.969 85.625C109.281 85.4219 109.531 85.1536 109.719 84.8203C109.906 84.487 110.052 84.125 110.156 83.7344V81.8516C110.094 81.5651 110.003 81.2891 109.883 81.0234C109.768 80.7526 109.617 80.513 109.43 80.3047C109.247 80.0911 109.021 79.9219 108.75 79.7969C108.484 79.6719 108.169 79.6094 107.805 79.6094C107.409 79.6094 107.068 79.6927 106.781 79.8594C106.5 80.0208 106.268 80.2448 106.086 80.5312C105.904 80.8125 105.768 81.1406 105.68 81.5156C105.596 81.8854 105.555 82.2812 105.555 82.7031ZM122.383 84.7578C122.383 84.5495 122.336 84.3568 122.242 84.1797C122.154 83.9974 121.969 83.8333 121.688 83.6875C121.411 83.5365 120.995 83.4062 120.438 83.2969C119.969 83.1979 119.544 83.0807 119.164 82.9453C118.789 82.8099 118.469 82.6458 118.203 82.4531C117.943 82.2604 117.742 82.0339 117.602 81.7734C117.461 81.513 117.391 81.2083 117.391 80.8594C117.391 80.526 117.464 80.2109 117.609 79.9141C117.76 79.6172 117.971 79.3542 118.242 79.125C118.518 78.8958 118.849 78.7161 119.234 78.5859C119.62 78.4557 120.049 78.3906 120.523 78.3906C121.201 78.3906 121.779 78.5104 122.258 78.75C122.737 78.9896 123.104 79.3099 123.359 79.7109C123.615 80.1068 123.742 80.5469 123.742 81.0312H122.297C122.297 80.7969 122.227 80.5703 122.086 80.3516C121.951 80.1276 121.75 79.9427 121.484 79.7969C121.224 79.651 120.904 79.5781 120.523 79.5781C120.122 79.5781 119.797 79.6406 119.547 79.7656C119.302 79.8854 119.122 80.0391 119.008 80.2266C118.898 80.4141 118.844 80.612 118.844 80.8203C118.844 80.9766 118.87 81.1172 118.922 81.2422C118.979 81.362 119.078 81.474 119.219 81.5781C119.359 81.6771 119.557 81.7708 119.812 81.8594C120.068 81.9479 120.393 82.0365 120.789 82.125C121.482 82.2812 122.052 82.4688 122.5 82.6875C122.948 82.9062 123.281 83.1745 123.5 83.4922C123.719 83.8099 123.828 84.1953 123.828 84.6484C123.828 85.0182 123.75 85.3568 123.594 85.6641C123.443 85.9714 123.221 86.237 122.93 86.4609C122.643 86.6797 122.299 86.8516 121.898 86.9766C121.503 87.0964 121.057 87.1562 120.562 87.1562C119.818 87.1562 119.188 87.0234 118.672 86.7578C118.156 86.4922 117.766 86.1484 117.5 85.7266C117.234 85.3047 117.102 84.8594 117.102 84.3906H118.555C118.576 84.7865 118.69 85.1016 118.898 85.3359C119.107 85.5651 119.362 85.7292 119.664 85.8281C119.966 85.9219 120.266 85.9688 120.562 85.9688C120.958 85.9688 121.289 85.9167 121.555 85.8125C121.826 85.7083 122.031 85.5651 122.172 85.3828C122.312 85.2005 122.383 84.9922 122.383 84.7578ZM129.109 85.9688C129.453 85.9688 129.771 85.8984 130.062 85.7578C130.354 85.6172 130.594 85.4245 130.781 85.1797C130.969 84.9297 131.076 84.6458 131.102 84.3281H132.477C132.451 84.8281 132.281 85.2943 131.969 85.7266C131.661 86.1536 131.258 86.5 130.758 86.7656C130.258 87.026 129.708 87.1562 129.109 87.1562C128.474 87.1562 127.919 87.0443 127.445 86.8203C126.977 86.5964 126.586 86.2891 126.273 85.8984C125.966 85.5078 125.734 85.0599 125.578 84.5547C125.427 84.0443 125.352 83.5052 125.352 82.9375V82.6094C125.352 82.0417 125.427 81.5052 125.578 81C125.734 80.4896 125.966 80.0391 126.273 79.6484C126.586 79.2578 126.977 78.9505 127.445 78.7266C127.919 78.5026 128.474 78.3906 129.109 78.3906C129.771 78.3906 130.349 78.526 130.844 78.7969C131.339 79.0625 131.727 79.4271 132.008 79.8906C132.294 80.349 132.451 80.8698 132.477 81.4531H131.102C131.076 81.1042 130.977 80.7891 130.805 80.5078C130.638 80.2266 130.409 80.0026 130.117 79.8359C129.831 79.6641 129.495 79.5781 129.109 79.5781C128.667 79.5781 128.294 79.6667 127.992 79.8438C127.695 80.0156 127.458 80.25 127.281 80.5469C127.109 80.8385 126.984 81.1641 126.906 81.5234C126.833 81.8776 126.797 82.2396 126.797 82.6094V82.9375C126.797 83.3073 126.833 83.6719 126.906 84.0312C126.979 84.3906 127.102 84.7161 127.273 85.0078C127.451 85.2995 127.688 85.5339 127.984 85.7109C128.286 85.8828 128.661 85.9688 129.109 85.9688ZM135.547 79.875V87H134.102V78.5469H135.508L135.547 79.875ZM138.188 78.5L138.18 79.8438C138.06 79.8177 137.945 79.8021 137.836 79.7969C137.732 79.7865 137.612 79.7812 137.477 79.7812C137.143 79.7812 136.849 79.8333 136.594 79.9375C136.339 80.0417 136.122 80.1875 135.945 80.375C135.768 80.5625 135.628 80.7865 135.523 81.0469C135.424 81.3021 135.359 81.5833 135.328 81.8906L134.922 82.125C134.922 81.6146 134.971 81.1354 135.07 80.6875C135.174 80.2396 135.333 79.8438 135.547 79.5C135.76 79.151 136.031 78.8802 136.359 78.6875C136.693 78.4896 137.089 78.3906 137.547 78.3906C137.651 78.3906 137.771 78.4036 137.906 78.4297C138.042 78.4505 138.135 78.474 138.188 78.5ZM142.875 87.1562C142.286 87.1562 141.753 87.0573 141.273 86.8594C140.799 86.6562 140.391 86.3724 140.047 86.0078C139.708 85.6432 139.448 85.2109 139.266 84.7109C139.083 84.2109 138.992 83.6641 138.992 83.0703V82.7422C138.992 82.0547 139.094 81.4427 139.297 80.9062C139.5 80.3646 139.776 79.9062 140.125 79.5312C140.474 79.1562 140.87 78.8724 141.312 78.6797C141.755 78.487 142.214 78.3906 142.688 78.3906C143.292 78.3906 143.812 78.4948 144.25 78.7031C144.693 78.9115 145.055 79.2031 145.336 79.5781C145.617 79.9479 145.826 80.3854 145.961 80.8906C146.096 81.3906 146.164 81.9375 146.164 82.5312V83.1797H139.852V82H144.719V81.8906C144.698 81.5156 144.62 81.151 144.484 80.7969C144.354 80.4427 144.146 80.151 143.859 79.9219C143.573 79.6927 143.182 79.5781 142.688 79.5781C142.359 79.5781 142.057 79.6484 141.781 79.7891C141.505 79.9245 141.268 80.1276 141.07 80.3984C140.872 80.6693 140.719 81 140.609 81.3906C140.5 81.7812 140.445 82.2318 140.445 82.7422V83.0703C140.445 83.4714 140.5 83.849 140.609 84.2031C140.724 84.5521 140.888 84.8594 141.102 85.125C141.32 85.3906 141.583 85.599 141.891 85.75C142.203 85.901 142.557 85.9766 142.953 85.9766C143.464 85.9766 143.896 85.8724 144.25 85.6641C144.604 85.4557 144.914 85.1771 145.18 84.8281L146.055 85.5234C145.872 85.7995 145.641 86.0625 145.359 86.3125C145.078 86.5625 144.732 86.7656 144.32 86.9219C143.914 87.0781 143.432 87.1562 142.875 87.1562ZM151.359 87.1562C150.771 87.1562 150.237 87.0573 149.758 86.8594C149.284 86.6562 148.875 86.3724 148.531 86.0078C148.193 85.6432 147.932 85.2109 147.75 84.7109C147.568 84.2109 147.477 83.6641 147.477 83.0703V82.7422C147.477 82.0547 147.578 81.4427 147.781 80.9062C147.984 80.3646 148.26 79.9062 148.609 79.5312C148.958 79.1562 149.354 78.8724 149.797 78.6797C150.24 78.487 150.698 78.3906 151.172 78.3906C151.776 78.3906 152.297 78.4948 152.734 78.7031C153.177 78.9115 153.539 79.2031 153.82 79.5781C154.102 79.9479 154.31 80.3854 154.445 80.8906C154.581 81.3906 154.648 81.9375 154.648 82.5312V83.1797H148.336V82H153.203V81.8906C153.182 81.5156 153.104 81.151 152.969 80.7969C152.839 80.4427 152.63 80.151 152.344 79.9219C152.057 79.6927 151.667 79.5781 151.172 79.5781C150.844 79.5781 150.542 79.6484 150.266 79.7891C149.99 79.9245 149.753 80.1276 149.555 80.3984C149.357 80.6693 149.203 81 149.094 81.3906C148.984 81.7812 148.93 82.2318 148.93 82.7422V83.0703C148.93 83.4714 148.984 83.849 149.094 84.2031C149.208 84.5521 149.372 84.8594 149.586 85.125C149.805 85.3906 150.068 85.599 150.375 85.75C150.688 85.901 151.042 85.9766 151.438 85.9766C151.948 85.9766 152.38 85.8724 152.734 85.6641C153.089 85.4557 153.398 85.1771 153.664 84.8281L154.539 85.5234C154.357 85.7995 154.125 86.0625 153.844 86.3125C153.562 86.5625 153.216 86.7656 152.805 86.9219C152.398 87.0781 151.917 87.1562 151.359 87.1562ZM157.781 80.3516V87H156.336V78.5469H157.703L157.781 80.3516ZM157.438 82.4531L156.836 82.4297C156.841 81.8516 156.927 81.3177 157.094 80.8281C157.26 80.3333 157.495 79.9036 157.797 79.5391C158.099 79.1745 158.458 78.8932 158.875 78.6953C159.297 78.4922 159.763 78.3906 160.273 78.3906C160.69 78.3906 161.065 78.4479 161.398 78.5625C161.732 78.6719 162.016 78.849 162.25 79.0938C162.49 79.3385 162.672 79.6562 162.797 80.0469C162.922 80.4323 162.984 80.9036 162.984 81.4609V87H161.531V81.4453C161.531 81.0026 161.466 80.6484 161.336 80.3828C161.206 80.112 161.016 79.9167 160.766 79.7969C160.516 79.6719 160.208 79.6094 159.844 79.6094C159.484 79.6094 159.156 79.6849 158.859 79.8359C158.568 79.987 158.315 80.1953 158.102 80.4609C157.893 80.7266 157.729 81.0312 157.609 81.375C157.495 81.7135 157.438 82.0729 157.438 82.4531ZM174.07 84.7578C174.07 84.5495 174.023 84.3568 173.93 84.1797C173.841 83.9974 173.656 83.8333 173.375 83.6875C173.099 83.5365 172.682 83.4062 172.125 83.2969C171.656 83.1979 171.232 83.0807 170.852 82.9453C170.477 82.8099 170.156 82.6458 169.891 82.4531C169.63 82.2604 169.43 82.0339 169.289 81.7734C169.148 81.513 169.078 81.2083 169.078 80.8594C169.078 80.526 169.151 80.2109 169.297 79.9141C169.448 79.6172 169.659 79.3542 169.93 79.125C170.206 78.8958 170.536 78.7161 170.922 78.5859C171.307 78.4557 171.737 78.3906 172.211 78.3906C172.888 78.3906 173.466 78.5104 173.945 78.75C174.424 78.9896 174.792 79.3099 175.047 79.7109C175.302 80.1068 175.43 80.5469 175.43 81.0312H173.984C173.984 80.7969 173.914 80.5703 173.773 80.3516C173.638 80.1276 173.438 79.9427 173.172 79.7969C172.911 79.651 172.591 79.5781 172.211 79.5781C171.81 79.5781 171.484 79.6406 171.234 79.7656C170.99 79.8854 170.81 80.0391 170.695 80.2266C170.586 80.4141 170.531 80.612 170.531 80.8203C170.531 80.9766 170.557 81.1172 170.609 81.2422C170.667 81.362 170.766 81.474 170.906 81.5781C171.047 81.6771 171.245 81.7708 171.5 81.8594C171.755 81.9479 172.081 82.0365 172.477 82.125C173.169 82.2812 173.74 82.4688 174.188 82.6875C174.635 82.9062 174.969 83.1745 175.188 83.4922C175.406 83.8099 175.516 84.1953 175.516 84.6484C175.516 85.0182 175.438 85.3568 175.281 85.6641C175.13 85.9714 174.909 86.237 174.617 86.4609C174.331 86.6797 173.987 86.8516 173.586 86.9766C173.19 87.0964 172.745 87.1562 172.25 87.1562C171.505 87.1562 170.875 87.0234 170.359 86.7578C169.844 86.4922 169.453 86.1484 169.188 85.7266C168.922 85.3047 168.789 84.8594 168.789 84.3906H170.242C170.263 84.7865 170.378 85.1016 170.586 85.3359C170.794 85.5651 171.049 85.7292 171.352 85.8281C171.654 85.9219 171.953 85.9688 172.25 85.9688C172.646 85.9688 172.977 85.9167 173.242 85.8125C173.513 85.7083 173.719 85.5651 173.859 85.3828C174 85.2005 174.07 84.9922 174.07 84.7578ZM178.859 75V87H177.414V75H178.859ZM178.516 82.4531L177.914 82.4297C177.919 81.8516 178.005 81.3177 178.172 80.8281C178.339 80.3333 178.573 79.9036 178.875 79.5391C179.177 79.1745 179.536 78.8932 179.953 78.6953C180.375 78.4922 180.841 78.3906 181.352 78.3906C181.768 78.3906 182.143 78.4479 182.477 78.5625C182.81 78.6719 183.094 78.849 183.328 79.0938C183.568 79.3385 183.75 79.6562 183.875 80.0469C184 80.4323 184.062 80.9036 184.062 81.4609V87H182.609V81.4453C182.609 81.0026 182.544 80.6484 182.414 80.3828C182.284 80.112 182.094 79.9167 181.844 79.7969C181.594 79.6719 181.286 79.6094 180.922 79.6094C180.562 79.6094 180.234 79.6849 179.938 79.8359C179.646 79.987 179.393 80.1953 179.18 80.4609C178.971 80.7266 178.807 81.0312 178.688 81.375C178.573 81.7135 178.516 82.0729 178.516 82.4531ZM185.844 82.8672V82.6875C185.844 82.0781 185.932 81.513 186.109 80.9922C186.286 80.4661 186.542 80.0104 186.875 79.625C187.208 79.2344 187.612 78.9323 188.086 78.7188C188.56 78.5 189.091 78.3906 189.68 78.3906C190.273 78.3906 190.807 78.5 191.281 78.7188C191.76 78.9323 192.167 79.2344 192.5 79.625C192.839 80.0104 193.096 80.4661 193.273 80.9922C193.451 81.513 193.539 82.0781 193.539 82.6875V82.8672C193.539 83.4766 193.451 84.0417 193.273 84.5625C193.096 85.0833 192.839 85.5391 192.5 85.9297C192.167 86.3151 191.763 86.6172 191.289 86.8359C190.82 87.0495 190.289 87.1562 189.695 87.1562C189.102 87.1562 188.568 87.0495 188.094 86.8359C187.62 86.6172 187.214 86.3151 186.875 85.9297C186.542 85.5391 186.286 85.0833 186.109 84.5625C185.932 84.0417 185.844 83.4766 185.844 82.8672ZM187.289 82.6875V82.8672C187.289 83.2891 187.339 83.6875 187.438 84.0625C187.536 84.4323 187.685 84.7604 187.883 85.0469C188.086 85.3333 188.339 85.5599 188.641 85.7266C188.943 85.888 189.294 85.9688 189.695 85.9688C190.091 85.9688 190.438 85.888 190.734 85.7266C191.036 85.5599 191.286 85.3333 191.484 85.0469C191.682 84.7604 191.831 84.4323 191.93 84.0625C192.034 83.6875 192.086 83.2891 192.086 82.8672V82.6875C192.086 82.2708 192.034 81.8776 191.93 81.5078C191.831 81.1328 191.68 80.8021 191.477 80.5156C191.279 80.224 191.029 79.9948 190.727 79.8281C190.43 79.6615 190.081 79.5781 189.68 79.5781C189.284 79.5781 188.935 79.6615 188.633 79.8281C188.336 79.9948 188.086 80.224 187.883 80.5156C187.685 80.8021 187.536 81.1328 187.438 81.5078C187.339 81.8776 187.289 82.2708 187.289 82.6875ZM198.891 78.5469V79.6562H194.32V78.5469H198.891ZM195.867 76.4922H197.312V84.9062C197.312 85.1927 197.357 85.4089 197.445 85.5547C197.534 85.7005 197.648 85.7969 197.789 85.8438C197.93 85.8906 198.081 85.9141 198.242 85.9141C198.362 85.9141 198.487 85.9036 198.617 85.8828C198.753 85.8568 198.854 85.8359 198.922 85.8203L198.93 87C198.815 87.0365 198.664 87.0703 198.477 87.1016C198.294 87.138 198.073 87.1562 197.812 87.1562C197.458 87.1562 197.133 87.0859 196.836 86.9453C196.539 86.8047 196.302 86.5703 196.125 86.2422C195.953 85.9089 195.867 85.4609 195.867 84.8984V76.4922ZM205.508 84.7578C205.508 84.5495 205.461 84.3568 205.367 84.1797C205.279 83.9974 205.094 83.8333 204.812 83.6875C204.536 83.5365 204.12 83.4062 203.562 83.2969C203.094 83.1979 202.669 83.0807 202.289 82.9453C201.914 82.8099 201.594 82.6458 201.328 82.4531C201.068 82.2604 200.867 82.0339 200.727 81.7734C200.586 81.513 200.516 81.2083 200.516 80.8594C200.516 80.526 200.589 80.2109 200.734 79.9141C200.885 79.6172 201.096 79.3542 201.367 79.125C201.643 78.8958 201.974 78.7161 202.359 78.5859C202.745 78.4557 203.174 78.3906 203.648 78.3906C204.326 78.3906 204.904 78.5104 205.383 78.75C205.862 78.9896 206.229 79.3099 206.484 79.7109C206.74 80.1068 206.867 80.5469 206.867 81.0312H205.422C205.422 80.7969 205.352 80.5703 205.211 80.3516C205.076 80.1276 204.875 79.9427 204.609 79.7969C204.349 79.651 204.029 79.5781 203.648 79.5781C203.247 79.5781 202.922 79.6406 202.672 79.7656C202.427 79.8854 202.247 80.0391 202.133 80.2266C202.023 80.4141 201.969 80.612 201.969 80.8203C201.969 80.9766 201.995 81.1172 202.047 81.2422C202.104 81.362 202.203 81.474 202.344 81.5781C202.484 81.6771 202.682 81.7708 202.938 81.8594C203.193 81.9479 203.518 82.0365 203.914 82.125C204.607 82.2812 205.177 82.4688 205.625 82.6875C206.073 82.9062 206.406 83.1745 206.625 83.4922C206.844 83.8099 206.953 84.1953 206.953 84.6484C206.953 85.0182 206.875 85.3568 206.719 85.6641C206.568 85.9714 206.346 86.237 206.055 86.4609C205.768 86.6797 205.424 86.8516 205.023 86.9766C204.628 87.0964 204.182 87.1562 203.688 87.1562C202.943 87.1562 202.312 87.0234 201.797 86.7578C201.281 86.4922 200.891 86.1484 200.625 85.7266C200.359 85.3047 200.227 84.8594 200.227 84.3906H201.68C201.701 84.7865 201.815 85.1016 202.023 85.3359C202.232 85.5651 202.487 85.7292 202.789 85.8281C203.091 85.9219 203.391 85.9688 203.688 85.9688C204.083 85.9688 204.414 85.9167 204.68 85.8125C204.951 85.7083 205.156 85.5651 205.297 85.3828C205.438 85.2005 205.508 84.9922 205.508 84.7578ZM208.875 86.2344C208.875 85.9896 208.951 85.7839 209.102 85.6172C209.258 85.4453 209.482 85.3594 209.773 85.3594C210.065 85.3594 210.286 85.4453 210.438 85.6172C210.594 85.7839 210.672 85.9896 210.672 86.2344C210.672 86.474 210.594 86.6771 210.438 86.8438C210.286 87.0104 210.065 87.0938 209.773 87.0938C209.482 87.0938 209.258 87.0104 209.102 86.8438C208.951 86.6771 208.875 86.474 208.875 86.2344ZM213.297 75V76C213.297 76.3125 213.242 76.6432 213.133 76.9922C213.029 77.3359 212.875 77.6693 212.672 77.9922C212.469 78.3099 212.224 78.5885 211.938 78.8281L211.109 78.2578C211.354 77.9141 211.539 77.5625 211.664 77.2031C211.794 76.8385 211.859 76.4453 211.859 76.0234V75H213.297ZM215.695 75V76C215.695 76.3125 215.641 76.6432 215.531 76.9922C215.427 77.3359 215.273 77.6693 215.07 77.9922C214.867 78.3099 214.622 78.5885 214.336 78.8281L213.508 78.2578C213.753 77.9141 213.938 77.5625 214.062 77.2031C214.193 76.8385 214.258 76.4453 214.258 76.0234V75H215.695Z" fill="#3F3B3D"/>
<g clip-path="url(#clip0_1_179)">
<path d="M116.883 10.7556C117.299 10.7556 117.631 10.7556 117.714 10.8445C117.797 10.9334 117.797 11.0223 117.797 11.3779C117.797 11.5556 117.881 11.8223 117.964 11.8223C118.047 11.8223 118.296 11.7334 118.712 11.3779C119.044 11.2001 119.293 10.9334 119.792 10.8445C120.208 10.7556 120.623 10.6667 121.039 10.6667C121.87 10.6667 122.618 11.0223 123.283 11.6445C123.782 12.089 124.197 12.7112 124.53 13.5112C124.862 14.3112 124.945 15.0223 124.945 15.9112C124.945 17.7779 124.364 19.1112 123.2 20.3556C122.286 21.2445 121.371 21.7779 120.291 21.7779C119.709 21.7779 119.21 21.689 118.545 21.3334C118.462 21.2445 118.379 21.2445 118.213 21.2445C118.047 21.2445 117.881 21.4223 117.881 21.8667C117.881 22.4001 118.047 22.8445 118.379 23.0223C118.712 23.2001 118.878 23.4667 118.961 23.4667C119.044 23.5556 119.044 23.6445 119.044 23.9112C119.044 24.3556 118.878 24.7112 118.296 24.889C117.881 25.0667 117.216 25.2445 116.384 25.2445C114.971 25.2445 113.642 24.889 112.561 24.2667C112.062 23.9112 111.73 23.6445 111.73 23.1112C111.73 22.9334 111.73 22.7556 111.813 22.6667C111.896 22.5779 111.979 22.489 112.312 22.3112C112.644 22.1334 112.893 21.8667 112.893 21.3334C112.977 20.889 112.977 19.6445 113.06 17.4223C113.06 15.7334 112.977 14.7556 112.893 14.489C112.893 14.4001 112.81 14.4001 112.81 14.4001C112.81 14.4001 112.727 14.2223 112.395 14.2223C112.229 14.2223 111.979 14.1334 111.896 13.8667C111.813 13.689 111.73 13.5112 111.73 13.2445C111.73 12.9779 111.813 12.7112 112.062 12.4445C112.229 12.2667 112.561 12.0001 112.977 11.8223C114.639 11.2001 115.969 10.7556 116.883 10.7556ZM117.881 14.7556L117.797 17.689C117.797 17.7779 117.797 17.8667 117.797 18.0445C117.797 18.2223 117.881 18.489 118.13 18.5779C118.296 18.6667 118.545 18.7556 118.878 18.7556C119.792 18.7556 120.291 17.9556 120.291 16.3556C120.291 15.289 120.125 14.6667 119.709 14.2223C119.543 14.0445 119.21 13.7779 118.878 13.7779C118.213 13.7779 117.881 14.1334 117.881 14.7556Z" fill="#3F3B3D"/>
<path d="M134.836 16.5336H130.182C130.016 16.5336 129.849 16.6224 129.849 16.8891C129.849 17.3336 130.016 17.778 130.597 18.2224C131.179 18.6669 131.595 18.8447 132.093 18.8447C132.426 18.8447 132.842 18.7558 133.174 18.6669C133.59 18.578 133.922 18.3113 134.171 18.2224C134.338 18.0447 134.587 18.0447 134.67 18.0447C134.836 18.0447 135.003 18.1336 135.169 18.4002C135.335 18.578 135.335 18.8447 135.335 19.2002C135.335 19.7336 135.003 20.178 134.421 20.7113C133.423 21.6002 132.093 22.0447 130.764 22.0447C129.351 22.0447 128.27 21.6002 127.19 20.7113C126.691 20.2669 126.358 19.7336 126.109 19.2002C125.693 18.4002 125.527 17.6002 125.527 16.6224C125.527 15.4669 125.86 14.3113 126.525 13.4224C127.106 12.5336 127.854 12.0002 128.769 11.5558C129.517 11.2002 130.182 11.1113 131.013 11.1113C132.343 11.1113 133.34 11.5558 134.254 12.2669C134.67 12.7113 135.086 13.1558 135.335 13.6891C135.667 14.3113 135.834 14.8447 135.834 15.378C135.834 15.8224 135.751 16.2669 135.501 16.5336C135.335 16.3558 135.169 16.5336 134.836 16.5336ZM130.431 14.578H131.429C131.844 14.578 132.01 14.4002 132.01 13.9558C132.01 13.5113 131.927 13.3336 131.678 12.978C131.512 12.8002 131.179 12.6224 130.847 12.6224C130.431 12.6224 130.099 12.7113 129.932 13.0669C129.766 13.4224 129.6 13.6002 129.6 13.9558C129.6 14.1336 129.6 14.3113 129.683 14.4002C130.016 14.578 130.182 14.578 130.431 14.578Z" fill="#3F3B3D"/>
<path d="M142.234 13.5113V17.0669C142.234 17.5113 142.317 17.8669 142.566 18.1335C142.732 18.4891 142.982 18.578 143.314 18.578C143.647 18.578 143.896 18.4891 144.312 18.1335C144.478 18.1335 144.644 18.1335 144.727 18.1335C144.893 18.1335 145.06 18.2224 145.143 18.4891C145.226 18.6669 145.309 18.9335 145.309 19.1113C145.309 19.5558 145.143 20.0002 144.561 20.4446C143.647 21.3335 142.4 21.778 141.153 21.778C140.073 21.778 139.242 21.4224 138.66 20.8002C138.078 20.178 137.662 19.2891 137.662 18.2224V13.2446C137.662 13.0669 137.662 13.0669 137.579 12.8891C137.579 12.8891 137.496 12.8002 137.247 12.8002H136.249C136.083 12.8002 135.917 12.8002 135.834 12.7113C135.751 12.6224 135.751 12.5335 135.751 12.2669V11.8224C135.751 11.6446 135.834 11.4669 135.917 11.378L140.655 8.26687C140.738 8.17798 140.987 8.17798 141.07 8.17798H141.901C142.067 8.17798 142.234 8.17798 142.234 8.26687C142.317 8.35576 142.317 8.44465 142.317 8.71131V10.1335C142.317 10.3113 142.317 10.4891 142.4 10.578C142.483 10.6669 142.566 10.6669 142.816 10.6669H144.644C144.81 10.6669 145.06 10.6669 145.143 10.7558C145.226 10.8446 145.226 11.1113 145.226 11.378V12.0002C145.226 12.3558 145.226 12.5335 145.143 12.8002C145.06 12.8891 144.81 12.978 144.644 12.978H142.816C142.649 12.978 142.483 12.978 142.4 13.0669C142.234 13.1558 142.234 13.2446 142.234 13.5113Z" fill="#3F3B3D"/>
<path d="M149.797 10.6668C150.13 10.6668 150.712 10.7557 151.377 10.8445C151.543 10.8445 151.709 10.8445 151.792 10.8445C151.875 10.8445 152.125 10.7557 152.54 10.6668C152.706 10.5779 152.873 10.5779 152.956 10.5779C153.288 10.5779 153.538 10.7557 153.87 11.2001C154.203 11.5557 154.369 11.8223 154.452 12.2668C154.618 12.7112 154.618 13.0668 154.618 13.3334C154.618 13.689 154.535 13.8668 154.286 14.1334C154.119 14.3112 153.87 14.489 153.538 14.489C153.371 14.489 153.122 14.4001 152.956 14.3112C152.79 14.2223 152.457 13.8668 152.042 13.5112C151.626 13.0668 151.21 12.889 151.044 12.889C150.878 12.889 150.712 12.9779 150.545 13.0668C150.462 13.1557 150.379 13.4223 150.379 13.6001C150.379 13.9557 150.712 14.2223 151.293 14.5779C152.374 15.1112 153.288 15.6445 153.953 16.2668C154.452 16.8001 154.784 17.4223 154.784 18.2223C154.784 19.2001 154.369 20.089 153.538 20.7112C152.79 21.2445 152.042 21.6001 151.044 21.6001C150.712 21.6001 150.296 21.6001 149.631 21.5112C148.966 21.3334 148.551 21.3334 148.467 21.3334C148.384 21.3334 148.301 21.3334 148.135 21.3334C147.969 21.3334 147.803 21.3334 147.719 21.3334C147.387 21.3334 147.138 21.2445 146.971 21.1557C146.639 20.9779 146.473 20.5334 146.14 19.8223C145.974 19.289 145.808 18.7557 145.808 18.4001C145.808 17.7779 145.974 17.4223 146.556 17.4223C146.722 17.4223 146.971 17.5112 147.054 17.6001C147.221 17.689 147.553 18.0445 148.052 18.6668C148.384 19.0223 148.551 19.2001 148.8 19.289C148.966 19.3779 149.216 19.4668 149.382 19.4668C149.548 19.4668 149.797 19.3779 149.88 19.289C149.964 19.2001 150.047 18.9334 150.047 18.7557C150.047 18.4001 149.714 18.1334 149.216 17.8668C148.135 17.3334 147.387 16.7112 146.888 16.1779C146.39 15.5557 146.14 14.8445 146.14 14.1334C146.14 13.2445 146.306 12.5334 146.888 12.0001C147.553 11.1112 148.551 10.6668 149.797 10.6668Z" fill="#3F3B3D"/>
<path d="M160.353 10.7556C160.769 10.7556 161.101 10.7556 161.184 10.8445C161.267 10.9334 161.267 11.0223 161.267 11.3779C161.267 11.5556 161.351 11.8223 161.434 11.8223C161.517 11.8223 161.766 11.7334 162.182 11.3779C162.514 11.2001 162.764 10.9334 163.262 10.8445C163.678 10.7556 164.093 10.6667 164.509 10.6667C165.34 10.6667 166.088 11.0223 166.753 11.6445C167.252 12.089 167.667 12.7112 168 13.5112C168.332 14.3112 168.416 15.0223 168.416 15.9112C168.416 17.7779 167.834 19.1112 166.67 20.3556C165.756 21.2445 164.842 21.7779 163.761 21.7779C163.179 21.7779 162.68 21.689 162.016 21.3334C161.932 21.2445 161.849 21.2445 161.683 21.2445C161.517 21.2445 161.351 21.4223 161.351 21.8667C161.351 22.4001 161.517 22.8445 161.849 23.0223C162.182 23.2001 162.348 23.4667 162.431 23.4667C162.514 23.5556 162.514 23.6445 162.514 23.9112C162.514 24.3556 162.348 24.7112 161.766 24.889C161.351 25.0667 160.686 25.2445 159.854 25.2445C158.442 25.2445 157.112 24.889 156.031 24.2667C155.532 23.9112 155.2 23.6445 155.2 23.1112C155.2 22.9334 155.2 22.7556 155.283 22.6667C155.366 22.5779 155.449 22.489 155.782 22.3112C156.114 22.1334 156.364 21.8667 156.364 21.3334C156.447 20.889 156.447 19.6445 156.53 17.4223C156.53 15.7334 156.447 14.7556 156.364 14.489C156.364 14.4001 156.28 14.4001 156.28 14.4001C156.28 14.4001 156.197 14.2223 155.948 14.2223C155.782 14.2223 155.532 14.1334 155.449 13.8667C155.366 13.689 155.283 13.5112 155.283 13.2445C155.283 12.9779 155.366 12.7112 155.616 12.4445C155.782 12.2667 156.114 12.0001 156.53 11.8223C158.192 11.2001 159.356 10.7556 160.353 10.7556ZM161.351 14.7556L161.267 17.689C161.267 17.7779 161.267 17.8667 161.267 18.0445C161.267 18.2223 161.351 18.489 161.6 18.5779C161.766 18.6667 162.016 18.7556 162.348 18.7556C163.262 18.7556 163.761 17.9556 163.761 16.3556C163.761 15.289 163.595 14.6667 163.179 14.2223C163.013 14.0445 162.68 13.7779 162.348 13.7779C161.683 13.7779 161.351 14.1334 161.351 14.7556Z" fill="#3F3B3D"/>
<path d="M174.732 12.8001V16.2668C174.732 17.7779 174.732 18.6668 174.816 18.8445C174.816 19.0223 174.982 19.289 175.314 19.3779C175.481 19.4668 175.73 19.5557 175.813 19.7334C175.896 19.8223 175.896 19.9112 175.896 20.1779C175.896 20.3557 175.813 20.6223 175.73 20.8001C175.564 20.9779 175.314 21.1557 175.148 21.2445C174.649 21.3334 173.818 21.4223 172.738 21.4223C171.408 21.4223 170.494 21.3334 169.995 21.0668C169.829 20.9779 169.579 20.889 169.413 20.6223C169.247 20.4445 169.247 20.1779 169.247 20.0001C169.247 19.8223 169.247 19.6445 169.33 19.5557C169.413 19.4668 169.662 19.3779 169.829 19.2001C170.161 19.1112 170.244 18.7557 170.327 18.2223C170.41 17.2445 170.494 15.9112 170.494 14.2223C170.494 12.5334 170.494 11.3779 170.41 10.8445C170.327 10.3112 170.078 9.95566 169.662 9.77788C169.33 9.6001 169.164 9.42233 169.081 9.33344C168.997 9.24455 168.914 9.15566 168.914 8.88899C168.914 8.53344 169.081 8.26677 169.413 8.0001C169.745 7.82233 170.244 7.46677 170.909 7.2001C171.408 7.11121 171.907 6.84455 172.738 6.75566C173.486 6.66677 174.068 6.57788 174.317 6.57788C174.816 6.57788 175.148 6.93344 175.148 7.64455C175.148 7.82233 175.148 8.44455 175.065 9.24455C174.816 10.6668 174.816 11.8223 174.732 12.8001Z" fill="#3F3B3D"/>
<path d="M182.213 10.6667C183.293 10.6667 184.374 11.0223 185.122 11.6445C185.538 12.0001 185.87 12.4445 186.036 12.8001C186.203 13.2445 186.369 13.7779 186.369 14.489V16.089C186.369 17.1556 186.452 17.9556 186.535 18.2223C186.618 18.3112 186.618 18.4001 186.701 18.5779C186.784 18.5779 186.868 18.6667 187.117 18.6667C187.366 18.6667 187.449 18.8445 187.449 19.1112C187.449 19.4667 187.366 19.7334 187.034 20.1779C186.701 20.5334 186.452 20.8001 186.036 21.1556C185.538 21.5112 185.039 21.6001 184.457 21.6001C183.709 21.6001 183.21 21.4223 182.878 20.8001C182.795 20.6223 182.545 20.4445 182.462 20.4445C182.379 20.4445 182.13 20.5334 181.964 20.6223C181.216 21.1556 180.551 21.4223 179.719 21.4223C178.805 21.4223 178.14 21.2445 177.558 20.8001C177.226 20.6223 176.977 20.1779 176.727 19.7334C176.561 19.289 176.395 18.8445 176.395 18.4001C176.395 17.6001 176.727 16.9779 177.226 16.4445C178.14 15.5556 179.47 15.1112 181.132 15.0223C181.548 15.0223 181.714 15.0223 181.88 14.9334C181.964 14.8445 181.964 14.5779 181.964 14.4001C181.964 13.6001 181.88 13.0667 181.797 12.8001C181.714 12.5334 181.382 12.2667 181.049 12.2667C180.883 12.2667 180.634 12.3556 180.551 12.4445C180.384 12.5334 180.218 12.8001 179.969 13.2445C179.387 14.1334 178.722 14.6667 178.14 14.6667C177.808 14.6667 177.558 14.5779 177.309 14.3112C177.06 14.0445 176.977 13.8667 176.977 13.4223C176.977 13.0667 177.06 12.8001 177.392 12.4445C177.725 12.089 177.974 11.8223 178.39 11.5556C179.636 11.0223 180.883 10.6667 182.213 10.6667ZM181.548 16.8001C181.216 16.8001 181.049 16.889 180.717 17.2445C180.551 17.4223 180.384 17.7779 180.384 18.1334C180.384 18.489 180.468 18.7556 180.551 19.0223C180.717 19.2001 180.966 19.3779 181.132 19.3779C181.631 19.3779 181.964 18.9334 181.964 17.9556C181.964 17.5112 181.964 17.3334 181.88 17.1556C181.88 16.889 181.797 16.8001 181.548 16.8001Z" fill="#3F3B3D"/>
<path d="M197.008 16.0001L195.678 19.9112C195.345 20.889 195.096 21.6001 194.68 22.3112C194.348 22.9334 193.932 23.3779 193.6 23.8223C192.686 24.7112 191.688 25.1557 190.442 25.1557C189.444 25.1557 188.613 24.8001 188.031 24.2668C187.532 23.8223 187.283 23.289 187.283 22.6668C187.283 22.1334 187.449 21.689 187.782 21.2445C188.114 20.889 188.53 20.7112 189.029 20.7112C189.527 20.7112 189.943 20.889 190.109 21.2445C190.192 21.3334 190.275 21.6001 190.442 21.689C190.442 21.7779 190.525 22.1334 190.608 22.489C190.691 22.8445 190.774 22.9334 191.106 22.9334C191.273 22.9334 191.522 22.8445 191.605 22.5779C191.688 22.4001 191.771 22.1334 191.771 21.7779C191.771 21.4223 191.605 20.889 191.273 20.089L188.862 14.5779C188.53 14.0445 188.447 13.6001 188.28 13.5112C188.197 13.4223 187.865 13.1557 187.449 12.9779C187.366 12.889 187.283 12.8001 187.117 12.6223C186.951 12.4445 187.034 12.2668 187.034 12.1779C187.034 11.5557 187.616 11.1112 188.779 10.8445C189.61 10.7557 190.525 10.6668 191.522 10.6668C192.27 10.6668 192.769 10.7557 193.101 10.8445C193.6 11.0223 193.932 11.3779 193.932 11.9112C193.932 12.089 193.849 12.3557 193.766 12.5334C193.683 12.7112 193.6 12.9779 193.6 13.1557C193.6 13.3334 193.6 13.5112 193.683 13.689C193.766 13.8668 193.849 14.2223 194.099 14.6668C194.431 15.2001 194.597 15.4668 194.847 15.4668C195.013 15.4668 195.262 15.289 195.429 14.8445C195.595 14.4001 195.761 13.9557 195.761 13.5112C195.761 13.1557 195.678 12.9779 195.595 12.7112C195.262 12.3557 195.179 12.1779 195.179 11.8223C195.179 11.4668 195.345 11.2001 195.927 10.9334C196.343 10.7557 196.925 10.5779 197.756 10.5779C199.169 10.5779 199.917 10.9334 199.917 11.6445C199.917 11.8223 199.834 12.089 199.751 12.2668C199.667 12.3557 199.335 12.6223 198.919 12.7112C198.587 12.8001 198.338 13.0668 198.088 13.3334C197.756 14.0445 197.423 14.8445 197.008 16.0001Z" fill="#3F3B3D"/>
<path d="M77.5688 27.7335C76.7377 27.9113 76.4883 28.1779 75.9896 28.6224C75.9896 29.4224 76.0727 30.0446 76.0727 30.9335C76.0727 31.3779 76.4883 32.089 77.4857 31.4668C78.1507 30.9335 77.8182 28.4446 78.7325 27.3779C78.3169 27.3779 77.9844 27.6446 77.5688 27.7335Z" fill="#3F3B3D"/>
<path d="M105.247 17.3333C104.166 17.4222 100.592 17.5111 98.5143 16C98.5143 16.0889 98.5974 16.1778 98.6805 16.3556C99.9273 18.2222 101.673 19.2 103.252 19.5556C104 19.4667 104.582 19.3778 105.247 19.0222C106.493 18.6667 105.995 17.2444 105.247 17.3333Z" fill="#3F3B3D"/>
<path d="M86.6286 3.20015C88.2078 2.40015 90.3688 3.82238 92.2805 6.40015C92.613 6.31126 92.8624 6.0446 93.1948 5.95571C91.1169 3.20015 88.7065 1.77793 86.9611 2.57793C86.213 2.93349 85.7143 3.46682 85.3818 4.26682C85.7974 3.73349 86.213 3.46682 86.6286 3.20015Z" fill="#3F3B3D"/>
<path d="M96.5195 22.0447C96.187 23.4669 95.5221 24.5336 94.6078 24.978C94.1091 25.1558 93.6104 25.1558 93.1117 25.0669C93.9429 25.4225 94.6078 25.4225 95.3559 25.0669C96.2701 24.6225 96.9351 23.6447 97.3507 22.4002C97.0182 22.2225 96.6857 22.1336 96.5195 22.0447Z" fill="#3F3B3D"/>
<path d="M93.1948 4.53339C90.9507 1.95562 88.4572 0.622283 86.2961 1.51117C82.9715 2.93339 82.2234 9.68895 84.7169 16.5334C87.2104 23.3778 91.9481 27.7334 95.3559 26.4001C96.6857 25.8667 97.6 24.5334 98.0156 22.7556C98.1818 22.1334 98.5143 26.6667 95.0234 28.089C91.4494 29.6001 86.3792 24.7112 83.5533 17.1556C80.7273 9.51117 81.5585 2.04451 85.1325 0.444505C87.3766 -0.799939 90.5351 1.06673 93.1948 4.53339Z" fill="#3F3B3D"/>
<path d="M82.1403 16.8891C80.3948 12.0002 80.2286 7.11129 81.5585 4.26685C79.9793 5.24462 78.7325 9.24462 79.9793 14.6668C78.0676 15.8224 77.1533 16.178 75.1585 15.6446C73.5793 15.2002 72.9974 13.5113 72.9143 13.6891C71.5013 16.6224 74.6598 18.8446 76.4884 18.7557C76.3221 21.8668 74.4935 23.5557 73.6624 24.7113C72.665 26.3113 72.4156 28.3557 72.2494 31.1113C72.2494 31.5557 72.5819 32.4446 73.5793 31.9113C74.1611 31.5557 74.1611 29.0668 75.3247 28.0891C76.3221 27.2002 76.7377 27.2891 78.6494 26.578C80.8104 25.6891 82.7221 24.2668 82.8884 22.4002C82.9715 22.578 83.2208 22.9335 83.3871 23.2002C86.0468 27.2891 88.2078 26.578 88.2078 26.578C85.5481 24.4446 83.5533 20.7113 82.1403 16.8891Z" fill="#3F3B3D"/>
<path d="M104.249 4.44452C104.416 3.82229 104.748 2.31118 104.083 1.77785C103.751 1.60007 103.335 2.57785 102.338 3.20007C102.836 3.28896 103.751 3.73341 104.249 4.44452Z" fill="#3F3B3D"/>
<path d="M105.662 20.7999C104.166 20.7999 100.177 19.9999 98.0987 16.7999C96.1039 13.5999 98.265 10.1333 101.922 11.1999C107.657 12.8888 107.907 9.68883 107.74 8.62216C106.078 7.99994 104.831 7.82216 104.665 6.66661C104.166 4.17772 101.922 3.99994 101.34 3.64438C101.257 3.19994 100.758 1.24438 99.7611 1.24438C99.2624 1.24438 99.6779 3.28883 98.1818 4.71105C93.4442 6.66661 88.7065 9.1555 84.6338 11.7333C84.8 13.1555 85.2156 14.6666 85.8805 16.1777C86.3792 17.6888 87.1273 19.111 87.7922 20.2666C88.7896 20.2666 90.0364 20.2666 91.6156 20.3555C96.9351 20.5333 100.842 23.5555 105.579 22.7555C106.66 22.3111 106.41 20.8888 105.662 20.7999ZM102.504 6.22216C102.836 6.22216 102.92 6.39994 102.92 6.7555C102.92 7.11105 102.753 7.19994 102.421 7.19994C102.088 7.19994 102.005 7.02216 102.005 6.66661C102.171 6.48883 102.338 6.22216 102.504 6.22216Z" fill="#3F3B3D"/>
</g>
<defs>
<clipPath id="clip0_1_179">
<rect width="128" height="32" fill="white" transform="translate(72)"/>
</clipPath>
</defs>
</svg>
