<svg width="272" height="113" viewBox="0 0 272 113" fill="none" xmlns="http://www.w3.org/2000/svg">
<g clip-path="url(#clip0_1_162)">
<path d="M75.8728 0.711182L82.6339 24.0001L88.6072 3.02229L94.7118 24.089L101.276 0.711182H103.114L94.3836 31.6445H93.2677L87.6882 12.4445L82.3056 31.5556H80.9928L72.1313 0.711182H75.8728Z" fill="#3F3B3D"/>
<path d="M110.925 0L121.559 31.2889H117.686L114.207 21.0667H104.558L101.013 31.2889H99.1097L110.006 0H110.925ZM105.214 19.1111H113.551L109.415 7.11111L105.214 19.1111Z" fill="#3F3B3D"/>
<path d="M125.038 0.711182H128.779V29.3334H140.135V31.289H124.972V0.711182H125.038Z" fill="#3F3B3D"/>
<path d="M177.223 0.711182V2.66674H165.342V13.689H173.284V15.6445H165.342V29.3334H177.223V31.289H161.469V0.711182H177.223Z" fill="#3F3B3D"/>
<path d="M181.227 0.711182H183.327L198.096 23.1112H198.228V0.711182H199.869V32.0001H199.081L183.065 7.20007H182.933V31.3778H181.161L181.227 0.711182Z" fill="#3F3B3D"/>
<path d="M156.939 9.42231C156.283 7.55565 155.364 5.77787 154.051 4.35565C152.935 3.1112 151.491 2.13343 149.85 1.5112C148.209 0.888981 146.174 0.622314 143.811 0.622314H136.263V24.8001H140.135V2.93343H144.205C145.584 2.93343 146.831 3.20009 147.881 3.9112C149.063 4.53343 149.982 5.42231 150.769 6.57787C151.557 7.73343 152.213 9.15565 152.673 10.6668C153.132 12.2668 153.329 14.0445 153.329 15.9112C153.329 18.0445 153.132 19.9112 152.607 21.6001C152.082 23.289 151.426 24.6223 150.638 25.689C149.785 26.7556 148.8 27.6445 147.684 28.2668C146.503 28.889 145.387 29.1556 144.074 29.1556H143.417V31.3779H144.665C146.765 31.3779 148.669 31.0223 150.244 30.1334C151.819 29.3334 153.198 28.1779 154.379 26.7556C155.495 25.4223 156.349 23.7334 156.939 21.7779C157.53 19.9112 157.793 17.8668 157.793 15.7334C157.858 13.4223 157.596 11.3779 156.939 9.42231Z" fill="#3F3B3D"/>
</g>
<path d="M36.3828 57.6172V56.6719C36.3828 56.3542 36.4349 56.0234 36.5391 55.6797C36.6484 55.3307 36.8047 54.9974 37.0078 54.6797C37.2109 54.3568 37.4557 54.0781 37.7422 53.8438L38.5625 54.4141C38.3229 54.7578 38.138 55.112 38.0078 55.4766C37.8776 55.8359 37.8125 56.2266 37.8125 56.6484V57.6172H36.3828ZM38.8438 57.6172V56.6719C38.8438 56.3542 38.8958 56.0234 39 55.6797C39.1094 55.3307 39.2656 54.9974 39.4688 54.6797C39.6719 54.3568 39.9167 54.0781 40.2031 53.8438L41.0234 54.4141C40.7839 54.7578 40.599 55.112 40.4688 55.4766C40.3385 55.8359 40.2734 56.2266 40.2734 56.6484V57.6172H38.8438ZM44.0469 54.625V66H42.5391V54.625H44.0469ZM48.8125 59.7422V60.9766H43.7188V59.7422H48.8125ZM49.5859 54.625V55.8594H43.7188V54.625H49.5859ZM55.8828 64.5547V60.2031C55.8828 59.8698 55.8151 59.5807 55.6797 59.3359C55.5495 59.0859 55.3516 58.8932 55.0859 58.7578C54.8203 58.6224 54.4922 58.5547 54.1016 58.5547C53.737 58.5547 53.4167 58.6172 53.1406 58.7422C52.8698 58.8672 52.6562 59.0312 52.5 59.2344C52.349 59.4375 52.2734 59.6562 52.2734 59.8906H50.8281C50.8281 59.5885 50.9062 59.2891 51.0625 58.9922C51.2188 58.6953 51.4427 58.4271 51.7344 58.1875C52.0312 57.9427 52.3854 57.75 52.7969 57.6094C53.2135 57.4635 53.6771 57.3906 54.1875 57.3906C54.8021 57.3906 55.3438 57.4948 55.8125 57.7031C56.2865 57.9115 56.6562 58.2266 56.9219 58.6484C57.1927 59.0651 57.3281 59.5885 57.3281 60.2188V64.1562C57.3281 64.4375 57.3516 64.737 57.3984 65.0547C57.4505 65.3724 57.526 65.6458 57.625 65.875V66H56.1172C56.0443 65.8333 55.987 65.612 55.9453 65.3359C55.9036 65.0547 55.8828 64.7943 55.8828 64.5547ZM56.1328 60.875L56.1484 61.8906H54.6875C54.276 61.8906 53.9089 61.9245 53.5859 61.9922C53.263 62.0547 52.9922 62.151 52.7734 62.2812C52.5547 62.4115 52.388 62.5755 52.2734 62.7734C52.1589 62.9661 52.1016 63.1927 52.1016 63.4531C52.1016 63.7188 52.1615 63.9609 52.2812 64.1797C52.401 64.3984 52.5807 64.5729 52.8203 64.7031C53.0651 64.8281 53.3646 64.8906 53.7188 64.8906C54.1615 64.8906 54.5521 64.7969 54.8906 64.6094C55.2292 64.4219 55.4974 64.1927 55.6953 63.9219C55.8984 63.651 56.0078 63.388 56.0234 63.1328L56.6406 63.8281C56.6042 64.0469 56.5052 64.2891 56.3438 64.5547C56.1823 64.8203 55.9661 65.0755 55.6953 65.3203C55.4297 65.5599 55.112 65.7604 54.7422 65.9219C54.3776 66.0781 53.9661 66.1562 53.5078 66.1562C52.9349 66.1562 52.4323 66.0443 52 65.8203C51.5729 65.5964 51.2396 65.2969 51 64.9219C50.7656 64.5417 50.6484 64.1172 50.6484 63.6484C50.6484 63.1953 50.737 62.7969 50.9141 62.4531C51.0911 62.1042 51.3464 61.8151 51.6797 61.5859C52.013 61.3516 52.4141 61.1745 52.8828 61.0547C53.3516 60.9349 53.875 60.875 54.4531 60.875H56.1328ZM61.0469 59.3516V66H59.6016V57.5469H60.9688L61.0469 59.3516ZM60.7031 61.4531L60.1016 61.4297C60.1068 60.8516 60.1927 60.3177 60.3594 59.8281C60.526 59.3333 60.7604 58.9036 61.0625 58.5391C61.3646 58.1745 61.724 57.8932 62.1406 57.6953C62.5625 57.4922 63.0286 57.3906 63.5391 57.3906C63.9557 57.3906 64.3307 57.4479 64.6641 57.5625C64.9974 57.6719 65.2812 57.849 65.5156 58.0938C65.7552 58.3385 65.9375 58.6562 66.0625 59.0469C66.1875 59.4323 66.25 59.9036 66.25 60.4609V66H64.7969V60.4453C64.7969 60.0026 64.7318 59.6484 64.6016 59.3828C64.4714 59.112 64.2812 58.9167 64.0312 58.7969C63.7812 58.6719 63.474 58.6094 63.1094 58.6094C62.75 58.6094 62.4219 58.6849 62.125 58.8359C61.8333 58.987 61.5807 59.1953 61.3672 59.4609C61.1589 59.7266 60.9948 60.0312 60.875 60.375C60.7604 60.7135 60.7031 61.0729 60.7031 61.4531ZM71.9844 57.5469V58.6562H67.4141V57.5469H71.9844ZM68.9609 55.4922H70.4062V63.9062C70.4062 64.1927 70.4505 64.4089 70.5391 64.5547C70.6276 64.7005 70.7422 64.7969 70.8828 64.8438C71.0234 64.8906 71.1745 64.9141 71.3359 64.9141C71.4557 64.9141 71.5807 64.9036 71.7109 64.8828C71.8464 64.8568 71.9479 64.8359 72.0156 64.8203L72.0234 66C71.9089 66.0365 71.7578 66.0703 71.5703 66.1016C71.388 66.138 71.1667 66.1562 70.9062 66.1562C70.5521 66.1562 70.2266 66.0859 69.9297 65.9453C69.6328 65.8047 69.3958 65.5703 69.2188 65.2422C69.0469 64.9089 68.9609 64.4609 68.9609 63.8984V55.4922ZM78.6641 64.5547V60.2031C78.6641 59.8698 78.5964 59.5807 78.4609 59.3359C78.3307 59.0859 78.1328 58.8932 77.8672 58.7578C77.6016 58.6224 77.2734 58.5547 76.8828 58.5547C76.5182 58.5547 76.1979 58.6172 75.9219 58.7422C75.651 58.8672 75.4375 59.0312 75.2812 59.2344C75.1302 59.4375 75.0547 59.6562 75.0547 59.8906H73.6094C73.6094 59.5885 73.6875 59.2891 73.8438 58.9922C74 58.6953 74.224 58.4271 74.5156 58.1875C74.8125 57.9427 75.1667 57.75 75.5781 57.6094C75.9948 57.4635 76.4583 57.3906 76.9688 57.3906C77.5833 57.3906 78.125 57.4948 78.5938 57.7031C79.0677 57.9115 79.4375 58.2266 79.7031 58.6484C79.974 59.0651 80.1094 59.5885 80.1094 60.2188V64.1562C80.1094 64.4375 80.1328 64.737 80.1797 65.0547C80.2318 65.3724 80.3073 65.6458 80.4062 65.875V66H78.8984C78.8255 65.8333 78.7682 65.612 78.7266 65.3359C78.6849 65.0547 78.6641 64.7943 78.6641 64.5547ZM78.9141 60.875L78.9297 61.8906H77.4688C77.0573 61.8906 76.6901 61.9245 76.3672 61.9922C76.0443 62.0547 75.7734 62.151 75.5547 62.2812C75.3359 62.4115 75.1693 62.5755 75.0547 62.7734C74.9401 62.9661 74.8828 63.1927 74.8828 63.4531C74.8828 63.7188 74.9427 63.9609 75.0625 64.1797C75.1823 64.3984 75.362 64.5729 75.6016 64.7031C75.8464 64.8281 76.1458 64.8906 76.5 64.8906C76.9427 64.8906 77.3333 64.7969 77.6719 64.6094C78.0104 64.4219 78.2786 64.1927 78.4766 63.9219C78.6797 63.651 78.7891 63.388 78.8047 63.1328L79.4219 63.8281C79.3854 64.0469 79.2865 64.2891 79.125 64.5547C78.9635 64.8203 78.7474 65.0755 78.4766 65.3203C78.2109 65.5599 77.8932 65.7604 77.5234 65.9219C77.1589 66.0781 76.7474 66.1562 76.2891 66.1562C75.7161 66.1562 75.2135 66.0443 74.7812 65.8203C74.3542 65.5964 74.0208 65.2969 73.7812 64.9219C73.5469 64.5417 73.4297 64.1172 73.4297 63.6484C73.4297 63.1953 73.5182 62.7969 73.6953 62.4531C73.8724 62.1042 74.1276 61.8151 74.4609 61.5859C74.7943 61.3516 75.1953 61.1745 75.6641 61.0547C76.1328 60.9349 76.6562 60.875 77.2344 60.875H78.9141ZM87.3047 63.7578C87.3047 63.5495 87.2578 63.3568 87.1641 63.1797C87.0755 62.9974 86.8906 62.8333 86.6094 62.6875C86.3333 62.5365 85.9167 62.4062 85.3594 62.2969C84.8906 62.1979 84.4661 62.0807 84.0859 61.9453C83.7109 61.8099 83.3906 61.6458 83.125 61.4531C82.8646 61.2604 82.6641 61.0339 82.5234 60.7734C82.3828 60.513 82.3125 60.2083 82.3125 59.8594C82.3125 59.526 82.3854 59.2109 82.5312 58.9141C82.6823 58.6172 82.8932 58.3542 83.1641 58.125C83.4401 57.8958 83.7708 57.7161 84.1562 57.5859C84.5417 57.4557 84.9714 57.3906 85.4453 57.3906C86.1224 57.3906 86.7005 57.5104 87.1797 57.75C87.6589 57.9896 88.026 58.3099 88.2812 58.7109C88.5365 59.1068 88.6641 59.5469 88.6641 60.0312H87.2188C87.2188 59.7969 87.1484 59.5703 87.0078 59.3516C86.8724 59.1276 86.6719 58.9427 86.4062 58.7969C86.1458 58.651 85.8255 58.5781 85.4453 58.5781C85.0443 58.5781 84.7188 58.6406 84.4688 58.7656C84.224 58.8854 84.0443 59.0391 83.9297 59.2266C83.8203 59.4141 83.7656 59.612 83.7656 59.8203C83.7656 59.9766 83.7917 60.1172 83.8438 60.2422C83.901 60.362 84 60.474 84.1406 60.5781C84.2812 60.6771 84.4792 60.7708 84.7344 60.8594C84.9896 60.9479 85.3151 61.0365 85.7109 61.125C86.4036 61.2812 86.974 61.4688 87.4219 61.6875C87.8698 61.9062 88.2031 62.1745 88.4219 62.4922C88.6406 62.8099 88.75 63.1953 88.75 63.6484C88.75 64.0182 88.6719 64.3568 88.5156 64.6641C88.3646 64.9714 88.1432 65.237 87.8516 65.4609C87.5651 65.6797 87.2214 65.8516 86.8203 65.9766C86.4245 66.0964 85.9792 66.1562 85.4844 66.1562C84.7396 66.1562 84.1094 66.0234 83.5938 65.7578C83.0781 65.4922 82.6875 65.1484 82.4219 64.7266C82.1562 64.3047 82.0234 63.8594 82.0234 63.3906H83.4766C83.4974 63.7865 83.612 64.1016 83.8203 64.3359C84.0286 64.5651 84.2839 64.7292 84.5859 64.8281C84.888 64.9219 85.1875 64.9688 85.4844 64.9688C85.8802 64.9688 86.2109 64.9167 86.4766 64.8125C86.7474 64.7083 86.9531 64.5651 87.0938 64.3828C87.2344 64.2005 87.3047 63.9922 87.3047 63.7578ZM94.1875 57.5469V58.6562H89.6172V57.5469H94.1875ZM91.1641 55.4922H92.6094V63.9062C92.6094 64.1927 92.6536 64.4089 92.7422 64.5547C92.8307 64.7005 92.9453 64.7969 93.0859 64.8438C93.2266 64.8906 93.3776 64.9141 93.5391 64.9141C93.6589 64.9141 93.7839 64.9036 93.9141 64.8828C94.0495 64.8568 94.151 64.8359 94.2188 64.8203L94.2266 66C94.112 66.0365 93.9609 66.0703 93.7734 66.1016C93.5911 66.138 93.3698 66.1562 93.1094 66.1562C92.7552 66.1562 92.4297 66.0859 92.1328 65.9453C91.8359 65.8047 91.599 65.5703 91.4219 65.2422C91.25 64.9089 91.1641 64.4609 91.1641 63.8984V55.4922ZM97.4531 57.5469V66H96V57.5469H97.4531ZM95.8906 55.3047C95.8906 55.0703 95.9609 54.8724 96.1016 54.7109C96.2474 54.5495 96.4609 54.4688 96.7422 54.4688C97.0182 54.4688 97.2292 54.5495 97.375 54.7109C97.526 54.8724 97.6016 55.0703 97.6016 55.3047C97.6016 55.5286 97.526 55.7214 97.375 55.8828C97.2292 56.0391 97.0182 56.1172 96.7422 56.1172C96.4609 56.1172 96.2474 56.0391 96.1016 55.8828C95.9609 55.7214 95.8906 55.5286 95.8906 55.3047ZM103.156 64.9688C103.5 64.9688 103.818 64.8984 104.109 64.7578C104.401 64.6172 104.641 64.4245 104.828 64.1797C105.016 63.9297 105.122 63.6458 105.148 63.3281H106.523C106.497 63.8281 106.328 64.2943 106.016 64.7266C105.708 65.1536 105.305 65.5 104.805 65.7656C104.305 66.026 103.755 66.1562 103.156 66.1562C102.521 66.1562 101.966 66.0443 101.492 65.8203C101.023 65.5964 100.633 65.2891 100.32 64.8984C100.013 64.5078 99.7812 64.0599 99.625 63.5547C99.474 63.0443 99.3984 62.5052 99.3984 61.9375V61.6094C99.3984 61.0417 99.474 60.5052 99.625 60C99.7812 59.4896 100.013 59.0391 100.32 58.6484C100.633 58.2578 101.023 57.9505 101.492 57.7266C101.966 57.5026 102.521 57.3906 103.156 57.3906C103.818 57.3906 104.396 57.526 104.891 57.7969C105.385 58.0625 105.773 58.4271 106.055 58.8906C106.341 59.349 106.497 59.8698 106.523 60.4531H105.148C105.122 60.1042 105.023 59.7891 104.852 59.5078C104.685 59.2266 104.456 59.0026 104.164 58.8359C103.878 58.6641 103.542 58.5781 103.156 58.5781C102.714 58.5781 102.341 58.6667 102.039 58.8438C101.742 59.0156 101.505 59.25 101.328 59.5469C101.156 59.8385 101.031 60.1641 100.953 60.5234C100.88 60.8776 100.844 61.2396 100.844 61.6094V61.9375C100.844 62.3073 100.88 62.6719 100.953 63.0312C101.026 63.3906 101.148 63.7161 101.32 64.0078C101.497 64.2995 101.734 64.5339 102.031 64.7109C102.333 64.8828 102.708 64.9688 103.156 64.9688ZM117.445 64.3594V54H118.898V66H117.57L117.445 64.3594ZM111.758 61.8672V61.7031C111.758 61.0573 111.836 60.4714 111.992 59.9453C112.154 59.4141 112.38 58.9583 112.672 58.5781C112.969 58.1979 113.32 57.9062 113.727 57.7031C114.138 57.4948 114.596 57.3906 115.102 57.3906C115.633 57.3906 116.096 57.4844 116.492 57.6719C116.893 57.8542 117.232 58.1224 117.508 58.4766C117.789 58.8255 118.01 59.2474 118.172 59.7422C118.333 60.237 118.445 60.7969 118.508 61.4219V62.1406C118.451 62.7604 118.339 63.3177 118.172 63.8125C118.01 64.3073 117.789 64.7292 117.508 65.0781C117.232 65.4271 116.893 65.6953 116.492 65.8828C116.091 66.0651 115.622 66.1562 115.086 66.1562C114.591 66.1562 114.138 66.0495 113.727 65.8359C113.32 65.6224 112.969 65.3229 112.672 64.9375C112.38 64.5521 112.154 64.099 111.992 63.5781C111.836 63.0521 111.758 62.4818 111.758 61.8672ZM113.211 61.7031V61.8672C113.211 62.2891 113.253 62.6849 113.336 63.0547C113.424 63.4245 113.56 63.75 113.742 64.0312C113.924 64.3125 114.156 64.5339 114.438 64.6953C114.719 64.8516 115.055 64.9297 115.445 64.9297C115.924 64.9297 116.318 64.8281 116.625 64.625C116.938 64.4219 117.188 64.1536 117.375 63.8203C117.562 63.487 117.708 63.125 117.812 62.7344V60.8516C117.75 60.5651 117.659 60.2891 117.539 60.0234C117.424 59.7526 117.273 59.513 117.086 59.3047C116.904 59.0911 116.677 58.9219 116.406 58.7969C116.141 58.6719 115.826 58.6094 115.461 58.6094C115.065 58.6094 114.724 58.6927 114.438 58.8594C114.156 59.0208 113.924 59.2448 113.742 59.5312C113.56 59.8125 113.424 60.1406 113.336 60.5156C113.253 60.8854 113.211 61.2812 113.211 61.7031ZM124.656 66.1562C124.068 66.1562 123.534 66.0573 123.055 65.8594C122.581 65.6562 122.172 65.3724 121.828 65.0078C121.49 64.6432 121.229 64.2109 121.047 63.7109C120.865 63.2109 120.773 62.6641 120.773 62.0703V61.7422C120.773 61.0547 120.875 60.4427 121.078 59.9062C121.281 59.3646 121.557 58.9062 121.906 58.5312C122.255 58.1562 122.651 57.8724 123.094 57.6797C123.536 57.487 123.995 57.3906 124.469 57.3906C125.073 57.3906 125.594 57.4948 126.031 57.7031C126.474 57.9115 126.836 58.2031 127.117 58.5781C127.398 58.9479 127.607 59.3854 127.742 59.8906C127.878 60.3906 127.945 60.9375 127.945 61.5312V62.1797H121.633V61H126.5V60.8906C126.479 60.5156 126.401 60.151 126.266 59.7969C126.135 59.4427 125.927 59.151 125.641 58.9219C125.354 58.6927 124.964 58.5781 124.469 58.5781C124.141 58.5781 123.839 58.6484 123.562 58.7891C123.286 58.9245 123.049 59.1276 122.852 59.3984C122.654 59.6693 122.5 60 122.391 60.3906C122.281 60.7812 122.227 61.2318 122.227 61.7422V62.0703C122.227 62.4714 122.281 62.849 122.391 63.2031C122.505 63.5521 122.669 63.8594 122.883 64.125C123.102 64.3906 123.365 64.599 123.672 64.75C123.984 64.901 124.339 64.9766 124.734 64.9766C125.245 64.9766 125.677 64.8724 126.031 64.6641C126.385 64.4557 126.695 64.1771 126.961 63.8281L127.836 64.5234C127.654 64.7995 127.422 65.0625 127.141 65.3125C126.859 65.5625 126.513 65.7656 126.102 65.9219C125.695 66.0781 125.214 66.1562 124.656 66.1562ZM134.555 63.7578C134.555 63.5495 134.508 63.3568 134.414 63.1797C134.326 62.9974 134.141 62.8333 133.859 62.6875C133.583 62.5365 133.167 62.4062 132.609 62.2969C132.141 62.1979 131.716 62.0807 131.336 61.9453C130.961 61.8099 130.641 61.6458 130.375 61.4531C130.115 61.2604 129.914 61.0339 129.773 60.7734C129.633 60.513 129.562 60.2083 129.562 59.8594C129.562 59.526 129.635 59.2109 129.781 58.9141C129.932 58.6172 130.143 58.3542 130.414 58.125C130.69 57.8958 131.021 57.7161 131.406 57.5859C131.792 57.4557 132.221 57.3906 132.695 57.3906C133.372 57.3906 133.951 57.5104 134.43 57.75C134.909 57.9896 135.276 58.3099 135.531 58.7109C135.786 59.1068 135.914 59.5469 135.914 60.0312H134.469C134.469 59.7969 134.398 59.5703 134.258 59.3516C134.122 59.1276 133.922 58.9427 133.656 58.7969C133.396 58.651 133.076 58.5781 132.695 58.5781C132.294 58.5781 131.969 58.6406 131.719 58.7656C131.474 58.8854 131.294 59.0391 131.18 59.2266C131.07 59.4141 131.016 59.612 131.016 59.8203C131.016 59.9766 131.042 60.1172 131.094 60.2422C131.151 60.362 131.25 60.474 131.391 60.5781C131.531 60.6771 131.729 60.7708 131.984 60.8594C132.24 60.9479 132.565 61.0365 132.961 61.125C133.654 61.2812 134.224 61.4688 134.672 61.6875C135.12 61.9062 135.453 62.1745 135.672 62.4922C135.891 62.8099 136 63.1953 136 63.6484C136 64.0182 135.922 64.3568 135.766 64.6641C135.615 64.9714 135.393 65.237 135.102 65.4609C134.815 65.6797 134.471 65.8516 134.07 65.9766C133.674 66.0964 133.229 66.1562 132.734 66.1562C131.99 66.1562 131.359 66.0234 130.844 65.7578C130.328 65.4922 129.938 65.1484 129.672 64.7266C129.406 64.3047 129.273 63.8594 129.273 63.3906H130.727C130.747 63.7865 130.862 64.1016 131.07 64.3359C131.279 64.5651 131.534 64.7292 131.836 64.8281C132.138 64.9219 132.438 64.9688 132.734 64.9688C133.13 64.9688 133.461 64.9167 133.727 64.8125C133.997 64.7083 134.203 64.5651 134.344 64.3828C134.484 64.2005 134.555 63.9922 134.555 63.7578ZM139.469 57.5469V66H138.016V57.5469H139.469ZM137.906 55.3047C137.906 55.0703 137.977 54.8724 138.117 54.7109C138.263 54.5495 138.477 54.4688 138.758 54.4688C139.034 54.4688 139.245 54.5495 139.391 54.7109C139.542 54.8724 139.617 55.0703 139.617 55.3047C139.617 55.5286 139.542 55.7214 139.391 55.8828C139.245 56.0391 139.034 56.1172 138.758 56.1172C138.477 56.1172 138.263 56.0391 138.117 55.8828C137.977 55.7214 137.906 55.5286 137.906 55.3047ZM147.266 57.5469H148.578V65.8203C148.578 66.5651 148.427 67.2005 148.125 67.7266C147.823 68.2526 147.401 68.651 146.859 68.9219C146.323 69.1979 145.703 69.3359 145 69.3359C144.708 69.3359 144.365 69.2891 143.969 69.1953C143.578 69.1068 143.193 68.9531 142.812 68.7344C142.438 68.5208 142.122 68.2318 141.867 67.8672L142.625 67.0078C142.979 67.4349 143.349 67.7318 143.734 67.8984C144.125 68.0651 144.51 68.1484 144.891 68.1484C145.349 68.1484 145.745 68.0625 146.078 67.8906C146.411 67.7188 146.669 67.4635 146.852 67.125C147.039 66.7917 147.133 66.3802 147.133 65.8906V59.4062L147.266 57.5469ZM141.445 61.8672V61.7031C141.445 61.0573 141.521 60.4714 141.672 59.9453C141.828 59.4141 142.049 58.9583 142.336 58.5781C142.628 58.1979 142.979 57.9062 143.391 57.7031C143.802 57.4948 144.266 57.3906 144.781 57.3906C145.312 57.3906 145.776 57.4844 146.172 57.6719C146.573 57.8542 146.911 58.1224 147.188 58.4766C147.469 58.8255 147.69 59.2474 147.852 59.7422C148.013 60.237 148.125 60.7969 148.188 61.4219V62.1406C148.13 62.7604 148.018 63.3177 147.852 63.8125C147.69 64.3073 147.469 64.7292 147.188 65.0781C146.911 65.4271 146.573 65.6953 146.172 65.8828C145.771 66.0651 145.302 66.1562 144.766 66.1562C144.26 66.1562 143.802 66.0495 143.391 65.8359C142.984 65.6224 142.635 65.3229 142.344 64.9375C142.052 64.5521 141.828 64.099 141.672 63.5781C141.521 63.0521 141.445 62.4818 141.445 61.8672ZM142.891 61.7031V61.8672C142.891 62.2891 142.932 62.6849 143.016 63.0547C143.104 63.4245 143.237 63.75 143.414 64.0312C143.596 64.3125 143.828 64.5339 144.109 64.6953C144.391 64.8516 144.727 64.9297 145.117 64.9297C145.596 64.9297 145.992 64.8281 146.305 64.625C146.617 64.4219 146.865 64.1536 147.047 63.8203C147.234 63.487 147.38 63.125 147.484 62.7344V60.8516C147.427 60.5651 147.339 60.2891 147.219 60.0234C147.104 59.7526 146.953 59.513 146.766 59.3047C146.583 59.0911 146.357 58.9219 146.086 58.7969C145.815 58.6719 145.497 58.6094 145.133 58.6094C144.737 58.6094 144.396 58.6927 144.109 58.8594C143.828 59.0208 143.596 59.2448 143.414 59.5312C143.237 59.8125 143.104 60.1406 143.016 60.5156C142.932 60.8854 142.891 61.2812 142.891 61.7031ZM152.219 59.3516V66H150.773V57.5469H152.141L152.219 59.3516ZM151.875 61.4531L151.273 61.4297C151.279 60.8516 151.365 60.3177 151.531 59.8281C151.698 59.3333 151.932 58.9036 152.234 58.5391C152.536 58.1745 152.896 57.8932 153.312 57.6953C153.734 57.4922 154.201 57.3906 154.711 57.3906C155.128 57.3906 155.503 57.4479 155.836 57.5625C156.169 57.6719 156.453 57.849 156.688 58.0938C156.927 58.3385 157.109 58.6562 157.234 59.0469C157.359 59.4323 157.422 59.9036 157.422 60.4609V66H155.969V60.4453C155.969 60.0026 155.904 59.6484 155.773 59.3828C155.643 59.112 155.453 58.9167 155.203 58.7969C154.953 58.6719 154.646 58.6094 154.281 58.6094C153.922 58.6094 153.594 58.6849 153.297 58.8359C153.005 58.987 152.753 59.1953 152.539 59.4609C152.331 59.7266 152.167 60.0312 152.047 60.375C151.932 60.7135 151.875 61.0729 151.875 61.4531ZM163.125 66.1562C162.536 66.1562 162.003 66.0573 161.523 65.8594C161.049 65.6562 160.641 65.3724 160.297 65.0078C159.958 64.6432 159.698 64.2109 159.516 63.7109C159.333 63.2109 159.242 62.6641 159.242 62.0703V61.7422C159.242 61.0547 159.344 60.4427 159.547 59.9062C159.75 59.3646 160.026 58.9062 160.375 58.5312C160.724 58.1562 161.12 57.8724 161.562 57.6797C162.005 57.487 162.464 57.3906 162.938 57.3906C163.542 57.3906 164.062 57.4948 164.5 57.7031C164.943 57.9115 165.305 58.2031 165.586 58.5781C165.867 58.9479 166.076 59.3854 166.211 59.8906C166.346 60.3906 166.414 60.9375 166.414 61.5312V62.1797H160.102V61H164.969V60.8906C164.948 60.5156 164.87 60.151 164.734 59.7969C164.604 59.4427 164.396 59.151 164.109 58.9219C163.823 58.6927 163.432 58.5781 162.938 58.5781C162.609 58.5781 162.307 58.6484 162.031 58.7891C161.755 58.9245 161.518 59.1276 161.32 59.3984C161.122 59.6693 160.969 60 160.859 60.3906C160.75 60.7812 160.695 61.2318 160.695 61.7422V62.0703C160.695 62.4714 160.75 62.849 160.859 63.2031C160.974 63.5521 161.138 63.8594 161.352 64.125C161.57 64.3906 161.833 64.599 162.141 64.75C162.453 64.901 162.807 64.9766 163.203 64.9766C163.714 64.9766 164.146 64.8724 164.5 64.6641C164.854 64.4557 165.164 64.1771 165.43 63.8281L166.305 64.5234C166.122 64.7995 165.891 65.0625 165.609 65.3125C165.328 65.5625 164.982 65.7656 164.57 65.9219C164.164 66.0781 163.682 66.1562 163.125 66.1562ZM169.547 58.875V66H168.102V57.5469H169.508L169.547 58.875ZM172.188 57.5L172.18 58.8438C172.06 58.8177 171.945 58.8021 171.836 58.7969C171.732 58.7865 171.612 58.7812 171.477 58.7812C171.143 58.7812 170.849 58.8333 170.594 58.9375C170.339 59.0417 170.122 59.1875 169.945 59.375C169.768 59.5625 169.628 59.7865 169.523 60.0469C169.424 60.3021 169.359 60.5833 169.328 60.8906L168.922 61.125C168.922 60.6146 168.971 60.1354 169.07 59.6875C169.174 59.2396 169.333 58.8438 169.547 58.5C169.76 58.151 170.031 57.8802 170.359 57.6875C170.693 57.4896 171.089 57.3906 171.547 57.3906C171.651 57.3906 171.771 57.4036 171.906 57.4297C172.042 57.4505 172.135 57.474 172.188 57.5ZM182.477 64.5547V60.2031C182.477 59.8698 182.409 59.5807 182.273 59.3359C182.143 59.0859 181.945 58.8932 181.68 58.7578C181.414 58.6224 181.086 58.5547 180.695 58.5547C180.331 58.5547 180.01 58.6172 179.734 58.7422C179.464 58.8672 179.25 59.0312 179.094 59.2344C178.943 59.4375 178.867 59.6562 178.867 59.8906H177.422C177.422 59.5885 177.5 59.2891 177.656 58.9922C177.812 58.6953 178.036 58.4271 178.328 58.1875C178.625 57.9427 178.979 57.75 179.391 57.6094C179.807 57.4635 180.271 57.3906 180.781 57.3906C181.396 57.3906 181.938 57.4948 182.406 57.7031C182.88 57.9115 183.25 58.2266 183.516 58.6484C183.786 59.0651 183.922 59.5885 183.922 60.2188V64.1562C183.922 64.4375 183.945 64.737 183.992 65.0547C184.044 65.3724 184.12 65.6458 184.219 65.875V66H182.711C182.638 65.8333 182.581 65.612 182.539 65.3359C182.497 65.0547 182.477 64.7943 182.477 64.5547ZM182.727 60.875L182.742 61.8906H181.281C180.87 61.8906 180.503 61.9245 180.18 61.9922C179.857 62.0547 179.586 62.151 179.367 62.2812C179.148 62.4115 178.982 62.5755 178.867 62.7734C178.753 62.9661 178.695 63.1927 178.695 63.4531C178.695 63.7188 178.755 63.9609 178.875 64.1797C178.995 64.3984 179.174 64.5729 179.414 64.7031C179.659 64.8281 179.958 64.8906 180.312 64.8906C180.755 64.8906 181.146 64.7969 181.484 64.6094C181.823 64.4219 182.091 64.1927 182.289 63.9219C182.492 63.651 182.602 63.388 182.617 63.1328L183.234 63.8281C183.198 64.0469 183.099 64.2891 182.938 64.5547C182.776 64.8203 182.56 65.0755 182.289 65.3203C182.023 65.5599 181.706 65.7604 181.336 65.9219C180.971 66.0781 180.56 66.1562 180.102 66.1562C179.529 66.1562 179.026 66.0443 178.594 65.8203C178.167 65.5964 177.833 65.2969 177.594 64.9219C177.359 64.5417 177.242 64.1172 177.242 63.6484C177.242 63.1953 177.331 62.7969 177.508 62.4531C177.685 62.1042 177.94 61.8151 178.273 61.5859C178.607 61.3516 179.008 61.1745 179.477 61.0547C179.945 60.9349 180.469 60.875 181.047 60.875H182.727ZM187.641 59.3516V66H186.195V57.5469H187.562L187.641 59.3516ZM187.297 61.4531L186.695 61.4297C186.701 60.8516 186.786 60.3177 186.953 59.8281C187.12 59.3333 187.354 58.9036 187.656 58.5391C187.958 58.1745 188.318 57.8932 188.734 57.6953C189.156 57.4922 189.622 57.3906 190.133 57.3906C190.549 57.3906 190.924 57.4479 191.258 57.5625C191.591 57.6719 191.875 57.849 192.109 58.0938C192.349 58.3385 192.531 58.6562 192.656 59.0469C192.781 59.4323 192.844 59.9036 192.844 60.4609V66H191.391V60.4453C191.391 60.0026 191.326 59.6484 191.195 59.3828C191.065 59.112 190.875 58.9167 190.625 58.7969C190.375 58.6719 190.068 58.6094 189.703 58.6094C189.344 58.6094 189.016 58.6849 188.719 58.8359C188.427 58.987 188.174 59.1953 187.961 59.4609C187.753 59.7266 187.589 60.0312 187.469 60.375C187.354 60.7135 187.297 61.0729 187.297 61.4531ZM200.367 64.3594V54H201.82V66H200.492L200.367 64.3594ZM194.68 61.8672V61.7031C194.68 61.0573 194.758 60.4714 194.914 59.9453C195.076 59.4141 195.302 58.9583 195.594 58.5781C195.891 58.1979 196.242 57.9062 196.648 57.7031C197.06 57.4948 197.518 57.3906 198.023 57.3906C198.555 57.3906 199.018 57.4844 199.414 57.6719C199.815 57.8542 200.154 58.1224 200.43 58.4766C200.711 58.8255 200.932 59.2474 201.094 59.7422C201.255 60.237 201.367 60.7969 201.43 61.4219V62.1406C201.372 62.7604 201.26 63.3177 201.094 63.8125C200.932 64.3073 200.711 64.7292 200.43 65.0781C200.154 65.4271 199.815 65.6953 199.414 65.8828C199.013 66.0651 198.544 66.1562 198.008 66.1562C197.513 66.1562 197.06 66.0495 196.648 65.8359C196.242 65.6224 195.891 65.3229 195.594 64.9375C195.302 64.5521 195.076 64.099 194.914 63.5781C194.758 63.0521 194.68 62.4818 194.68 61.8672ZM196.133 61.7031V61.8672C196.133 62.2891 196.174 62.6849 196.258 63.0547C196.346 63.4245 196.482 63.75 196.664 64.0312C196.846 64.3125 197.078 64.5339 197.359 64.6953C197.641 64.8516 197.977 64.9297 198.367 64.9297C198.846 64.9297 199.24 64.8281 199.547 64.625C199.859 64.4219 200.109 64.1536 200.297 63.8203C200.484 63.487 200.63 63.125 200.734 62.7344V60.8516C200.672 60.5651 200.581 60.2891 200.461 60.0234C200.346 59.7526 200.195 59.513 200.008 59.3047C199.826 59.0911 199.599 58.9219 199.328 58.7969C199.062 58.6719 198.747 58.6094 198.383 58.6094C197.987 58.6094 197.646 58.6927 197.359 58.8594C197.078 59.0208 196.846 59.2448 196.664 59.5312C196.482 59.8125 196.346 60.1406 196.258 60.5156C196.174 60.8854 196.133 61.2812 196.133 61.7031ZM210.18 64.5L212.352 57.5469H213.305L213.117 58.9297L210.906 66H209.977L210.18 64.5ZM208.719 57.5469L210.57 64.5781L210.703 66H209.727L207.273 57.5469H208.719ZM215.383 64.5234L217.148 57.5469H218.586L216.133 66H215.164L215.383 64.5234ZM213.516 57.5469L215.641 64.3828L215.883 66H214.961L212.688 58.9141L212.5 57.5469H213.516ZM223.578 66.1562C222.99 66.1562 222.456 66.0573 221.977 65.8594C221.503 65.6562 221.094 65.3724 220.75 65.0078C220.411 64.6432 220.151 64.2109 219.969 63.7109C219.786 63.2109 219.695 62.6641 219.695 62.0703V61.7422C219.695 61.0547 219.797 60.4427 220 59.9062C220.203 59.3646 220.479 58.9062 220.828 58.5312C221.177 58.1562 221.573 57.8724 222.016 57.6797C222.458 57.487 222.917 57.3906 223.391 57.3906C223.995 57.3906 224.516 57.4948 224.953 57.7031C225.396 57.9115 225.758 58.2031 226.039 58.5781C226.32 58.9479 226.529 59.3854 226.664 59.8906C226.799 60.3906 226.867 60.9375 226.867 61.5312V62.1797H220.555V61H225.422V60.8906C225.401 60.5156 225.323 60.151 225.188 59.7969C225.057 59.4427 224.849 59.151 224.562 58.9219C224.276 58.6927 223.885 58.5781 223.391 58.5781C223.062 58.5781 222.76 58.6484 222.484 58.7891C222.208 58.9245 221.971 59.1276 221.773 59.3984C221.576 59.6693 221.422 60 221.312 60.3906C221.203 60.7812 221.148 61.2318 221.148 61.7422V62.0703C221.148 62.4714 221.203 62.849 221.312 63.2031C221.427 63.5521 221.591 63.8594 221.805 64.125C222.023 64.3906 222.286 64.599 222.594 64.75C222.906 64.901 223.26 64.9766 223.656 64.9766C224.167 64.9766 224.599 64.8724 224.953 64.6641C225.307 64.4557 225.617 64.1771 225.883 63.8281L226.758 64.5234C226.576 64.7995 226.344 65.0625 226.062 65.3125C225.781 65.5625 225.435 65.7656 225.023 65.9219C224.617 66.0781 224.135 66.1562 223.578 66.1562ZM228.547 54H230V64.3594L229.875 66H228.547V54ZM235.711 61.7031V61.8672C235.711 62.4818 235.638 63.0521 235.492 63.5781C235.346 64.099 235.133 64.5521 234.852 64.9375C234.57 65.3229 234.227 65.6224 233.82 65.8359C233.414 66.0495 232.948 66.1562 232.422 66.1562C231.885 66.1562 231.414 66.0651 231.008 65.8828C230.607 65.6953 230.268 65.4271 229.992 65.0781C229.716 64.7292 229.495 64.3073 229.328 63.8125C229.167 63.3177 229.055 62.7604 228.992 62.1406V61.4219C229.055 60.7969 229.167 60.237 229.328 59.7422C229.495 59.2474 229.716 58.8255 229.992 58.4766C230.268 58.1224 230.607 57.8542 231.008 57.6719C231.409 57.4844 231.875 57.3906 232.406 57.3906C232.938 57.3906 233.409 57.4948 233.82 57.7031C234.232 57.9062 234.576 58.1979 234.852 58.5781C235.133 58.9583 235.346 59.4141 235.492 59.9453C235.638 60.4714 235.711 61.0573 235.711 61.7031ZM234.258 61.8672V61.7031C234.258 61.2812 234.219 60.8854 234.141 60.5156C234.062 60.1406 233.938 59.8125 233.766 59.5312C233.594 59.2448 233.367 59.0208 233.086 58.8594C232.805 58.6927 232.458 58.6094 232.047 58.6094C231.682 58.6094 231.365 58.6719 231.094 58.7969C230.828 58.9219 230.602 59.0911 230.414 59.3047C230.227 59.513 230.073 59.7526 229.953 60.0234C229.839 60.2891 229.753 60.5651 229.695 60.8516V62.7344C229.779 63.099 229.914 63.4505 230.102 63.7891C230.294 64.1224 230.549 64.3958 230.867 64.6094C231.19 64.8229 231.589 64.9297 232.062 64.9297C232.453 64.9297 232.786 64.8516 233.062 64.6953C233.344 64.5339 233.57 64.3125 233.742 64.0312C233.919 63.75 234.049 63.4245 234.133 63.0547C234.216 62.6849 234.258 62.2891 234.258 61.8672ZM34.4219 85.3594V75H35.875V87H34.5469L34.4219 85.3594ZM28.7344 82.8672V82.7031C28.7344 82.0573 28.8125 81.4714 28.9688 80.9453C29.1302 80.4141 29.3568 79.9583 29.6484 79.5781C29.9453 79.1979 30.2969 78.9062 30.7031 78.7031C31.1146 78.4948 31.5729 78.3906 32.0781 78.3906C32.6094 78.3906 33.0729 78.4844 33.4688 78.6719C33.8698 78.8542 34.2083 79.1224 34.4844 79.4766C34.7656 79.8255 34.987 80.2474 35.1484 80.7422C35.3099 81.237 35.4219 81.7969 35.4844 82.4219V83.1406C35.4271 83.7604 35.3151 84.3177 35.1484 84.8125C34.987 85.3073 34.7656 85.7292 34.4844 86.0781C34.2083 86.4271 33.8698 86.6953 33.4688 86.8828C33.0677 87.0651 32.599 87.1562 32.0625 87.1562C31.5677 87.1562 31.1146 87.0495 30.7031 86.8359C30.2969 86.6224 29.9453 86.3229 29.6484 85.9375C29.3568 85.5521 29.1302 85.099 28.9688 84.5781C28.8125 84.0521 28.7344 83.4818 28.7344 82.8672ZM30.1875 82.7031V82.8672C30.1875 83.2891 30.2292 83.6849 30.3125 84.0547C30.401 84.4245 30.5365 84.75 30.7188 85.0312C30.901 85.3125 31.1328 85.5339 31.4141 85.6953C31.6953 85.8516 32.0312 85.9297 32.4219 85.9297C32.901 85.9297 33.2943 85.8281 33.6016 85.625C33.9141 85.4219 34.1641 85.1536 34.3516 84.8203C34.5391 84.487 34.6849 84.125 34.7891 83.7344V81.8516C34.7266 81.5651 34.6354 81.2891 34.5156 81.0234C34.401 80.7526 34.25 80.513 34.0625 80.3047C33.8802 80.0911 33.6536 79.9219 33.3828 79.7969C33.1172 79.6719 32.8021 79.6094 32.4375 79.6094C32.0417 79.6094 31.7005 79.6927 31.4141 79.8594C31.1328 80.0208 30.901 80.2448 30.7188 80.5312C30.5365 80.8125 30.401 81.1406 30.3125 81.5156C30.2292 81.8854 30.1875 82.2812 30.1875 82.7031ZM41.6328 87.1562C41.0443 87.1562 40.5104 87.0573 40.0312 86.8594C39.5573 86.6562 39.1484 86.3724 38.8047 86.0078C38.4661 85.6432 38.2057 85.2109 38.0234 84.7109C37.8411 84.2109 37.75 83.6641 37.75 83.0703V82.7422C37.75 82.0547 37.8516 81.4427 38.0547 80.9062C38.2578 80.3646 38.5339 79.9062 38.8828 79.5312C39.2318 79.1562 39.6276 78.8724 40.0703 78.6797C40.513 78.487 40.9714 78.3906 41.4453 78.3906C42.0495 78.3906 42.5703 78.4948 43.0078 78.7031C43.4505 78.9115 43.8125 79.2031 44.0938 79.5781C44.375 79.9479 44.5833 80.3854 44.7188 80.8906C44.8542 81.3906 44.9219 81.9375 44.9219 82.5312V83.1797H38.6094V82H43.4766V81.8906C43.4557 81.5156 43.3776 81.151 43.2422 80.7969C43.112 80.4427 42.9036 80.151 42.6172 79.9219C42.3307 79.6927 41.9401 79.5781 41.4453 79.5781C41.1172 79.5781 40.8151 79.6484 40.5391 79.7891C40.263 79.9245 40.026 80.1276 39.8281 80.3984C39.6302 80.6693 39.4766 81 39.3672 81.3906C39.2578 81.7812 39.2031 82.2318 39.2031 82.7422V83.0703C39.2031 83.4714 39.2578 83.849 39.3672 84.2031C39.4818 84.5521 39.6458 84.8594 39.8594 85.125C40.0781 85.3906 40.3411 85.599 40.6484 85.75C40.9609 85.901 41.3151 85.9766 41.7109 85.9766C42.2214 85.9766 42.6536 85.8724 43.0078 85.6641C43.362 85.4557 43.6719 85.1771 43.9375 84.8281L44.8125 85.5234C44.6302 85.7995 44.3984 86.0625 44.1172 86.3125C43.8359 86.5625 43.4896 86.7656 43.0781 86.9219C42.6719 87.0781 42.1901 87.1562 41.6328 87.1562ZM49.0703 85.6953L51.3828 78.5469H52.8594L49.8203 87H48.8516L49.0703 85.6953ZM47.1406 78.5469L49.5234 85.7344L49.6875 87H48.7188L45.6562 78.5469H47.1406ZM57.6484 87.1562C57.0599 87.1562 56.526 87.0573 56.0469 86.8594C55.5729 86.6562 55.1641 86.3724 54.8203 86.0078C54.4818 85.6432 54.2214 85.2109 54.0391 84.7109C53.8568 84.2109 53.7656 83.6641 53.7656 83.0703V82.7422C53.7656 82.0547 53.8672 81.4427 54.0703 80.9062C54.2734 80.3646 54.5495 79.9062 54.8984 79.5312C55.2474 79.1562 55.6432 78.8724 56.0859 78.6797C56.5286 78.487 56.987 78.3906 57.4609 78.3906C58.0651 78.3906 58.5859 78.4948 59.0234 78.7031C59.4661 78.9115 59.8281 79.2031 60.1094 79.5781C60.3906 79.9479 60.599 80.3854 60.7344 80.8906C60.8698 81.3906 60.9375 81.9375 60.9375 82.5312V83.1797H54.625V82H59.4922V81.8906C59.4714 81.5156 59.3932 81.151 59.2578 80.7969C59.1276 80.4427 58.9193 80.151 58.6328 79.9219C58.3464 79.6927 57.9557 79.5781 57.4609 79.5781C57.1328 79.5781 56.8307 79.6484 56.5547 79.7891C56.2786 79.9245 56.0417 80.1276 55.8438 80.3984C55.6458 80.6693 55.4922 81 55.3828 81.3906C55.2734 81.7812 55.2188 82.2318 55.2188 82.7422V83.0703C55.2188 83.4714 55.2734 83.849 55.3828 84.2031C55.4974 84.5521 55.6615 84.8594 55.875 85.125C56.0938 85.3906 56.3568 85.599 56.6641 85.75C56.9766 85.901 57.3307 85.9766 57.7266 85.9766C58.237 85.9766 58.6693 85.8724 59.0234 85.6641C59.3776 85.4557 59.6875 85.1771 59.9531 84.8281L60.8281 85.5234C60.6458 85.7995 60.4141 86.0625 60.1328 86.3125C59.8516 86.5625 59.5052 86.7656 59.0938 86.9219C58.6875 87.0781 58.2057 87.1562 57.6484 87.1562ZM64.1953 75V87H62.7422V75H64.1953ZM66.1328 82.8672V82.6875C66.1328 82.0781 66.2214 81.513 66.3984 80.9922C66.5755 80.4661 66.8307 80.0104 67.1641 79.625C67.4974 79.2344 67.901 78.9323 68.375 78.7188C68.849 78.5 69.3802 78.3906 69.9688 78.3906C70.5625 78.3906 71.0964 78.5 71.5703 78.7188C72.0495 78.9323 72.4557 79.2344 72.7891 79.625C73.1276 80.0104 73.3854 80.4661 73.5625 80.9922C73.7396 81.513 73.8281 82.0781 73.8281 82.6875V82.8672C73.8281 83.4766 73.7396 84.0417 73.5625 84.5625C73.3854 85.0833 73.1276 85.5391 72.7891 85.9297C72.4557 86.3151 72.0521 86.6172 71.5781 86.8359C71.1094 87.0495 70.5781 87.1562 69.9844 87.1562C69.3906 87.1562 68.8568 87.0495 68.3828 86.8359C67.9089 86.6172 67.5026 86.3151 67.1641 85.9297C66.8307 85.5391 66.5755 85.0833 66.3984 84.5625C66.2214 84.0417 66.1328 83.4766 66.1328 82.8672ZM67.5781 82.6875V82.8672C67.5781 83.2891 67.6276 83.6875 67.7266 84.0625C67.8255 84.4323 67.974 84.7604 68.1719 85.0469C68.375 85.3333 68.6276 85.5599 68.9297 85.7266C69.2318 85.888 69.5833 85.9688 69.9844 85.9688C70.3802 85.9688 70.7266 85.888 71.0234 85.7266C71.3255 85.5599 71.5755 85.3333 71.7734 85.0469C71.9714 84.7604 72.1198 84.4323 72.2188 84.0625C72.3229 83.6875 72.375 83.2891 72.375 82.8672V82.6875C72.375 82.2708 72.3229 81.8776 72.2188 81.5078C72.1198 81.1328 71.9688 80.8021 71.7656 80.5156C71.5677 80.224 71.3177 79.9948 71.0156 79.8281C70.7188 79.6615 70.3698 79.5781 69.9688 79.5781C69.5729 79.5781 69.224 79.6615 68.9219 79.8281C68.625 79.9948 68.375 80.224 68.1719 80.5156C67.974 80.8021 67.8255 81.1328 67.7266 81.5078C67.6276 81.8776 67.5781 82.2708 67.5781 82.6875ZM77.0859 80.1719V90.25H75.6328V78.5469H76.9609L77.0859 80.1719ZM82.7812 82.7031V82.8672C82.7812 83.4818 82.7083 84.0521 82.5625 84.5781C82.4167 85.099 82.2031 85.5521 81.9219 85.9375C81.6458 86.3229 81.3047 86.6224 80.8984 86.8359C80.4922 87.0495 80.026 87.1562 79.5 87.1562C78.9635 87.1562 78.4896 87.0677 78.0781 86.8906C77.6667 86.7135 77.3177 86.4557 77.0312 86.1172C76.7448 85.7786 76.5156 85.3724 76.3438 84.8984C76.1771 84.4245 76.0625 83.8906 76 83.2969V82.4219C76.0625 81.7969 76.1797 81.237 76.3516 80.7422C76.5234 80.2474 76.75 79.8255 77.0312 79.4766C77.3177 79.1224 77.6641 78.8542 78.0703 78.6719C78.4766 78.4844 78.9453 78.3906 79.4766 78.3906C80.0078 78.3906 80.4792 78.4948 80.8906 78.7031C81.3021 78.9062 81.6484 79.1979 81.9297 79.5781C82.2109 79.9583 82.4219 80.4141 82.5625 80.9453C82.7083 81.4714 82.7812 82.0573 82.7812 82.7031ZM81.3281 82.8672V82.7031C81.3281 82.2812 81.2839 81.8854 81.1953 81.5156C81.1068 81.1406 80.9688 80.8125 80.7812 80.5312C80.599 80.2448 80.3646 80.0208 80.0781 79.8594C79.7917 79.6927 79.4505 79.6094 79.0547 79.6094C78.6901 79.6094 78.3724 79.6719 78.1016 79.7969C77.8359 79.9219 77.6094 80.0911 77.4219 80.3047C77.2344 80.513 77.0807 80.7526 76.9609 81.0234C76.8464 81.2891 76.7604 81.5651 76.7031 81.8516V83.875C76.8073 84.2396 76.9531 84.5833 77.1406 84.9062C77.3281 85.224 77.5781 85.4818 77.8906 85.6797C78.2031 85.8724 78.5964 85.9688 79.0703 85.9688C79.4609 85.9688 79.7969 85.888 80.0781 85.7266C80.3646 85.5599 80.599 85.3333 80.7812 85.0469C80.9688 84.7604 81.1068 84.4323 81.1953 84.0625C81.2839 83.6875 81.3281 83.2891 81.3281 82.8672ZM88.1328 87.1562C87.5443 87.1562 87.0104 87.0573 86.5312 86.8594C86.0573 86.6562 85.6484 86.3724 85.3047 86.0078C84.9661 85.6432 84.7057 85.2109 84.5234 84.7109C84.3411 84.2109 84.25 83.6641 84.25 83.0703V82.7422C84.25 82.0547 84.3516 81.4427 84.5547 80.9062C84.7578 80.3646 85.0339 79.9062 85.3828 79.5312C85.7318 79.1562 86.1276 78.8724 86.5703 78.6797C87.013 78.487 87.4714 78.3906 87.9453 78.3906C88.5495 78.3906 89.0703 78.4948 89.5078 78.7031C89.9505 78.9115 90.3125 79.2031 90.5938 79.5781C90.875 79.9479 91.0833 80.3854 91.2188 80.8906C91.3542 81.3906 91.4219 81.9375 91.4219 82.5312V83.1797H85.1094V82H89.9766V81.8906C89.9557 81.5156 89.8776 81.151 89.7422 80.7969C89.612 80.4427 89.4036 80.151 89.1172 79.9219C88.8307 79.6927 88.4401 79.5781 87.9453 79.5781C87.6172 79.5781 87.3151 79.6484 87.0391 79.7891C86.763 79.9245 86.526 80.1276 86.3281 80.3984C86.1302 80.6693 85.9766 81 85.8672 81.3906C85.7578 81.7812 85.7031 82.2318 85.7031 82.7422V83.0703C85.7031 83.4714 85.7578 83.849 85.8672 84.2031C85.9818 84.5521 86.1458 84.8594 86.3594 85.125C86.5781 85.3906 86.8411 85.599 87.1484 85.75C87.4609 85.901 87.8151 85.9766 88.2109 85.9766C88.7214 85.9766 89.1536 85.8724 89.5078 85.6641C89.862 85.4557 90.1719 85.1771 90.4375 84.8281L91.3125 85.5234C91.1302 85.7995 90.8984 86.0625 90.6172 86.3125C90.3359 86.5625 89.9896 86.7656 89.5781 86.9219C89.1719 87.0781 88.6901 87.1562 88.1328 87.1562ZM94.5547 79.875V87H93.1094V78.5469H94.5156L94.5547 79.875ZM97.1953 78.5L97.1875 79.8438C97.0677 79.8177 96.9531 79.8021 96.8438 79.7969C96.7396 79.7865 96.6198 79.7812 96.4844 79.7812C96.151 79.7812 95.8568 79.8333 95.6016 79.9375C95.3464 80.0417 95.1302 80.1875 94.9531 80.375C94.776 80.5625 94.6354 80.7865 94.5312 81.0469C94.4323 81.3021 94.3672 81.5833 94.3359 81.8906L93.9297 82.125C93.9297 81.6146 93.9792 81.1354 94.0781 80.6875C94.1823 80.2396 94.3411 79.8438 94.5547 79.5C94.7682 79.151 95.0391 78.8802 95.3672 78.6875C95.7005 78.4896 96.0964 78.3906 96.5547 78.3906C96.6589 78.3906 96.7786 78.4036 96.9141 78.4297C97.0495 78.4505 97.1432 78.474 97.1953 78.5ZM97.5859 86.2344C97.5859 85.9896 97.6615 85.7839 97.8125 85.6172C97.9688 85.4453 98.1927 85.3594 98.4844 85.3594C98.776 85.3594 98.9974 85.4453 99.1484 85.6172C99.3047 85.7839 99.3828 85.9896 99.3828 86.2344C99.3828 86.474 99.3047 86.6771 99.1484 86.8438C98.9974 87.0104 98.776 87.0938 98.4844 87.0938C98.1927 87.0938 97.9688 87.0104 97.8125 86.8438C97.6615 86.6771 97.5859 86.474 97.5859 86.2344ZM101.805 86.2344C101.805 85.9896 101.88 85.7839 102.031 85.6172C102.188 85.4453 102.411 85.3594 102.703 85.3594C102.995 85.3594 103.216 85.4453 103.367 85.6172C103.523 85.7839 103.602 85.9896 103.602 86.2344C103.602 86.474 103.523 86.6771 103.367 86.8438C103.216 87.0104 102.995 87.0938 102.703 87.0938C102.411 87.0938 102.188 87.0104 102.031 86.8438C101.88 86.6771 101.805 86.474 101.805 86.2344ZM106.023 86.2344C106.023 85.9896 106.099 85.7839 106.25 85.6172C106.406 85.4453 106.63 85.3594 106.922 85.3594C107.214 85.3594 107.435 85.4453 107.586 85.6172C107.742 85.7839 107.82 85.9896 107.82 86.2344C107.82 86.474 107.742 86.6771 107.586 86.8438C107.435 87.0104 107.214 87.0938 106.922 87.0938C106.63 87.0938 106.406 87.0104 106.25 86.8438C106.099 86.6771 106.023 86.474 106.023 86.2344ZM114.18 75H115.633V85.3594L115.508 87H114.18V75ZM121.344 82.7031V82.8672C121.344 83.4818 121.271 84.0521 121.125 84.5781C120.979 85.099 120.766 85.5521 120.484 85.9375C120.203 86.3229 119.859 86.6224 119.453 86.8359C119.047 87.0495 118.581 87.1562 118.055 87.1562C117.518 87.1562 117.047 87.0651 116.641 86.8828C116.24 86.6953 115.901 86.4271 115.625 86.0781C115.349 85.7292 115.128 85.3073 114.961 84.8125C114.799 84.3177 114.688 83.7604 114.625 83.1406V82.4219C114.688 81.7969 114.799 81.237 114.961 80.7422C115.128 80.2474 115.349 79.8255 115.625 79.4766C115.901 79.1224 116.24 78.8542 116.641 78.6719C117.042 78.4844 117.508 78.3906 118.039 78.3906C118.57 78.3906 119.042 78.4948 119.453 78.7031C119.865 78.9062 120.208 79.1979 120.484 79.5781C120.766 79.9583 120.979 80.4141 121.125 80.9453C121.271 81.4714 121.344 82.0573 121.344 82.7031ZM119.891 82.8672V82.7031C119.891 82.2812 119.852 81.8854 119.773 81.5156C119.695 81.1406 119.57 80.8125 119.398 80.5312C119.227 80.2448 119 80.0208 118.719 79.8594C118.438 79.6927 118.091 79.6094 117.68 79.6094C117.315 79.6094 116.997 79.6719 116.727 79.7969C116.461 79.9219 116.234 80.0911 116.047 80.3047C115.859 80.513 115.706 80.7526 115.586 81.0234C115.471 81.2891 115.385 81.5651 115.328 81.8516V83.7344C115.411 84.099 115.547 84.4505 115.734 84.7891C115.927 85.1224 116.182 85.3958 116.5 85.6094C116.823 85.8229 117.221 85.9297 117.695 85.9297C118.086 85.9297 118.419 85.8516 118.695 85.6953C118.977 85.5339 119.203 85.3125 119.375 85.0312C119.552 84.75 119.682 84.4245 119.766 84.0547C119.849 83.6849 119.891 83.2891 119.891 82.8672ZM128.344 85.0469V78.5469H129.797V87H128.414L128.344 85.0469ZM128.617 83.2656L129.219 83.25C129.219 83.8125 129.159 84.3333 129.039 84.8125C128.924 85.2865 128.737 85.6979 128.477 86.0469C128.216 86.3958 127.875 86.6693 127.453 86.8672C127.031 87.0599 126.518 87.1562 125.914 87.1562C125.503 87.1562 125.125 87.0964 124.781 86.9766C124.443 86.8568 124.151 86.6719 123.906 86.4219C123.661 86.1719 123.471 85.8464 123.336 85.4453C123.206 85.0443 123.141 84.5625 123.141 84V78.5469H124.586V84.0156C124.586 84.3958 124.628 84.7109 124.711 84.9609C124.799 85.2057 124.917 85.401 125.062 85.5469C125.214 85.6875 125.38 85.7865 125.562 85.8438C125.75 85.901 125.943 85.9297 126.141 85.9297C126.755 85.9297 127.242 85.8125 127.602 85.5781C127.961 85.3385 128.219 85.0182 128.375 84.6172C128.536 84.2109 128.617 83.7604 128.617 83.2656ZM135.539 78.5469V79.6562H130.969V78.5469H135.539ZM132.516 76.4922H133.961V84.9062C133.961 85.1927 134.005 85.4089 134.094 85.5547C134.182 85.7005 134.297 85.7969 134.438 85.8438C134.578 85.8906 134.729 85.9141 134.891 85.9141C135.01 85.9141 135.135 85.9036 135.266 85.8828C135.401 85.8568 135.503 85.8359 135.57 85.8203L135.578 87C135.464 87.0365 135.312 87.0703 135.125 87.1016C134.943 87.138 134.721 87.1562 134.461 87.1562C134.107 87.1562 133.781 87.0859 133.484 86.9453C133.188 86.8047 132.951 86.5703 132.773 86.2422C132.602 85.9089 132.516 85.4609 132.516 84.8984V76.4922ZM146.188 85.5547V81.2031C146.188 80.8698 146.12 80.5807 145.984 80.3359C145.854 80.0859 145.656 79.8932 145.391 79.7578C145.125 79.6224 144.797 79.5547 144.406 79.5547C144.042 79.5547 143.721 79.6172 143.445 79.7422C143.174 79.8672 142.961 80.0312 142.805 80.2344C142.654 80.4375 142.578 80.6562 142.578 80.8906H141.133C141.133 80.5885 141.211 80.2891 141.367 79.9922C141.523 79.6953 141.747 79.4271 142.039 79.1875C142.336 78.9427 142.69 78.75 143.102 78.6094C143.518 78.4635 143.982 78.3906 144.492 78.3906C145.107 78.3906 145.648 78.4948 146.117 78.7031C146.591 78.9115 146.961 79.2266 147.227 79.6484C147.497 80.0651 147.633 80.5885 147.633 81.2188V85.1562C147.633 85.4375 147.656 85.737 147.703 86.0547C147.755 86.3724 147.831 86.6458 147.93 86.875V87H146.422C146.349 86.8333 146.292 86.612 146.25 86.3359C146.208 86.0547 146.188 85.7943 146.188 85.5547ZM146.438 81.875L146.453 82.8906H144.992C144.581 82.8906 144.214 82.9245 143.891 82.9922C143.568 83.0547 143.297 83.151 143.078 83.2812C142.859 83.4115 142.693 83.5755 142.578 83.7734C142.464 83.9661 142.406 84.1927 142.406 84.4531C142.406 84.7188 142.466 84.9609 142.586 85.1797C142.706 85.3984 142.885 85.5729 143.125 85.7031C143.37 85.8281 143.669 85.8906 144.023 85.8906C144.466 85.8906 144.857 85.7969 145.195 85.6094C145.534 85.4219 145.802 85.1927 146 84.9219C146.203 84.651 146.312 84.388 146.328 84.1328L146.945 84.8281C146.909 85.0469 146.81 85.2891 146.648 85.5547C146.487 85.8203 146.271 86.0755 146 86.3203C145.734 86.5599 145.417 86.7604 145.047 86.9219C144.682 87.0781 144.271 87.1562 143.812 87.1562C143.24 87.1562 142.737 87.0443 142.305 86.8203C141.878 86.5964 141.544 86.2969 141.305 85.9219C141.07 85.5417 140.953 85.1172 140.953 84.6484C140.953 84.1953 141.042 83.7969 141.219 83.4531C141.396 83.1042 141.651 82.8151 141.984 82.5859C142.318 82.3516 142.719 82.1745 143.188 82.0547C143.656 81.9349 144.18 81.875 144.758 81.875H146.438ZM149.898 75H151.352V85.3594L151.227 87H149.898V75ZM157.062 82.7031V82.8672C157.062 83.4818 156.99 84.0521 156.844 84.5781C156.698 85.099 156.484 85.5521 156.203 85.9375C155.922 86.3229 155.578 86.6224 155.172 86.8359C154.766 87.0495 154.299 87.1562 153.773 87.1562C153.237 87.1562 152.766 87.0651 152.359 86.8828C151.958 86.6953 151.62 86.4271 151.344 86.0781C151.068 85.7292 150.846 85.3073 150.68 84.8125C150.518 84.3177 150.406 83.7604 150.344 83.1406V82.4219C150.406 81.7969 150.518 81.237 150.68 80.7422C150.846 80.2474 151.068 79.8255 151.344 79.4766C151.62 79.1224 151.958 78.8542 152.359 78.6719C152.76 78.4844 153.227 78.3906 153.758 78.3906C154.289 78.3906 154.76 78.4948 155.172 78.7031C155.583 78.9062 155.927 79.1979 156.203 79.5781C156.484 79.9583 156.698 80.4141 156.844 80.9453C156.99 81.4714 157.062 82.0573 157.062 82.7031ZM155.609 82.8672V82.7031C155.609 82.2812 155.57 81.8854 155.492 81.5156C155.414 81.1406 155.289 80.8125 155.117 80.5312C154.945 80.2448 154.719 80.0208 154.438 79.8594C154.156 79.6927 153.81 79.6094 153.398 79.6094C153.034 79.6094 152.716 79.6719 152.445 79.7969C152.18 79.9219 151.953 80.0911 151.766 80.3047C151.578 80.513 151.424 80.7526 151.305 81.0234C151.19 81.2891 151.104 81.5651 151.047 81.8516V83.7344C151.13 84.099 151.266 84.4505 151.453 84.7891C151.646 85.1224 151.901 85.3958 152.219 85.6094C152.542 85.8229 152.94 85.9297 153.414 85.9297C153.805 85.9297 154.138 85.8516 154.414 85.6953C154.695 85.5339 154.922 85.3125 155.094 85.0312C155.271 84.75 155.401 84.4245 155.484 84.0547C155.568 83.6849 155.609 83.2891 155.609 82.8672ZM158.508 82.8672V82.6875C158.508 82.0781 158.596 81.513 158.773 80.9922C158.951 80.4661 159.206 80.0104 159.539 79.625C159.872 79.2344 160.276 78.9323 160.75 78.7188C161.224 78.5 161.755 78.3906 162.344 78.3906C162.938 78.3906 163.471 78.5 163.945 78.7188C164.424 78.9323 164.831 79.2344 165.164 79.625C165.503 80.0104 165.76 80.4661 165.938 80.9922C166.115 81.513 166.203 82.0781 166.203 82.6875V82.8672C166.203 83.4766 166.115 84.0417 165.938 84.5625C165.76 85.0833 165.503 85.5391 165.164 85.9297C164.831 86.3151 164.427 86.6172 163.953 86.8359C163.484 87.0495 162.953 87.1562 162.359 87.1562C161.766 87.1562 161.232 87.0495 160.758 86.8359C160.284 86.6172 159.878 86.3151 159.539 85.9297C159.206 85.5391 158.951 85.0833 158.773 84.5625C158.596 84.0417 158.508 83.4766 158.508 82.8672ZM159.953 82.6875V82.8672C159.953 83.2891 160.003 83.6875 160.102 84.0625C160.201 84.4323 160.349 84.7604 160.547 85.0469C160.75 85.3333 161.003 85.5599 161.305 85.7266C161.607 85.888 161.958 85.9688 162.359 85.9688C162.755 85.9688 163.102 85.888 163.398 85.7266C163.701 85.5599 163.951 85.3333 164.148 85.0469C164.346 84.7604 164.495 84.4323 164.594 84.0625C164.698 83.6875 164.75 83.2891 164.75 82.8672V82.6875C164.75 82.2708 164.698 81.8776 164.594 81.5078C164.495 81.1328 164.344 80.8021 164.141 80.5156C163.943 80.224 163.693 79.9948 163.391 79.8281C163.094 79.6615 162.745 79.5781 162.344 79.5781C161.948 79.5781 161.599 79.6615 161.297 79.8281C161 79.9948 160.75 80.224 160.547 80.5156C160.349 80.8021 160.201 81.1328 160.102 81.5078C160.003 81.8776 159.953 82.2708 159.953 82.6875ZM170.461 85.6953L172.773 78.5469H174.25L171.211 87H170.242L170.461 85.6953ZM168.531 78.5469L170.914 85.7344L171.078 87H170.109L167.047 78.5469H168.531ZM179.039 87.1562C178.451 87.1562 177.917 87.0573 177.438 86.8594C176.964 86.6562 176.555 86.3724 176.211 86.0078C175.872 85.6432 175.612 85.2109 175.43 84.7109C175.247 84.2109 175.156 83.6641 175.156 83.0703V82.7422C175.156 82.0547 175.258 81.4427 175.461 80.9062C175.664 80.3646 175.94 79.9062 176.289 79.5312C176.638 79.1562 177.034 78.8724 177.477 78.6797C177.919 78.487 178.378 78.3906 178.852 78.3906C179.456 78.3906 179.977 78.4948 180.414 78.7031C180.857 78.9115 181.219 79.2031 181.5 79.5781C181.781 79.9479 181.99 80.3854 182.125 80.8906C182.26 81.3906 182.328 81.9375 182.328 82.5312V83.1797H176.016V82H180.883V81.8906C180.862 81.5156 180.784 81.151 180.648 80.7969C180.518 80.4427 180.31 80.151 180.023 79.9219C179.737 79.6927 179.346 79.5781 178.852 79.5781C178.523 79.5781 178.221 79.6484 177.945 79.7891C177.669 79.9245 177.432 80.1276 177.234 80.3984C177.036 80.6693 176.883 81 176.773 81.3906C176.664 81.7812 176.609 82.2318 176.609 82.7422V83.0703C176.609 83.4714 176.664 83.849 176.773 84.2031C176.888 84.5521 177.052 84.8594 177.266 85.125C177.484 85.3906 177.747 85.599 178.055 85.75C178.367 85.901 178.721 85.9766 179.117 85.9766C179.628 85.9766 180.06 85.8724 180.414 85.6641C180.768 85.4557 181.078 85.1771 181.344 84.8281L182.219 85.5234C182.036 85.7995 181.805 86.0625 181.523 86.3125C181.242 86.5625 180.896 86.7656 180.484 86.9219C180.078 87.0781 179.596 87.1562 179.039 87.1562ZM192.969 85.5547V81.2031C192.969 80.8698 192.901 80.5807 192.766 80.3359C192.635 80.0859 192.438 79.8932 192.172 79.7578C191.906 79.6224 191.578 79.5547 191.188 79.5547C190.823 79.5547 190.503 79.6172 190.227 79.7422C189.956 79.8672 189.742 80.0312 189.586 80.2344C189.435 80.4375 189.359 80.6562 189.359 80.8906H187.914C187.914 80.5885 187.992 80.2891 188.148 79.9922C188.305 79.6953 188.529 79.4271 188.82 79.1875C189.117 78.9427 189.471 78.75 189.883 78.6094C190.299 78.4635 190.763 78.3906 191.273 78.3906C191.888 78.3906 192.43 78.4948 192.898 78.7031C193.372 78.9115 193.742 79.2266 194.008 79.6484C194.279 80.0651 194.414 80.5885 194.414 81.2188V85.1562C194.414 85.4375 194.438 85.737 194.484 86.0547C194.536 86.3724 194.612 86.6458 194.711 86.875V87H193.203C193.13 86.8333 193.073 86.612 193.031 86.3359C192.99 86.0547 192.969 85.7943 192.969 85.5547ZM193.219 81.875L193.234 82.8906H191.773C191.362 82.8906 190.995 82.9245 190.672 82.9922C190.349 83.0547 190.078 83.151 189.859 83.2812C189.641 83.4115 189.474 83.5755 189.359 83.7734C189.245 83.9661 189.188 84.1927 189.188 84.4531C189.188 84.7188 189.247 84.9609 189.367 85.1797C189.487 85.3984 189.667 85.5729 189.906 85.7031C190.151 85.8281 190.451 85.8906 190.805 85.8906C191.247 85.8906 191.638 85.7969 191.977 85.6094C192.315 85.4219 192.583 85.1927 192.781 84.9219C192.984 84.651 193.094 84.388 193.109 84.1328L193.727 84.8281C193.69 85.0469 193.591 85.2891 193.43 85.5547C193.268 85.8203 193.052 86.0755 192.781 86.3203C192.516 86.5599 192.198 86.7604 191.828 86.9219C191.464 87.0781 191.052 87.1562 190.594 87.1562C190.021 87.1562 189.518 87.0443 189.086 86.8203C188.659 86.5964 188.326 86.2969 188.086 85.9219C187.852 85.5417 187.734 85.1172 187.734 84.6484C187.734 84.1953 187.823 83.7969 188 83.4531C188.177 83.1042 188.432 82.8151 188.766 82.5859C189.099 82.3516 189.5 82.1745 189.969 82.0547C190.438 81.9349 190.961 81.875 191.539 81.875H193.219ZM198.258 75V87H196.805V75H198.258ZM202.148 75V87H200.695V75H202.148ZM213.914 78.5469H215.227V86.8203C215.227 87.5651 215.076 88.2005 214.773 88.7266C214.471 89.2526 214.049 89.651 213.508 89.9219C212.971 90.1979 212.352 90.3359 211.648 90.3359C211.357 90.3359 211.013 90.2891 210.617 90.1953C210.227 90.1068 209.841 89.9531 209.461 89.7344C209.086 89.5208 208.771 89.2318 208.516 88.8672L209.273 88.0078C209.628 88.4349 209.997 88.7318 210.383 88.8984C210.773 89.0651 211.159 89.1484 211.539 89.1484C211.997 89.1484 212.393 89.0625 212.727 88.8906C213.06 88.7188 213.318 88.4635 213.5 88.125C213.688 87.7917 213.781 87.3802 213.781 86.8906V80.4062L213.914 78.5469ZM208.094 82.8672V82.7031C208.094 82.0573 208.169 81.4714 208.32 80.9453C208.477 80.4141 208.698 79.9583 208.984 79.5781C209.276 79.1979 209.628 78.9062 210.039 78.7031C210.451 78.4948 210.914 78.3906 211.43 78.3906C211.961 78.3906 212.424 78.4844 212.82 78.6719C213.221 78.8542 213.56 79.1224 213.836 79.4766C214.117 79.8255 214.339 80.2474 214.5 80.7422C214.661 81.237 214.773 81.7969 214.836 82.4219V83.1406C214.779 83.7604 214.667 84.3177 214.5 84.8125C214.339 85.3073 214.117 85.7292 213.836 86.0781C213.56 86.4271 213.221 86.6953 212.82 86.8828C212.419 87.0651 211.951 87.1562 211.414 87.1562C210.909 87.1562 210.451 87.0495 210.039 86.8359C209.633 86.6224 209.284 86.3229 208.992 85.9375C208.701 85.5521 208.477 85.099 208.32 84.5781C208.169 84.0521 208.094 83.4818 208.094 82.8672ZM209.539 82.7031V82.8672C209.539 83.2891 209.581 83.6849 209.664 84.0547C209.753 84.4245 209.885 84.75 210.062 85.0312C210.245 85.3125 210.477 85.5339 210.758 85.6953C211.039 85.8516 211.375 85.9297 211.766 85.9297C212.245 85.9297 212.641 85.8281 212.953 85.625C213.266 85.4219 213.513 85.1536 213.695 84.8203C213.883 84.487 214.029 84.125 214.133 83.7344V81.8516C214.076 81.5651 213.987 81.2891 213.867 81.0234C213.753 80.7526 213.602 80.513 213.414 80.3047C213.232 80.0911 213.005 79.9219 212.734 79.7969C212.464 79.6719 212.146 79.6094 211.781 79.6094C211.385 79.6094 211.044 79.6927 210.758 79.8594C210.477 80.0208 210.245 80.2448 210.062 80.5312C209.885 80.8125 209.753 81.1406 209.664 81.5156C209.581 81.8854 209.539 82.2812 209.539 82.7031ZM218.867 79.875V87H217.422V78.5469H218.828L218.867 79.875ZM221.508 78.5L221.5 79.8438C221.38 79.8177 221.266 79.8021 221.156 79.7969C221.052 79.7865 220.932 79.7812 220.797 79.7812C220.464 79.7812 220.169 79.8333 219.914 79.9375C219.659 80.0417 219.443 80.1875 219.266 80.375C219.089 80.5625 218.948 80.7865 218.844 81.0469C218.745 81.3021 218.68 81.5833 218.648 81.8906L218.242 82.125C218.242 81.6146 218.292 81.1354 218.391 80.6875C218.495 80.2396 218.654 79.8438 218.867 79.5C219.081 79.151 219.352 78.8802 219.68 78.6875C220.013 78.4896 220.409 78.3906 220.867 78.3906C220.971 78.3906 221.091 78.4036 221.227 78.4297C221.362 78.4505 221.456 78.474 221.508 78.5ZM226.195 87.1562C225.607 87.1562 225.073 87.0573 224.594 86.8594C224.12 86.6562 223.711 86.3724 223.367 86.0078C223.029 85.6432 222.768 85.2109 222.586 84.7109C222.404 84.2109 222.312 83.6641 222.312 83.0703V82.7422C222.312 82.0547 222.414 81.4427 222.617 80.9062C222.82 80.3646 223.096 79.9062 223.445 79.5312C223.794 79.1562 224.19 78.8724 224.633 78.6797C225.076 78.487 225.534 78.3906 226.008 78.3906C226.612 78.3906 227.133 78.4948 227.57 78.7031C228.013 78.9115 228.375 79.2031 228.656 79.5781C228.938 79.9479 229.146 80.3854 229.281 80.8906C229.417 81.3906 229.484 81.9375 229.484 82.5312V83.1797H223.172V82H228.039V81.8906C228.018 81.5156 227.94 81.151 227.805 80.7969C227.674 80.4427 227.466 80.151 227.18 79.9219C226.893 79.6927 226.503 79.5781 226.008 79.5781C225.68 79.5781 225.378 79.6484 225.102 79.7891C224.826 79.9245 224.589 80.1276 224.391 80.3984C224.193 80.6693 224.039 81 223.93 81.3906C223.82 81.7812 223.766 82.2318 223.766 82.7422V83.0703C223.766 83.4714 223.82 83.849 223.93 84.2031C224.044 84.5521 224.208 84.8594 224.422 85.125C224.641 85.3906 224.904 85.599 225.211 85.75C225.523 85.901 225.878 85.9766 226.273 85.9766C226.784 85.9766 227.216 85.8724 227.57 85.6641C227.924 85.4557 228.234 85.1771 228.5 84.8281L229.375 85.5234C229.193 85.7995 228.961 86.0625 228.68 86.3125C228.398 86.5625 228.052 86.7656 227.641 86.9219C227.234 87.0781 226.753 87.1562 226.195 87.1562ZM236.156 85.5547V81.2031C236.156 80.8698 236.089 80.5807 235.953 80.3359C235.823 80.0859 235.625 79.8932 235.359 79.7578C235.094 79.6224 234.766 79.5547 234.375 79.5547C234.01 79.5547 233.69 79.6172 233.414 79.7422C233.143 79.8672 232.93 80.0312 232.773 80.2344C232.622 80.4375 232.547 80.6562 232.547 80.8906H231.102C231.102 80.5885 231.18 80.2891 231.336 79.9922C231.492 79.6953 231.716 79.4271 232.008 79.1875C232.305 78.9427 232.659 78.75 233.07 78.6094C233.487 78.4635 233.951 78.3906 234.461 78.3906C235.076 78.3906 235.617 78.4948 236.086 78.7031C236.56 78.9115 236.93 79.2266 237.195 79.6484C237.466 80.0651 237.602 80.5885 237.602 81.2188V85.1562C237.602 85.4375 237.625 85.737 237.672 86.0547C237.724 86.3724 237.799 86.6458 237.898 86.875V87H236.391C236.318 86.8333 236.26 86.612 236.219 86.3359C236.177 86.0547 236.156 85.7943 236.156 85.5547ZM236.406 81.875L236.422 82.8906H234.961C234.549 82.8906 234.182 82.9245 233.859 82.9922C233.536 83.0547 233.266 83.151 233.047 83.2812C232.828 83.4115 232.661 83.5755 232.547 83.7734C232.432 83.9661 232.375 84.1927 232.375 84.4531C232.375 84.7188 232.435 84.9609 232.555 85.1797C232.674 85.3984 232.854 85.5729 233.094 85.7031C233.339 85.8281 233.638 85.8906 233.992 85.8906C234.435 85.8906 234.826 85.7969 235.164 85.6094C235.503 85.4219 235.771 85.1927 235.969 84.9219C236.172 84.651 236.281 84.388 236.297 84.1328L236.914 84.8281C236.878 85.0469 236.779 85.2891 236.617 85.5547C236.456 85.8203 236.24 86.0755 235.969 86.3203C235.703 86.5599 235.385 86.7604 235.016 86.9219C234.651 87.0781 234.24 87.1562 233.781 87.1562C233.208 87.1562 232.706 87.0443 232.273 86.8203C231.846 86.5964 231.513 86.2969 231.273 85.9219C231.039 85.5417 230.922 85.1172 230.922 84.6484C230.922 84.1953 231.01 83.7969 231.188 83.4531C231.365 83.1042 231.62 82.8151 231.953 82.5859C232.286 82.3516 232.688 82.1745 233.156 82.0547C233.625 81.9349 234.148 81.875 234.727 81.875H236.406ZM243.414 78.5469V79.6562H238.844V78.5469H243.414ZM240.391 76.4922H241.836V84.9062C241.836 85.1927 241.88 85.4089 241.969 85.5547C242.057 85.7005 242.172 85.7969 242.312 85.8438C242.453 85.8906 242.604 85.9141 242.766 85.9141C242.885 85.9141 243.01 85.9036 243.141 85.8828C243.276 85.8568 243.378 85.8359 243.445 85.8203L243.453 87C243.339 87.0365 243.188 87.0703 243 87.1016C242.818 87.138 242.596 87.1562 242.336 87.1562C241.982 87.1562 241.656 87.0859 241.359 86.9453C241.062 86.8047 240.826 86.5703 240.648 86.2422C240.477 85.9089 240.391 85.4609 240.391 84.8984V76.4922ZM112.062 102.172V112.25H110.609V100.547H111.938L112.062 102.172ZM117.758 104.703V104.867C117.758 105.482 117.685 106.052 117.539 106.578C117.393 107.099 117.18 107.552 116.898 107.938C116.622 108.323 116.281 108.622 115.875 108.836C115.469 109.049 115.003 109.156 114.477 109.156C113.94 109.156 113.466 109.068 113.055 108.891C112.643 108.714 112.294 108.456 112.008 108.117C111.721 107.779 111.492 107.372 111.32 106.898C111.154 106.424 111.039 105.891 110.977 105.297V104.422C111.039 103.797 111.156 103.237 111.328 102.742C111.5 102.247 111.727 101.826 112.008 101.477C112.294 101.122 112.641 100.854 113.047 100.672C113.453 100.484 113.922 100.391 114.453 100.391C114.984 100.391 115.456 100.495 115.867 100.703C116.279 100.906 116.625 101.198 116.906 101.578C117.188 101.958 117.398 102.414 117.539 102.945C117.685 103.471 117.758 104.057 117.758 104.703ZM116.305 104.867V104.703C116.305 104.281 116.26 103.885 116.172 103.516C116.083 103.141 115.945 102.812 115.758 102.531C115.576 102.245 115.341 102.021 115.055 101.859C114.768 101.693 114.427 101.609 114.031 101.609C113.667 101.609 113.349 101.672 113.078 101.797C112.812 101.922 112.586 102.091 112.398 102.305C112.211 102.513 112.057 102.753 111.938 103.023C111.823 103.289 111.737 103.565 111.68 103.852V105.875C111.784 106.24 111.93 106.583 112.117 106.906C112.305 107.224 112.555 107.482 112.867 107.68C113.18 107.872 113.573 107.969 114.047 107.969C114.438 107.969 114.773 107.888 115.055 107.727C115.341 107.56 115.576 107.333 115.758 107.047C115.945 106.76 116.083 106.432 116.172 106.062C116.26 105.688 116.305 105.289 116.305 104.867ZM123.109 109.156C122.521 109.156 121.987 109.057 121.508 108.859C121.034 108.656 120.625 108.372 120.281 108.008C119.943 107.643 119.682 107.211 119.5 106.711C119.318 106.211 119.227 105.664 119.227 105.07V104.742C119.227 104.055 119.328 103.443 119.531 102.906C119.734 102.365 120.01 101.906 120.359 101.531C120.708 101.156 121.104 100.872 121.547 100.68C121.99 100.487 122.448 100.391 122.922 100.391C123.526 100.391 124.047 100.495 124.484 100.703C124.927 100.911 125.289 101.203 125.57 101.578C125.852 101.948 126.06 102.385 126.195 102.891C126.331 103.391 126.398 103.938 126.398 104.531V105.18H120.086V104H124.953V103.891C124.932 103.516 124.854 103.151 124.719 102.797C124.589 102.443 124.38 102.151 124.094 101.922C123.807 101.693 123.417 101.578 122.922 101.578C122.594 101.578 122.292 101.648 122.016 101.789C121.74 101.924 121.503 102.128 121.305 102.398C121.107 102.669 120.953 103 120.844 103.391C120.734 103.781 120.68 104.232 120.68 104.742V105.07C120.68 105.471 120.734 105.849 120.844 106.203C120.958 106.552 121.122 106.859 121.336 107.125C121.555 107.391 121.818 107.599 122.125 107.75C122.438 107.901 122.792 107.977 123.188 107.977C123.698 107.977 124.13 107.872 124.484 107.664C124.839 107.456 125.148 107.177 125.414 106.828L126.289 107.523C126.107 107.799 125.875 108.062 125.594 108.312C125.312 108.562 124.966 108.766 124.555 108.922C124.148 109.078 123.667 109.156 123.109 109.156ZM127.703 104.867V104.688C127.703 104.078 127.792 103.513 127.969 102.992C128.146 102.466 128.401 102.01 128.734 101.625C129.068 101.234 129.471 100.932 129.945 100.719C130.419 100.5 130.951 100.391 131.539 100.391C132.133 100.391 132.667 100.5 133.141 100.719C133.62 100.932 134.026 101.234 134.359 101.625C134.698 102.01 134.956 102.466 135.133 102.992C135.31 103.513 135.398 104.078 135.398 104.688V104.867C135.398 105.477 135.31 106.042 135.133 106.562C134.956 107.083 134.698 107.539 134.359 107.93C134.026 108.315 133.622 108.617 133.148 108.836C132.68 109.049 132.148 109.156 131.555 109.156C130.961 109.156 130.427 109.049 129.953 108.836C129.479 108.617 129.073 108.315 128.734 107.93C128.401 107.539 128.146 107.083 127.969 106.562C127.792 106.042 127.703 105.477 127.703 104.867ZM129.148 104.688V104.867C129.148 105.289 129.198 105.688 129.297 106.062C129.396 106.432 129.544 106.76 129.742 107.047C129.945 107.333 130.198 107.56 130.5 107.727C130.802 107.888 131.154 107.969 131.555 107.969C131.951 107.969 132.297 107.888 132.594 107.727C132.896 107.56 133.146 107.333 133.344 107.047C133.542 106.76 133.69 106.432 133.789 106.062C133.893 105.688 133.945 105.289 133.945 104.867V104.688C133.945 104.271 133.893 103.878 133.789 103.508C133.69 103.133 133.539 102.802 133.336 102.516C133.138 102.224 132.888 101.995 132.586 101.828C132.289 101.661 131.94 101.578 131.539 101.578C131.143 101.578 130.794 101.661 130.492 101.828C130.195 101.995 129.945 102.224 129.742 102.516C129.544 102.802 129.396 103.133 129.297 103.508C129.198 103.878 129.148 104.271 129.148 104.688ZM138.656 102.172V112.25H137.203V100.547H138.531L138.656 102.172ZM144.352 104.703V104.867C144.352 105.482 144.279 106.052 144.133 106.578C143.987 107.099 143.773 107.552 143.492 107.938C143.216 108.323 142.875 108.622 142.469 108.836C142.062 109.049 141.596 109.156 141.07 109.156C140.534 109.156 140.06 109.068 139.648 108.891C139.237 108.714 138.888 108.456 138.602 108.117C138.315 107.779 138.086 107.372 137.914 106.898C137.747 106.424 137.633 105.891 137.57 105.297V104.422C137.633 103.797 137.75 103.237 137.922 102.742C138.094 102.247 138.32 101.826 138.602 101.477C138.888 101.122 139.234 100.854 139.641 100.672C140.047 100.484 140.516 100.391 141.047 100.391C141.578 100.391 142.049 100.495 142.461 100.703C142.872 100.906 143.219 101.198 143.5 101.578C143.781 101.958 143.992 102.414 144.133 102.945C144.279 103.471 144.352 104.057 144.352 104.703ZM142.898 104.867V104.703C142.898 104.281 142.854 103.885 142.766 103.516C142.677 103.141 142.539 102.812 142.352 102.531C142.169 102.245 141.935 102.021 141.648 101.859C141.362 101.693 141.021 101.609 140.625 101.609C140.26 101.609 139.943 101.672 139.672 101.797C139.406 101.922 139.18 102.091 138.992 102.305C138.805 102.513 138.651 102.753 138.531 103.023C138.417 103.289 138.331 103.565 138.273 103.852V105.875C138.378 106.24 138.523 106.583 138.711 106.906C138.898 107.224 139.148 107.482 139.461 107.68C139.773 107.872 140.167 107.969 140.641 107.969C141.031 107.969 141.367 107.888 141.648 107.727C141.935 107.56 142.169 107.333 142.352 107.047C142.539 106.76 142.677 106.432 142.766 106.062C142.854 105.688 142.898 105.289 142.898 104.867ZM147.766 97V109H146.312V97H147.766ZM153.594 109.156C153.005 109.156 152.471 109.057 151.992 108.859C151.518 108.656 151.109 108.372 150.766 108.008C150.427 107.643 150.167 107.211 149.984 106.711C149.802 106.211 149.711 105.664 149.711 105.07V104.742C149.711 104.055 149.812 103.443 150.016 102.906C150.219 102.365 150.495 101.906 150.844 101.531C151.193 101.156 151.589 100.872 152.031 100.68C152.474 100.487 152.932 100.391 153.406 100.391C154.01 100.391 154.531 100.495 154.969 100.703C155.411 100.911 155.773 101.203 156.055 101.578C156.336 101.948 156.544 102.385 156.68 102.891C156.815 103.391 156.883 103.938 156.883 104.531V105.18H150.57V104H155.438V103.891C155.417 103.516 155.339 103.151 155.203 102.797C155.073 102.443 154.865 102.151 154.578 101.922C154.292 101.693 153.901 101.578 153.406 101.578C153.078 101.578 152.776 101.648 152.5 101.789C152.224 101.924 151.987 102.128 151.789 102.398C151.591 102.669 151.438 103 151.328 103.391C151.219 103.781 151.164 104.232 151.164 104.742V105.07C151.164 105.471 151.219 105.849 151.328 106.203C151.443 106.552 151.607 106.859 151.82 107.125C152.039 107.391 152.302 107.599 152.609 107.75C152.922 107.901 153.276 107.977 153.672 107.977C154.182 107.977 154.615 107.872 154.969 107.664C155.323 107.456 155.633 107.177 155.898 106.828L156.773 107.523C156.591 107.799 156.359 108.062 156.078 108.312C155.797 108.562 155.451 108.766 155.039 108.922C154.633 109.078 154.151 109.156 153.594 109.156ZM159.531 97V98.0625L159.297 100.852H158.43V98.1328V97H159.531ZM161.641 97V98.0625L161.406 100.852H160.539V98.0781V97H161.641Z" fill="#3F3B3D"/>
<defs>
<clipPath id="clip0_1_162">
<rect width="128" height="32" fill="white" transform="translate(72)"/>
</clipPath>
</defs>
</svg>
